{
.appVersion = "3133";
.formatVersion = 3;
axes = (
{
name = Weight;
tag = wght;
}
);
classes = (
{
code = "zero
one
two
twostroke
three
four
five
Tonefive
six
seven
eight
nine
zero.slash
one.ss01
three.1
four.ss01
six.ss01
nine.ss01
zero.tf
one.tf
two.tf
three.tf
four.tf
five.tf
six.tf
seven.tf
eight.tf
nine.tf
zero.tf.slash
one.tf.ss01
three.1.tf
four.tf.ss01
six.tf.ss01
nine.tf.ss01
";
name = Numeral;
},
{
code = "space
nbspace
narrownbspace
mediumspace-math
enquad
emquad
enspace
emspace
thirdemspace
quarteremspace
sixthemspace
figurespace
punctuationspace
thinspace
hairspace
zerowidthspace
";
name = Whitespace;
},
{
automatic = 1;

glyphs = (
{
color = 6;
glyphname = A;
kernLeft = A;
kernRight = A;
lastChange = "2022-07-22 10:10:39 +0000";
layers = (
{
anchors = (
{
name = bottom;
pos = (644,0);
},
{
name = ogonek;
pos = (1284,0);
},
{
name = tonos;
pos = (446,1490);
},
{
name = top;
pos = (644,1676);
}
);
guides = (
{
angle = 90;
pos = (1800,1832);
}
);
layerId = "C698F293-3EC0-4A5A-A3A0-0FDB1F5CF265";
shapes = (
{
closed = 1;
nodes = (
(638,1254,l),
(650,1254,l),
(1096,0,l),
(1284,0,l),
(738,1490,l),
(552,1490,l),
(4,0,l),
(194,0,l)
);
},
{
closed = 1;
nodes = (
(264,422,l),
(1026,422,l),
(1026,582,l),
(264,582,l)
);
}
);
width = 1288;
},
{
anchors = (
{
name = bottom;
pos = (790,0);
},
{
name = ogonek;
pos = (1558,0);
},
{
name = tonos;
pos = (436,1490);
},
{
name = top;
pos = (790,1676);
}
);
background = {
shapes = (
{
pos = (-1436,0);
ref = V;
}
);
};
guides = (
{
pos = (892,1364);
},
{
orientation = center;
angle = 90;
pos = (-3110,964);
}
);
layerId = "5C20EF92-B63D-42A8-8878-93C2863E0093";
shapes = (
{
closed = 1;
nodes = (
(784,1080,l),
(796,1080,l),
(1122,0,l),
(1558,0,l),
(1066,1490,l),
(514,1490,l),
(22,0,l),
(458,0,l)
);
},
{
closed = 1;
nodes = (
(378,286,l),
(1198,286,l),
(1198,588,l),
(378,588,l)
);
}
);
width = 1580;
},
{
anchors = (
{
name = bottom;
pos = (632,0);
},
{
name = ogonek;
pos = (1196,0);
},
{
name = tonos;
pos = (526,1490);
},
{
name = top;
pos = (632,1676);
}
);
layerId = "B1F27B51-9973-4381-9301-4FE46FE1CA59";
shapes = (
{
closed = 1;
nodes = (
(628,1432,l),
(634,1432,l),
(1146,0,l),
(1196,0,l),
(664,1490,l),
(600,1490,l),
(66,0,l),
(116,0,l)
);
},
{
closed = 1;
nodes = (
(286,504,l),
(978,504,l),
(978,550,l),
(286,550,l)
);
}
);
width = 1262;
}
);
metricRight = "=|A";
unicode = 65;
userData = {
com.typemytype.robofont.guideline.magnetic.9EkLRXjahr = 5;
"interface.width-adjustments" = (
-16
);
};
},
{
color = 6;
glyphname = AE;
kernLeft = A;
kernRight = E;
lastChange = "2022-07-22 10:10:39 +0000";
layers = (
{
anchors = (
{
name = top;
pos = (1276,1676);
}
);
background = {
shapes = (
{
ref = A;
},
{
pos = (1104,0);
ref = E;
}
);
};
layerId = "C698F293-3EC0-4A5A-A3A0-0FDB1F5CF265";
shapes = (
{
closed = 1;
nodes = (
(202,0,l),
(828,1330,l),
(936,1330,l),
(936,0,l),
(1846,0,l),
(1846,160,l),
(1116,160,l),
(1116,666,l),
(1788,666,l),
(1788,826,l),
(1116,826,l),
(1116,1330,l),
(1834,1330,l),
(1834,1490,l),
(726,1490,l),
(4,0,l)
);
},
{
closed = 1;
nodes = (
(1026,422,l),
(1026,582,l),
(346,582,l),
(346,422,l)
);
}
);
width = 1932;
},
{
anchors = (
{
name = top;
pos = (1328,1676);
}
);
background = {
shapes = (
{
pos = (4,0);
ref = A;
},
{
pos = (1224,0);
ref = E;
}
);
};
guides = (
{
angle = 90;
pos = (1244,2140);
}
);
layerId = "5C20EF92-B63D-42A8-8878-93C2863E0093";
shapes = (
{
closed = 1;
nodes = (
(468,0,l),
(860,1080,l),
(962,1080,l),
(962,0,l),
(2032,0,l),
(2032,326,l),
(1366,326,l),
(1366,582,l),
(1980,582,l),
(1980,908,l),
(1366,908,l),
(1366,1164,l),
(2036,1164,l),
(2036,1490,l),
(604,1490,l),
(22,0,l)
);
},
{
closed = 1;
nodes = (
(1200,286,l),
(1200,588,l),
(380,588,l),
(380,286,l)
);
}
);
width = 2116;
},
{
anchors = (
{
name = top;
pos = (1256,1676);
}
);
layerId = "B1F27B51-9973-4381-9301-4FE46FE1CA59";
shapes = (
{
closed = 1;
nodes = (
(120,0,l),
(856,1442,l),
(1000,1442,l),
(1000,0,l),
(1816,0,l),
(1816,46,l),
(1048,46,l),
(1048,722,l),
(1752,722,l),
(1752,768,l),
(1048,768,l),
(1048,1442,l),
(1794,1442,l),
(1794,1490,l),
(826,1490,l),
(66,0,l)
);
},
{
closed = 1;
nodes = (
(1026,504,l),
(1026,550,l),
(358,550,l),
(358,504,l)
);
}
);
width = 1964;
}
);
metricLeft = A;
metricRight = E;
unicode = 198;
userData = {
interface.gridadjust.original = "{'width': 2647, 'leftMargin': -30, 'rightMargin': 45}";
"interface.width-adjustments" = (
-16
);
};
},
{
color = 6;
glyphname = B;
kernLeft = B;
kernRight = B;
lastChange = "2022-07-22 10:10:39 +0000";
layers = (
{
anchors = (
{
name = bottom;
pos = (598,0);
},
{
name = top;
pos = (590,1676);
}
);
guides = (
{
angle = 90;
pos = (828,1772);
},
{
angle = 90;
pos = (1516,1340);
}
);
layerId = "C698F293-3EC0-4A5A-A3A0-0FDB1F5CF265";
shapes = (
{
closed = 1;
nodes = (
(670,0,ls),
(1023,0,o),
(1168,172,o),
(1168,396,cs),
(1168,631,o),
(1005,759,o),
(868,768,c),
(868,782,l),
(996,817,o),
(1110,902,o),
(1110,1094,cs),
(1110,1312,o),
(964,1490,o),
(654,1490,cs),
(132,1490,l),
(132,0,l)
);
},
{
closed = 1;
nodes = (
(312,678,l),
(680,678,ls),
(874,678,o),
(996,547,o),
(996,396,cs),
(996,265,o),
(906,160,o),
(670,160,cs),
(312,160,l)
);
},
{
closed = 1;
nodes = (
(312,1330,l),
(654,1330,ls),
(851,1330,o),
(938,1225,o),
(938,1094,cs),
(938,937,o),
(810,834,o),
(648,834,cs),
(312,834,l)
);
}
);
width = 1236;
},
{
anchors = (
{
name = bottom;
pos = (640,0);
},
{
name = top;
pos = (642,1676);
}
);
guides = (
{
orientation = center;
angle = 90;
pos = (-2720,716);
}
);
layerId = "5C20EF92-B63D-42A8-8878-93C2863E0093";
shapes = (
{
closed = 1;
nodes = (
(774,0,ls),
(1097,0,o),
(1296,177,o),
(1296,422,cs),
(1296,632,o),
(1142,769,o),
(950,776,c),
(950,792,l),
(1123,825,o),
(1238,953,o),
(1238,1118,cs),
(1238,1344,o),
(1058,1490,o),
(718,1490,cs),
(72,1490,l),
(72,0,l)
);
},
{
closed = 1;
nodes = (
(476,638,l),
(672,638,ls),
(794,638,o),
(870,579,o),
(870,474,cs),
(870,375,o),
(801,322,o),
(666,322,cs),
(476,322,l)
);
},
{
closed = 1;
nodes = (
(476,1172,l),
(648,1172,ls),
(748,1172,o),
(822,1121,o),
(822,1030,cs),
(822,938,o),
(748,888,o),
(642,888,cs),
(476,888,l)
);
}
);
width = 1320;
},
{
anchors = (
{
name = bottom;
pos = (638,0);
},
{
name = top;
pos = (620,1676);
}
);
guides = (
{
orientation = center;
angle = 180;
pos = (944,1040);
}
);
layerId = "B1F27B51-9973-4381-9301-4FE46FE1CA59";
shapes = (
{
closed = 1;
nodes = (
(748,0,ls),
(1004,0,o),
(1154,151,o),
(1154,382,cs),
(1154,588,o),
(1031,740,o),
(870,754,c),
(870,760,l),
(1014,796,o),
(1096,936,o),
(1096,1112,cs),
(1096,1346,o),
(948,1490,o),
(698,1490,cs),
(232,1490,l),
(232,0,l)
);
},
{
closed = 1;
nodes = (
(280,734,l),
(748,734,ls),
(958,734,o),
(1108,588,o),
(1108,382,cs),
(1108,180,o),
(966,46,o),
(748,46,cs),
(280,46,l)
);
},
{
closed = 1;
nodes = (
(280,1442,l),
(698,1442,ls),
(915,1442,o),
(1050,1323,o),
(1050,1112,cs),
(1050,934,o),
(951,780,o),
(748,780,cs),
(280,780,l)
);
}
);
width = 1312;
}
);
metricLeft = H;
unicode = 66;
userData = {
com.typemytype.robofont.guideline.magnetic.olHMUUD5VH = 5;
com.typemytype.robofont.guideline.magnetic.rWKPWS6RQH = 5;
"interface.width-adjustments" = (
-16
);
};
},
{
color = 3;
glyphname = Bhook;
kernLeft = B;
kernRight = B;
lastChange = "2022-07-22 10:10:39 +0000";
layers = (
{
layerId = "C698F293-3EC0-4A5A-A3A0-0FDB1F5CF265";
shapes = (
{
closed = 1;
nodes = (
(494,1490,l),
(348,1490,ls),
(156,1489,o),
(51,1356,o),
(50,1192,cs),
(50,1094,l),
(220,1094,l),
(220,1150,ls),
(220,1242,o),
(234,1329,o),
(350,1330,cs),
(494,1330,l)
);
},
{
pos = (312,0);
ref = B;
}
);
width = 1548;
},
{
layerId = "5C20EF92-B63D-42A8-8878-93C2863E0093";
shapes = (
{
closed = 1;
nodes = (
(808,1490,l),
(544,1490,ls),
(231,1489,o),
(30,1329,o),
(32,1048,cs),
(32,870,l),
(386,870,l),
(386,978,ls),
(385,1065,o),
(420,1167,o),
(544,1166,cs),
(808,1166,l,{
name = hr00;
})
);
},
{
pos = (494,0);
ref = B;
}
);
width = 1814;
},
{
layerId = "B1F27B51-9973-4381-9301-4FE46FE1CA59";
shapes = (
{
closed = 1;
nodes = (
(454,1490,l),
(322,1490,ls),
(195,1489,o),
(126,1416,o),
(126,1280,cs),
(126,1228,l),
(172,1228,l),
(172,1254,ls),
(172,1391,o),
(215,1443,o),
(326,1442,cs),
(454,1442,l,{
name = hr00;
})
);
},
{
alignment = -1;
pos = (200,0);
ref = B;
}
);
width = 1512;
}
);
metricLeft = T;
metricRight = B;
unicode = 385;
userData = {
interface.gridadjust.original = "{'width': 2046.0, 'leftMargin': 41, 'rightMargin': 100.0}";
"interface.width-adjustments" = (
-16
);
};
},
{
color = 6;
glyphname = Btopbar;
lastChange = "2022-07-22 10:10:39 +0000";
layers = (
{
background = {
shapes = (
{
ref = B;
}
);
};
guides = (
{
angle = 90;
pos = (96,1684);
}
);
layerId = "C698F293-3EC0-4A5A-A3A0-0FDB1F5CF265";
shapes = (
{
closed = 1;
nodes = (
(690,0,ls),
(1011,0,o),
(1185,180,o),
(1186,440,cs),
(1185,698,o),
(1011,864,o),
(690,864,cs),
(312,864,l),
(312,1330,l),
(1032,1330,l),
(1032,1490,l),
(132,1490,l),
(132,0,l)
);
},
{
closed = 1;
nodes = (
(312,704,l),
(690,704,ls),
(895,704,o),
(1008,585,o),
(1008,442,cs),
(1008,297,o),
(895,157,o),
(690,158,cs),
(312,158,l)
);
}
);
width = 1242;
},
{
layerId = "5C20EF92-B63D-42A8-8878-93C2863E0093";
shapes = (
{
closed = 1;
nodes = (
(628,0,ls),
(1003,0,o),
(1253,204,o),
(1254,500,cs),
(1253,797,o),
(1003,989,o),
(628,990,cs),
(476,990,l),
(476,1164,l),
(1120,1164,l),
(1120,1490,l),
(72,1490,l),
(72,0,l)
);
},
{
closed = 1;
nodes = (
(476,680,l),
(628,680,ls),
(773,681,o),
(852,605,o),
(852,504,cs),
(852,396,o),
(773,317,o),
(628,318,cs),
(476,318,l)
);
}
);
width = 1292;
},
{
layerId = "B1F27B51-9973-4381-9301-4FE46FE1CA59";
shapes = (
{
closed = 1;
nodes = (
(792,0,ls),
(1048,0,o),
(1207,155,o),
(1208,404,cs),
(1207,631,o),
(1044,777,o),
(792,776,cs),
(280,776,l),
(280,1442,l),
(1042,1442,l),
(1042,1490,l),
(232,1490,l),
(232,0,l)
);
},
{
closed = 1;
nodes = (
(280,730,l),
(792,730,ls),
(1015,730,o),
(1161,602,o),
(1160,408,cs),
(1160,180,o),
(1024,47,o),
(792,46,cs),
(280,46,l)
);
}
);
width = 1338;
}
);
metricLeft = B;
metricRight = b;
tags = (
"TODO-opsz"
);
unicode = 386;
userData = {
com.typemytype.robofont.guideline.magnetic.8OVvpe1adm = 5;
interface.gridadjust.original = "{'width': 1777, 'leftMargin': 171, 'rightMargin': 158}";
"interface.width-adjustments" = (
-16
);
};
},
{
color = 6;
glyphname = C;
kernLeft = C;
kernRight = C;
lastChange = "2022-07-22 10:10:39 +0000";
layers = (
{
anchors = (
{
name = cedilla;
pos = (732,-12);
},
{
name = top;
pos = (732,1676);
}
);
background = {
shapes = (
{
ref = O;
}
);
};
guides = (
{
angle = 90;
pos = (976,1432);
}
);
layerId = "C698F293-3EC0-4A5A-A3A0-0FDB1F5CF265";
shapes = (
{
closed = 1;
nodes = (
(1031,-20,o),
(1276,160,o),
(1330,466,c),
(1150,466,l),
(1107,259,o),
(929,148,o),
(732,148,cs),
(461,148,o),
(248,358,o),
(248,744,cs),
(248,1132,o),
(461,1342,o),
(732,1342,cs),
(929,1342,o),
(1107,1231,o),
(1150,1024,c),
(1330,1024,l),
(1276,1329,o),
(1031,1510,o),
(732,1510,cs),
(351,1510,o),
(74,1216,o),
(74,744,cs),
(74,273,o),
(351,-20,o),
(732,-20,cs)
);
}
);
width = 1394;
},
{
anchors = (
{
name = cedilla;
pos = (776,6);
},
{
name = top;
pos = (784,1676);
}
);
background = {
hints = (
{
horizontal = 1;
place = (-20, 21);
target = up;
type = BottomGhost;
},
{
horizontal = 1;
place = (1510, -20);
target = down;
type = TopGhost;
},
{
horizontal = 1;
options = 4;
place = (-20, 0);
type = TTSnap;
},
{
horizontal = 1;
options = 4;
place = (1510, 0);
type = TTSnap;
},
{
horizontal = 1;
place = (-20, 21);
target = up;
type = BottomGhost;
},
{
horizontal = 1;
place = (1510, -20);
target = down;
type = TopGhost;
},
{
horizontal = 1;
options = 4;
place = (-20, 0);
type = TTSnap;
},
{
horizontal = 1;
options = 4;
place = (1510, 0);
type = TTSnap;
},
{
horizontal = 1;
place = (-20, 21);
target = up;
type = BottomGhost;
},
{
horizontal = 1;
place = (1510, -20);
target = down;
type = TopGhost;
},
{
horizontal = 1;
options = 4;
place = (-20, 0);
type = TTSnap;
},
{
horizontal = 1;
options = 4;
place = (1510, 0);
type = TTSnap;
}
);
shapes = (
{
ref = O;
}
);
};
guides = (
{
pos = (1016,1024);
},
{
pos = (-132,0);
}
);
layerId = "5C20EF92-B63D-42A8-8878-93C2863E0093";
shapes = (
{
closed = 1;
nodes = (
(1221,-20,o),
(1442,284,o),
(1462,538,c),
(1052,538,l),
(1032,411,o),
(942,332,o),
(794,332,cs),
(596,332,o),
(482,471,o),
(482,744,cs),
(482,1004,o),
(593,1158,o),
(796,1158,cs),
(952,1158,o),
(1041,1066,o),
(1052,930,c),
(1462,930,l),
(1431,1300,o),
(1160,1510,o),
(784,1510,cs),
(383,1510,o),
(66,1242,o),
(66,744,cs),
(66,249,o),
(375,-20,o),
(784,-20,cs)
);
}
);
width = 1526;
},
{
anchors = (
{
name = cedilla;
pos = (766,0);
},
{
name = top;
pos = (766,1676);
}
);
layerId = "B1F27B51-9973-4381-9301-4FE46FE1CA59";
shapes = (
{
closed = 1;
nodes = (
(1116,-20,o),
(1299,256,o),
(1336,466,c),
(1286,466,l),
(1249,265,o),
(1069,26,o),
(766,26,cs),
(460,26,o),
(194,276,o),
(194,744,cs),
(194,1207,o),
(460,1464,o),
(766,1464,cs),
(1069,1464,o),
(1249,1222,o),
(1286,1024,c),
(1336,1024,l),
(1299,1236,o),
(1116,1510,o),
(766,1510,cs),
(399,1510,o),
(148,1201,o),
(148,744,cs),
(148,288,o),
(399,-20,o),
(766,-20,cs)
);
}
);
width = 1480;
}
);
metricLeft = O;
unicode = 67;
userData = {
com.typemytype.robofont.guideline.magnetic.ju3ppiFr9V = 5;
"interface.width-adjustments" = (
-16
);
};
},
{
color = 3;
glyphname = Chook;
kernLeft = C;
kernRight = C;
lastChange = "2022-07-22 10:10:39 +0000";
layers = (
{
layerId = "C698F293-3EC0-4A5A-A3A0-0FDB1F5CF265";
shapes = (
{
closed = 1;
nodes = (
(1330,1210,ls),
(1331,1327,o),
(1401,1361,o),
(1494,1362,cs),
(1514,1361,o),
(1535,1359,o),
(1550,1356,c),
(1550,1502,l),
(1523,1510,o),
(1485,1510,o),
(1450,1510,cs),
(1287,1510,o),
(1159,1402,o),
(1160,1210,cs),
(1160,1024,l),
(1330,1024,l)
);
},
{
ref = C;
}
);
width = 1484;
},
{
guides = (
{
angle = 90;
pos = (-1716,0);
}
);
layerId = "5C20EF92-B63D-42A8-8878-93C2863E0093";
shapes = (
{
closed = 1;
nodes = (
(1462,1016,ls),
(1463,1172,o),
(1596,1225,o),
(1690,1224,c),
(1716,1225,o),
(1771,1222,o),
(1800,1222,c),
(1800,1542,l),
(1730,1551,o),
(1681,1551,o),
(1620,1550,cs),
(1332,1551,o),
(1073,1388,o),
(1072,1082,cs),
(1072,930,l),
(1462,930,l,{
name = hr00;
})
);
},
{
ref = C;
}
);
width = 1758;
},
{
layerId = "B1F27B51-9973-4381-9301-4FE46FE1CA59";
shapes = (
{
closed = 1;
nodes = (
(1336,1272,ls),
(1335,1393,o),
(1370,1440,o),
(1462,1440,cs),
(1476,1440,o),
(1489,1439,o),
(1498,1438,c),
(1498,1484,l),
(1489,1486,o),
(1476,1487,o),
(1462,1486,cs),
(1343,1487,o),
(1289,1419,o),
(1288,1272,cs),
(1288,1024,l),
(1336,1024,l,{
name = hr00;
})
);
},
{
alignment = -1;
ref = C;
}
);
width = 1444;
}
);
metricLeft = C;
unicode = 391;
userData = {
interface.gridadjust.original = "{'width': 1998, 'leftMargin': 256, 'rightMargin': -44}";
};
},
{
color = 6;
glyphname = D;
kernLeft = B;
kernRight = D;
lastChange = "2022-07-22 10:10:39 +0000";
layers = (
{
anchors = (
{
name = bottom;
pos = (574,0);
},
{
name = cross;
pos = (222,768);
},
{
name = top;
pos = (568,1676);
}
);
layerId = "C698F293-3EC0-4A5A-A3A0-0FDB1F5CF265";
shapes = (
{
closed = 1;
nodes = (
(1046,0,o),
(1302,282,o),
(1302,748,cs),
(1302,1210,o),
(1046,1490,o),
(612,1490,cs),
(226,1490,l),
(226,1330,l),
(600,1330,ls),
(950,1330,o),
(1128,1108,o),
(1128,748,cs),
(1128,384,o),
(950,160,o),
(580,160,cs),
(234,160,l),
(234,0,l),
(592,0,ls)
);
},
{
closed = 1;
nodes = (
(132,1490,l),
(132,0,l),
(312,0,l),
(312,1490,l)
);
}
);
width = 1376;
},
{
anchors = (
{
name = bottom;
pos = (650,0);
},
{
name = cross;
pos = (272,788);
},
{
name = top;
pos = (570,1676);
}
);
guides = (
{
pos = (1776,1024);
},
{
pos = (-132,764);
},
{
pos = (-132,1548);
},
{
pos = (1740,1696);
},
{
pos = (1740,348);
},
{
pos = (1276,1480);
},
{
pos = (1340,560);
}
);
layerId = "5C20EF92-B63D-42A8-8878-93C2863E0093";
shapes = (
{
closed = 1;
nodes = (
(1099,0,o),
(1386,279,o),
(1386,744,cs),
(1386,1210,o),
(1099,1490,o),
(640,1490,cs),
(232,1490,l),
(232,1146,l),
(618,1146,ls),
(852,1146,o),
(980,1056,o),
(980,744,cs),
(980,433,o),
(852,344,o),
(630,344,cs),
(238,344,l),
(238,0,l),
(646,0,l)
);
},
{
closed = 1;
nodes = (
(72,1490,l),
(72,0,l),
(476,0,l),
(476,1490,l)
);
}
);
width = 1452;
},
{
anchors = (
{
name = bottom;
pos = (590,0);
},
{
name = cross;
pos = (256,756);
},
{
name = top;
pos = (632,1676);
}
);
layerId = "B1F27B51-9973-4381-9301-4FE46FE1CA59";
shapes = (
{
closed = 1;
nodes = (
(1060,0,o),
(1314,275,o),
(1314,750,cs),
(1314,1214,o),
(1071,1490,o),
(660,1490,cs),
(256,1490,l),
(256,1442,l),
(660,1442,ls),
(1047,1442,o),
(1268,1185,o),
(1268,750,cs),
(1268,309,o),
(1036,46,o),
(622,46,cs),
(256,46,l),
(256,0,l),
(622,0,ls)
);
},
{
closed = 1;
nodes = (
(232,1490,l),
(232,0,l),
(280,0,l),
(280,1490,l)
);
}
);
width = 1462;
}
);
metricLeft = H;
metricRight = O;
note = "!post:RemoveOverlap";
unicode = 68;
userData = {
"interface.width-adjustments" = (
-16
);
};
},
{
color = 3;
glyphname = Dhook;
kernLeft = B;
kernRight = D;
lastChange = "2022-07-22 10:10:39 +0000";
layers = (
{
layerId = "C698F293-3EC0-4A5A-A3A0-0FDB1F5CF265";
shapes = (
{
closed = 1;
nodes = (
(220,1094,l),
(220,1150,ls),
(220,1242,o),
(234,1329,o),
(350,1330,cs),
(494,1330,l),
(494,1490,l),
(348,1490,ls),
(156,1489,o),
(51,1356,o),
(50,1192,cs),
(50,1094,l)
);
},
{
pos = (322,0);
ref = D;
}
);
width = 1698;
},
{
layerId = "5C20EF92-B63D-42A8-8878-93C2863E0093";
shapes = (
{
closed = 1;
nodes = (
(386,870,l),
(386,978,ls),
(385,1065,o),
(420,1146,o),
(544,1146,cs),
(808,1146,l,{
name = hr00;
}),
(808,1490,l),
(544,1490,ls),
(231,1489,o),
(30,1329,o),
(32,1048,cs),
(32,870,l)
);
},
{
pos = (498,0);
ref = D;
}
);
width = 1950;
},
{
layerId = "B1F27B51-9973-4381-9301-4FE46FE1CA59";
shapes = (
{
closed = 1;
nodes = (
(172,1228,l),
(172,1254,ls),
(172,1391,o),
(215,1443,o),
(326,1442,cs),
(468,1442,l,{
name = hr00;
}),
(468,1490,l),
(322,1490,ls),
(195,1489,o),
(126,1416,o),
(126,1280,cs),
(126,1228,l)
);
},
{
alignment = -1;
pos = (218,0);
ref = D;
}
);
width = 1680;
}
);
metricLeft = T;
metricRight = D;
unicode = 394;
userData = {
interface.gridadjust.original = "{'width': 2134.0, 'leftMargin': 41, 'rightMargin': 184.0}";
};
},
{
color = 6;
glyphname = Dtopbar;
lastChange = "2022-07-22 10:10:39 +0000";
layers = (
{
layerId = "C698F293-3EC0-4A5A-A3A0-0FDB1F5CF265";
shapes = (
{
closed = 1;
nodes = (
(1124,1458,l),
(228,1458,l),
(228,1288,l),
(918,1288,l),
(918,870,l),
(568,870,ls),
(249,870,o),
(71,698,o),
(72,440,cs),
(71,180,o),
(249,0,o),
(568,0,cs),
(1124,0,l)
);
},
{
closed = 1;
nodes = (
(568,166,ls),
(362,166,o),
(281,297,o),
(280,442,cs),
(281,585,o),
(362,701,o),
(568,702,cs),
(918,702,l),
(918,166,l)
);
}
);
width = 1196;
},
{
layerId = "5C20EF92-B63D-42A8-8878-93C2863E0093";
shapes = (
{
closed = 1;
nodes = (
(1282,1502,l),
(234,1502,l),
(234,1184,l),
(892,1184,l),
(892,990,l),
(726,990,ls),
(351,989,o),
(101,794,o),
(102,500,cs),
(101,207,o),
(351,0,o),
(726,0,cs),
(1282,0,l)
);
},
{
closed = 1;
nodes = (
(726,312,ls),
(578,311,o),
(491,396,o),
(490,504,cs),
(491,605,o),
(578,681,o),
(726,680,cs),
(892,680,l),
(892,312,l)
);
}
);
width = 1380;
},
{
layerId = "B1F27B51-9973-4381-9301-4FE46FE1CA59";
shapes = (
{
closed = 1;
nodes = (
(1092,1490,l),
(284,1490,l),
(284,1442,l),
(1046,1442,l),
(1046,776,l),
(534,776,ls),
(281,777,o),
(118,631,o),
(118,404,cs),
(118,155,o),
(277,0,o),
(534,0,cs),
(1092,0,l)
);
},
{
closed = 1;
nodes = (
(534,46,ls),
(301,47,o),
(165,180,o),
(164,408,cs),
(164,602,o),
(310,730,o),
(534,730,cs),
(1046,730,l),
(1046,46,l)
);
}
);
width = 1210;
}
);
tags = (
"TODO-opsz"
);
unicode = 395;
userData = {
interface.gridadjust.original = "{'width': 1777, 'leftMargin': 109, 'rightMargin': 219}";
"interface.width-adjustments" = (
-16
);
};
},
{
color = 6;
glyphname = E;
kernLeft = B;
kernRight = E;
lastChange = "2022-07-22 10:10:39 +0000";
layers = (
{
anchors = (
{
name = bottom;
pos = (566,0);
},
{
name = cedilla;
pos = (568,0);
},
{
name = ogonek;
pos = (1042,0);
},
{
name = tonos;
pos = (86,1490);
},
{
name = top;
pos = (580,1676);
}
);
guides = (
{
orientation = center;
angle = 90;
pos = (-228,516);
}
);
layerId = "C698F293-3EC0-4A5A-A3A0-0FDB1F5CF265";
shapes = (
{
closed = 1;
nodes = (
(1042,0,l),
(1042,160,l),
(312,160,l),
(312,672,l),
(984,672,l),
(984,832,l),
(312,832,l),
(312,1330,l),
(1032,1330,l),
(1032,1490,l),
(132,1490,l),
(132,0,l)
);
}
);
width = 1128;
},
{
anchors = (
{
name = bottom;
pos = (614,0);
},
{
name = cedilla;
pos = (616,0);
},
{
name = ogonek;
pos = (1142,0);
},
{
name = tonos;
pos = (32,1490);
},
{
name = top;
pos = (614,1676);
}
);
guides = (
{
pos = (-132,1360);
},
{
orientation = center;
angle = 90;
pos = (-2309,620);
}
);
layerId = "5C20EF92-B63D-42A8-8878-93C2863E0093";
shapes = (
{
closed = 1;
nodes = (
(1142,0,l),
(1142,326,l),
(476,326,l),
(476,594,l),
(1090,594,l),
(1090,912,l),
(476,912,l),
(476,1164,l),
(1146,1164,l),
(1146,1490,l),
(72,1490,l),
(72,0,l)
);
}
);
width = 1226;
},
{
anchors = (
{
name = bottom;
pos = (600,0);
},
{
name = cedilla;
pos = (602,0);
},
{
name = ogonek;
pos = (1048,0);
},
{
name = tonos;
pos = (180,1490);
},
{
name = top;
pos = (634,1676);
}
);
layerId = "B1F27B51-9973-4381-9301-4FE46FE1CA59";
shapes = (
{
closed = 1;
nodes = (
(1048,0,l),
(1048,46,l),
(280,46,l),
(280,722,l),
(984,722,l),
(984,768,l),
(280,768,l),
(280,1442,l),
(1026,1442,l),
(1026,1490,l),
(232,1490,l),
(232,0,l)
);
}
);
width = 1196;
}
);
metricLeft = H;
unicode = 69;
userData = {
"interface.width-adjustments" = (
-16
);
};
},
{
color = 6;
glyphname = Epsilon1;
lastChange = "2022-07-22 10:10:39 +0000";
layers = (
{
background = {
shapes = (
{
closed = 1;
nodes = (
(808,826,l),
(646,826,ls),
(431,826,o),
(349,925,o),
(350,1064,cs),
(349,1201,o),
(442,1309,o),
(660,1310,cs),
(826,1309,o),
(945,1213,o),
(946,1076,c),
(1152,1076,l),
(1152,1324,o),
(928,1478,o),
(660,1478,cs),
(349,1478,o),
(143,1332,o),
(142,1062,cs),
(143,832,o),
(349,698,o),
(640,698,c),
(808,698,l)
);
},
{
closed = 1;
nodes = (
(314,785,o),
(119,652,o),
(120,408,cs),
(119,102,o),
(355,-20,o),
(660,-20,cs),
(911,-20,o),
(1172,108,o),
(1172,404,c),
(966,404,l),
(966,262,o),
(849,145,o),
(660,146,cs),
(457,145,o),
(329,230,o),
(328,404,cs),
(329,582,o),
(436,660,o),
(646,660,cs),
(808,660,l),
(808,786,l),
(640,786,l)
);
}
);
};
layerId = "C698F293-3EC0-4A5A-A3A0-0FDB1F5CF265";
shapes = (
{
closed = 1;
nodes = (
(760,840,l),
(598,840,ls),
(383,841,o),
(301,964,o),
(302,1094,cs),
(301,1241,o),
(404,1341,o),
(602,1342,cs),
(788,1341,o),
(897,1245,o),
(898,1108,c),
(1104,1108,l),
(1104,1356,o),
(896,1510,o),
(602,1510,cs),
(317,1510,o),
(95,1357,o),
(94,1102,cs),
(95,857,o),
(301,713,o),
(592,712,c),
(760,712,l)
);
},
{
closed = 1;
nodes = (
(266,800,o),
(71,666,o),
(72,396,cs),
(71,102,o),
(319,-20,o),
(594,-20,cs),
(874,-20,o),
(1124,108,o),
(1124,404,c),
(918,404,l),
(918,262,o),
(812,145,o),
(594,146,cs),
(419,145,o),
(281,221,o),
(280,410,cs),
(281,588,o),
(388,675,o),
(598,674,cs),
(760,674,l),
(760,800,l),
(592,800,l)
);
}
);
width = 1196;
},
{
background = {
shapes = (
{
closed = 1;
nodes = (
(904,890,l),
(710,890,ls),
(592,890,o),
(528,934,o),
(530,1048,cs),
(528,1117,o),
(589,1164,o),
(724,1164,cs),
(828,1164,o),
(900,1140,o),
(902,1056,c),
(1292,1056,l),
(1290,1318,o),
(1028,1478,o),
(724,1478,cs),
(374,1478,o),
(135,1332,o),
(136,1062,cs),
(135,844,o),
(356,698,o),
(638,698,c),
(904,698,l,{
name = hr00;
})
);
},
{
closed = 1;
nodes = (
(313,785,o),
(112,652,o),
(114,408,cs),
(112,119,o),
(359,-20,o),
(724,-20,cs),
(1008,-20,o),
(1313,108,o),
(1314,404,c),
(922,404,l),
(921,332,o),
(848,291,o),
(724,290,cs),
(601,291,o),
(505,323,o),
(506,422,cs),
(505,564,o),
(586,596,o),
(710,596,cs),
(904,596,l),
(904,786,l),
(638,786,l)
);
}
);
};
layerId = "5C20EF92-B63D-42A8-8878-93C2863E0093";
shapes = (
{
closed = 1;
nodes = (
(880,904,l),
(686,904,ls),
(561,905,o),
(504,954,o),
(504,1050,cs),
(504,1151,o),
(564,1196,o),
(698,1196,cs),
(817,1196,o),
(876,1162,o),
(878,1088,c),
(1268,1088,l),
(1266,1332,o),
(1028,1510,o),
(700,1510,cs),
(329,1510,o),
(111,1349,o),
(112,1076,cs),
(111,865,o),
(322,713,o),
(614,712,c),
(880,712,l,{
name = hr00;
})
);
},
{
closed = 1;
nodes = (
(281,800,o),
(88,661,o),
(88,422,cs),
(88,139,o),
(308,-20,o),
(700,-20,cs),
(1048,-20,o),
(1289,153,o),
(1290,404,c),
(898,404,l),
(897,332,o),
(825,291,o),
(686,290,cs),
(553,291,o),
(481,332,o),
(480,446,cs),
(481,553,o),
(540,611,o),
(686,610,cs),
(880,610,l),
(880,800,l),
(614,800,l)
);
}
);
width = 1380;
},
{
background = {
shapes = (
{
closed = 1;
nodes = (
(734,776,l),
(638,776,ls),
(371,777,o),
(198,908,o),
(198,1106,cs),
(198,1289,o),
(343,1431,o),
(596,1432,cs),
(819,1431,o),
(954,1289,o),
(984,1086,c),
(1030,1086,l),
(1001,1315,o),
(845,1478,o),
(596,1478,cs),
(319,1478,o),
(151,1315,o),
(152,1106,cs),
(151,940,o),
(259,802,o),
(486,752,c),
(734,752,l)
);
},
{
closed = 1;
nodes = (
(247,704,o),
(122,561,o),
(122,380,cs),
(122,158,o),
(304,-20,o),
(594,-20,cs),
(871,-20,o),
(1049,148,o),
(1080,372,c),
(1032,372,l),
(1004,172,o),
(846,26,o),
(594,26,cs),
(328,26,o),
(169,188,o),
(168,380,cs),
(169,586,o),
(353,730,o),
(638,730,cs),
(734,730,l),
(734,760,l),
(476,760,l)
);
}
);
};
layerId = "B1F27B51-9973-4381-9301-4FE46FE1CA59";
shapes = (
{
closed = 1;
nodes = (
(734,792,l),
(638,792,ls),
(371,791,o),
(198,929,o),
(198,1134,cs),
(198,1325,o),
(349,1463,o),
(588,1464,cs),
(825,1463,o),
(954,1321,o),
(984,1118,c),
(1030,1118,l),
(1001,1347,o),
(851,1510,o),
(588,1510,cs),
(324,1510,o),
(151,1351,o),
(152,1134,cs),
(151,961,o),
(259,817,o),
(486,766,c),
(734,766,l)
);
},
{
closed = 1;
nodes = (
(247,719,o),
(122,569,o),
(122,380,cs),
(122,151,o),
(304,-20,o),
(590,-20,cs),
(871,-20,o),
(1049,148,o),
(1080,372,c),
(1032,372,l),
(1004,172,o),
(846,26,o),
(590,26,cs),
(328,26,o),
(169,181,o),
(168,380,cs),
(169,593,o),
(353,745,o),
(638,744,cs),
(734,744,l),
(734,776,l),
(476,776,l)
);
}
);
width = 1186;
}
);
tags = (
"TODO-opsz"
);
unicode = 400;
userData = {
interface.gridadjust.original = "{'width': 1671, 'leftMargin': 114, 'rightMargin': 108}";
"interface.width-adjustments" = (
-16
);
};
},
{
color = 6;
glyphname = Schwa;
lastChange = "2022-07-22 10:10:39 +0000";
layers = (
{
background = {
shapes = (
{
closed = 1;
nodes = (
(1073,-20,o),
(1344,268,o),
(1344,684,cs),
(1344,768,ls),
(1344,1184,o),
(1108,1478,o),
(680,1478,cs),
(451,1478,o),
(317,1408,o),
(276,1382,c),
(326,1230,l),
(399,1263,o),
(509,1306,o),
(680,1306,cs),
(1004,1306,o),
(1135,1068,o),
(1134,768,cs),
(1134,684,ls),
(1135,387,o),
(992,148,o),
(738,148,cs),
(442,148,o),
(343,340,o),
(344,584,cs),
(344,616,l),
(1216,616,l),
(1216,774,l),
(136,774,l),
(136,648,ls),
(137,239,o),
(340,-20,o),
(738,-20,cs)
);
}
);
};
layerId = "C698F293-3EC0-4A5A-A3A0-0FDB1F5CF265";
shapes = (
{
closed = 1;
nodes = (
(1053,-20,o),
(1296,281,o),
(1296,684,cs),
(1296,800,ls),
(1296,1237,o),
(1038,1510,o),
(632,1510,cs),
(480,1510,o),
(316,1470,o),
(228,1414,c),
(278,1262,l),
(395,1314,o),
(514,1338,o),
(622,1338,cs),
(927,1338,o),
(1087,1141,o),
(1086,800,cs),
(1086,684,ls),
(1087,364,o),
(936,148,o),
(666,148,cs),
(441,148,o),
(295,299,o),
(296,584,cs),
(296,616,l),
(1168,616,l),
(1168,774,l),
(88,774,l),
(88,648,ls),
(89,223,o),
(323,-20,o),
(670,-20,cs)
);
}
);
width = 1382;
},
{
background = {
shapes = (
{
closed = 1;
nodes = (
(1199,-20,o),
(1487,244,o),
(1486,622,cs),
(1486,830,ls),
(1487,1207,o),
(1231,1478,o),
(738,1478,cs),
(524,1478,o),
(271,1431,o),
(226,1414,c),
(280,1080,l),
(364,1100,o),
(519,1126,o),
(712,1126,cs),
(1013,1126,o),
(1097,989,o),
(1096,830,cs),
(1096,622,ls),
(1097,460,o),
(1007,329,o),
(818,328,cs),
(612,329,o),
(527,413,o),
(526,524,cs),
(526,552,l),
(1184,552,l),
(1184,876,l),
(136,876,l),
(136,678,ls),
(137,250,o),
(376,-20,o),
(818,-20,cs)
);
}
);
};
layerId = "5C20EF92-B63D-42A8-8878-93C2863E0093";
shapes = (
{
closed = 1;
nodes = (
(1187,-20,o),
(1463,244,o),
(1462,622,cs),
(1462,862,ls),
(1463,1239,o),
(1207,1510,o),
(714,1510,cs),
(500,1510,o),
(247,1463,o),
(202,1446,c),
(256,1112,l),
(340,1132,o),
(515,1158,o),
(666,1158,cs),
(1009,1158,o),
(1073,1021,o),
(1072,862,cs),
(1072,622,ls),
(1073,460,o),
(992,329,o),
(774,328,cs),
(596,329,o),
(503,413,o),
(502,524,cs),
(502,552,l),
(1160,552,l),
(1160,876,l),
(112,876,l),
(112,678,ls),
(113,250,o),
(364,-20,o),
(776,-20,cs)
);
}
);
width = 1576;
},
{
layerId = "B1F27B51-9973-4381-9301-4FE46FE1CA59";
shapes = (
{
closed = 1;
nodes = (
(1041,-20,o),
(1261,257,o),
(1262,694,cs),
(1262,744,l),
(1261,1223,o),
(1037,1510,o),
(664,1510,cs),
(525,1510,o),
(404,1476,o),
(276,1404,c),
(296,1362,l),
(428,1433,o),
(536,1463,o),
(664,1464,cs),
(1011,1463,o),
(1215,1198,o),
(1214,744,cs),
(1214,696,ls),
(1215,282,o),
(1016,26,o),
(696,26,cs),
(384,26,o),
(177,284,o),
(178,674,cs),
(178,678,l),
(1234,678,l),
(1234,724,l),
(130,724,l),
(130,702,ls),
(129,260,o),
(350,-20,o),
(696,-20,cs)
);
}
);
width = 1390;
}
);
tags = (
"TODO-opsz"
);
unicode = 399;
userData = {
interface.gridadjust.original = "{'width': 1940, 'leftMargin': 120, 'rightMargin': 159}";
"interface.width-adjustments" = (
-16
);
};
},
{
color = 6;
glyphname = Ezh;
kernRight = B;
lastChange = "2022-07-22 10:10:39 +0000";
layers = (
{
anchors = (
{
name = top;
pos = (650,1676);
}
);
background = {
shapes = (
{
closed = 1;
nodes = (
(116,-213,o),
(367,-419,o),
(686,-418,cs),
(1042,-419,o),
(1280,-159,o),
(1280,194,cs),
(1280,545,o),
(1047,794,o),
(716,808,c),
(716,824,l),
(1242,1358,l),
(1242,1490,l),
(184,1490,l),
(184,1326,l),
(992,1326,l),
(992,1314,l),
(494,818,l),
(494,666,l),
(606,666,ls),
(897,666,o),
(1103,478,o),
(1102,194,cs),
(1103,-63,o),
(943,-256,o),
(690,-256,cs),
(476,-256,o),
(296,-117,o),
(282,78,c),
(98,78,l)
);
}
);
};
guides = (
{
pos = (960,-356);
}
);
layerId = "C698F293-3EC0-4A5A-A3A0-0FDB1F5CF265";
shapes = (
{
closed = 1;
nodes = (
(68,-235,o),
(319,-441,o),
(638,-440,cs),
(994,-441,o),
(1232,-180,o),
(1232,180,cs),
(1232,531,o),
(999,780,o),
(668,794,c),
(668,808,l),
(1194,1358,l),
(1194,1490,l),
(136,1490,l),
(136,1326,l),
(944,1326,l),
(944,1314,l),
(446,802,l),
(446,652,l),
(558,652,ls),
(849,652,o),
(1055,468,o),
(1054,178,cs),
(1055,-80,o),
(895,-278,o),
(642,-278,cs),
(428,-278,o),
(248,-139,o),
(234,64,c),
(50,64,l)
);
}
);
width = 1300;
},
{
anchors = (
{
name = top;
pos = (682,1676);
}
);
background = {
shapes = (
{
closed = 1;
nodes = (
(61,-166,o),
(348,-396,o),
(704,-396,cs),
(1113,-396,o),
(1364,-91,o),
(1364,250,cs),
(1364,491,o),
(1239,780,o),
(870,820,c),
(870,834,l),
(1326,1198,l),
(1326,1490,l),
(136,1490,l),
(136,1158,l),
(840,1158,l),
(840,1146,l),
(480,862,l),
(480,582,l),
(674,582,ls),
(838,582,o),
(940,443,o),
(940,276,cs),
(940,132,o),
(871,-61,o),
(706,-62,cs),
(597,-61,o),
(468,26,o),
(462,166,c),
(56,166,l)
);
}
);
};
layerId = "5C20EF92-B63D-42A8-8878-93C2863E0093";
shapes = (
{
closed = 1;
nodes = (
(37,-199,o),
(309,-442,o),
(680,-442,cs),
(1063,-442,o),
(1340,-164,o),
(1340,222,cs),
(1340,534,o),
(1146,759,o),
(846,792,c),
(846,806,l),
(1302,1198,l),
(1302,1490,l),
(112,1490,l),
(112,1158,l),
(816,1158,l),
(816,1146,l),
(456,832,l),
(456,552,l),
(650,552,ls),
(804,553,o),
(916,425,o),
(916,214,cs),
(916,26,o),
(829,-108,o),
(674,-108,cs),
(542,-108,o),
(444,-9,o),
(438,136,c),
(32,136,l)
);
}
);
width = 1364;
},
{
associatedMasterId = "C698F293-3EC0-4A5A-A3A0-0FDB1F5CF265";
layerId = "9E2C8951-9EEE-4515-A9C2-D17B826F81BB";
name = "Oct 9 18, 17:17";
shapes = (
{
closed = 1;
nodes = (
(113,-204,o),
(279,-416,o),
(634,-416,cs),
(977,-416,o),
(1210,-247,o),
(1210,160,cs),
(1210,570,o),
(980,739,o),
(616,738,cs),
(414,738,l),
(414,578,l),
(616,578,ls),
(876,579,o),
(1004,468,o),
(1004,160,cs),
(1004,-119,o),
(896,-250,o),
(634,-250,cs),
(390,-250,o),
(326,-134,o),
(290,66,c),
(82,66,l)
);
},
{
closed = 1;
nodes = (
(1134,1458,l),
(1042,1458,l),
(392,730,l),
(392,578,l),
(482,578,l),
(1134,1310,l)
);
},
{
closed = 1;
nodes = (
(120,1458,l),
(120,1288,l),
(1048,1288,l),
(1048,1458,l)
);
}
);
width = 1292;
},
{
associatedMasterId = "5C20EF92-B63D-42A8-8878-93C2863E0093";
layerId = "A43C01AE-39F6-427E-8F29-12A6C95EC354";
name = "Oct 9 18, 18:32";
shapes = (
{
closed = 1;
nodes = (
(212,-236,o),
(468,-445,o),
(844,-446,cs),
(1250,-445,o),
(1497,-177,o),
(1498,230,cs),
(1497,634,o),
(1236,902,o),
(850,902,cs),
(634,902,l),
(634,602,l),
(850,602,ls),
(997,602,o),
(1108,535,o),
(1108,230,cs),
(1108,-17,o),
(1029,-131,o),
(844,-130,cs),
(692,-131,o),
(593,-81,o),
(588,78,c),
(198,78,l)
);
},
{
closed = 1;
nodes = (
(1378,1458,l),
(1140,1458,l),
(538,794,l),
(538,602,l),
(792,602,l),
(1378,1268,l)
);
},
{
closed = 1;
nodes = (
(184,1458,l),
(184,1144,l),
(1260,1144,l),
(1260,1458,l)
);
}
);
width = 1694;
},
{
anchors = (
{
name = top;
pos = (710,1676);
}
);
background = {
shapes = (
{
closed = 1;
nodes = (
(125,-212,o),
(377,-425,o),
(692,-424,cs),
(1055,-425,o),
(1263,-140,o),
(1262,154,cs),
(1263,492,o),
(989,751,o),
(588,768,c),
(588,774,l),
(1214,1452,l),
(1214,1490,l),
(204,1490,l),
(204,1442,l),
(1166,1442,l),
(1166,1470,l),
(518,768,l),
(518,722,l),
(586,722,ls),
(956,705,o),
(1216,471,o),
(1216,154,cs),
(1216,-152,o),
(994,-378,o),
(692,-378,cs),
(398,-378,o),
(172,-182,o),
(172,72,c),
(126,72,l)
);
}
);
};
layerId = "B1F27B51-9973-4381-9301-4FE46FE1CA59";
shapes = (
{
closed = 1;
nodes = (
(125,-230,o),
(377,-442,o),
(692,-442,cs),
(1055,-442,o),
(1263,-157,o),
(1262,144,cs),
(1263,492,o),
(989,751,o),
(588,768,c),
(588,774,l),
(1214,1452,l),
(1214,1490,l),
(204,1490,l),
(204,1442,l),
(1166,1442,l),
(1166,1470,l),
(518,768,l),
(518,722,l),
(586,722,ls),
(956,705,o),
(1216,471,o),
(1216,144,cs),
(1216,-169,o),
(994,-396,o),
(692,-396,cs),
(398,-396,o),
(172,-199,o),
(172,72,c),
(126,72,l)
);
}
);
width = 1420;
},
{
anchors = (
{
name = top;
pos = (678,1676);
}
);
associatedMasterId = "C698F293-3EC0-4A5A-A3A0-0FDB1F5CF265";
guides = (
{
pos = (968,-356);
}
);
layerId = "D009BD30-45A0-479A-BCCE-7610B0B5C5D4";
name = "Dec 31 18, 16:46";
shapes = (
{
closed = 1;
nodes = (
(975,-419,o),
(1236,-160,o),
(1236,160,cs),
(1236,464,o),
(999,713,o),
(628,728,c),
(628,738,l),
(1170,1358,l),
(1170,1490,l),
(120,1490,l),
(120,1330,l),
(922,1330,l),
(922,1318,l),
(398,718,l),
(398,564,l),
(570,564,ls),
(884,564,o),
(1071,393,o),
(1070,160,cs),
(1071,-73,o),
(884,-253,o),
(642,-254,cs),
(425,-253,o),
(291,-105,o),
(276,70,c),
(98,70,l),
(102,-207,o),
(337,-419,o),
(642,-418,cs)
);
}
);
width = 1352;
}
);
metricLeft = T;
metricRight = B;
tags = (
"TODO-opsz"
);
unicode = 439;
userData = {
interface.gridadjust.original = "{'width': 1821, 'leftMargin': 110, 'rightMargin': 160}";
"interface.width-adjustments" = (
-16
);
};
},
{
color = 6;
glyphname = Ezhreversed;
lastChange = "2022-07-22 10:10:39 +0000";
layers = (
{
anchors = (
{
name = top;
pos = (650,1676);
}
);
layerId = "C698F293-3EC0-4A5A-A3A0-0FDB1F5CF265";
shapes = (
{
closed = 1;
nodes = (
(1066,64,l),
(1052,-139,o),
(873,-278,o),
(658,-278,cs),
(406,-278,o),
(246,-80,o),
(246,178,cs),
(246,468,o),
(452,652,o),
(744,652,cs),
(854,652,l),
(854,802,l),
(356,1314,l),
(356,1326,l),
(1166,1326,l),
(1166,1490,l),
(106,1490,l),
(106,1358,l),
(632,808,l),
(632,794,l),
(302,780,o),
(68,531,o),
(68,180,cs),
(68,-180,o),
(306,-441,o),
(662,-440,cs),
(981,-441,o),
(1233,-235,o),
(1250,64,c)
);
}
);
width = 1300;
},
{
anchors = (
{
name = top;
pos = (682,1676);
}
);
layerId = "5C20EF92-B63D-42A8-8878-93C2863E0093";
shapes = (
{
closed = 1;
nodes = (
(926,136,l),
(921,-9,o),
(823,-108,o),
(690,-108,cs),
(536,-108,o),
(449,26,o),
(450,214,cs),
(449,425,o),
(561,553,o),
(714,552,cs),
(908,552,l),
(908,832,l),
(548,1146,l),
(548,1158,l),
(1252,1158,l),
(1252,1490,l),
(62,1490,l),
(62,1198,l),
(520,806,l),
(520,792,l),
(219,759,o),
(25,534,o),
(24,222,cs),
(25,-164,o),
(302,-442,o),
(684,-442,cs),
(1056,-442,o),
(1328,-199,o),
(1334,136,c)
);
}
);
width = 1366;
},
{
anchors = (
{
name = top;
pos = (710,1676);
}
);
layerId = "B1F27B51-9973-4381-9301-4FE46FE1CA59";
shapes = (
{
closed = 1;
nodes = (
(1248,72,l),
(1248,-199,o),
(1022,-396,o),
(728,-396,cs),
(425,-396,o),
(204,-169,o),
(204,144,cs),
(204,471,o),
(463,705,o),
(834,722,cs),
(902,722,l),
(902,768,l),
(254,1470,l),
(254,1442,l),
(1216,1442,l),
(1216,1490,l),
(206,1490,l),
(206,1452,l),
(832,774,l),
(832,768,l),
(431,751,o),
(157,492,o),
(158,144,cs),
(157,-157,o),
(364,-442,o),
(728,-442,cs),
(1042,-442,o),
(1295,-230,o),
(1294,72,c)
);
}
);
width = 1420;
}
);
metricLeft = "=|Ezh";
metricRight = "=|Ezh";
note = "mirror of Ezh";
tags = (
"TODO-opsz"
);
unicode = 440;
userData = {
interface.gridadjust.original = "{'width': 1821, 'leftMargin': 160, 'rightMargin': 110}";
"interface.width-adjustments" = (
-16
);
};
},
{
color = 6;
glyphname = F;
kernLeft = B;
kernRight = F;
lastChange = "2022-07-22 10:10:39 +0000";
layers = (
{
anchors = (
{
name = bottom;
pos = (510,12);
},
{
name = cross;
pos = (222,350);
},
{
name = top;
pos = (598,1676);
}
);
background = {
shapes = (
{
ref = E;
}
);
};
layerId = "C698F293-3EC0-4A5A-A3A0-0FDB1F5CF265";
shapes = (
{
closed = 1;
nodes = (
(312,0,l),
(312,650,l),
(958,650,l),
(958,810,l),
(312,810,l),
(312,1330,l),
(1026,1330,l),
(1026,1490,l),
(132,1490,l),
(132,0,l)
);
}
);
width = 1106;
},
{
anchors = (
{
name = bottom;
pos = (618,12);
},
{
name = cross;
pos = (272,250);
},
{
name = top;
pos = (598,1676);
}
);
background = {
shapes = (
{
ref = E;
}
);
};
guides = (
{
pos = (-132,1320);
}
);
layerId = "5C20EF92-B63D-42A8-8878-93C2863E0093";
shapes = (
{
closed = 1;
nodes = (
(476,0,l),
(476,510,l),
(1056,510,l),
(1056,828,l),
(476,828,l),
(476,1164,l),
(1120,1164,l),
(1120,1490,l),
(72,1490,l),
(72,0,l)
);
}
);
width = 1148;
},
{
anchors = (
{
name = bottom;
pos = (510,12);
},
{
name = cross;
pos = (256,410);
},
{
name = top;
pos = (634,1676);
}
);
guides = (
{
angle = 90;
pos = (872,2220);
}
);
layerId = "B1F27B51-9973-4381-9301-4FE46FE1CA59";
shapes = (
{
closed = 1;
nodes = (
(280,0,l),
(280,722,l),
(962,722,l),
(962,768,l),
(280,768,l),
(280,1442,l),
(1032,1442,l),
(1032,1490,l),
(232,1490,l),
(232,0,l)
);
}
);
width = 1198;
},
{
anchors = (
{
name = bottom;
pos = (558,12);
},
{
name = cross;
pos = (270,350);
},
{
name = top;
pos = (646,1676);
}
);
associatedMasterId = "C698F293-3EC0-4A5A-A3A0-0FDB1F5CF265";
background = {
shapes = (
{
ref = E;
}
);
};
layerId = "C292F685-5F3A-49DB-9317-6C4D88F9DD6B";
name = "May 30, 22, 12:40";
shapes = (
{
closed = 1;
nodes = (
(360,0,l),
(360,666,l),
(1006,666,l),
(1006,826,l),
(360,826,l),
(360,1330,l),
(1074,1330,l),
(1074,1490,l),
(180,1490,l),
(180,0,l)
);
}
);
width = 1202;
}
);
metricLeft = H;
unicode = 70;
userData = {
"interface.width-adjustments" = (
-16
);
};
},
{
color = 3;
glyphname = Fhook;
kernLeft = jdotless;
kernRight = F;
lastChange = "2022-07-22 10:10:39 +0000";
layers = (
{
layerId = "C698F293-3EC0-4A5A-A3A0-0FDB1F5CF265";
shapes = (
{
closed = 1;
nodes = (
(132,-116,ls),
(132,-233,o),
(65,-268,o),
(-28,-268,cs),
(-48,-268,o),
(-68,-265,o),
(-82,-262,c),
(-82,-410,l),
(-39,-419,o),
(-39,-419,o),
(-28,-418,cs),
(196,-419,o),
(313,-311,o),
(312,-120,cs),
(312,0,l),
(132,0,l)
);
},
{
ref = F;
}
);
width = 1106;
},
{
layerId = "5C20EF92-B63D-42A8-8878-93C2863E0093";
shapes = (
{
closed = 1;
nodes = (
(148,-34,ls),
(148,-102,o),
(71,-116,o),
(-4,-116,c),
(-20,-116,o),
(-49,-119,o),
(-70,-116,c),
(-70,-414,l),
(-28,-419,o),
(65,-419,o),
(104,-418,c),
(315,-419,o),
(552,-387,o),
(552,-34,cs),
(552,0,l),
(148,0,l)
);
},
{
pos = (76,0);
ref = F;
}
);
width = 1224;
},
{
layerId = "B1F27B51-9973-4381-9301-4FE46FE1CA59";
shapes = (
{
closed = 1;
nodes = (
(186,-168,ls),
(186,-304,o),
(135,-369,o),
(30,-370,cs),
(9,-369,o),
(-9,-367,o),
(-22,-364,c),
(-22,-410,l),
(-8,-414,o),
(13,-416,o),
(34,-416,cs),
(163,-416,o),
(233,-329,o),
(232,-168,cs),
(232,0,l),
(186,0,l)
);
},
{
alignment = -1;
pos = (-46,0);
ref = F;
}
);
width = 1152;
},
{
associatedMasterId = "B1F27B51-9973-4381-9301-4FE46FE1CA59";
layerId = "B08EE6A4-275D-4A05-9DD6-ADCA275F0D13";
name = "Dec 29 18, 23:39";
shapes = (
{
closed = 0;
nodes = (
(-26,-382,l),
(-12,-390,o),
(-1,-393,o),
(24,-392,cs),
(148,-393,o),
(209,-317,o),
(210,-168,cs),
(210,0,l)
);
},
{
alignment = -1;
pos = (-46,0);
ref = F;
}
);
width = 1160;
}
);
metricRight = F;
tags = (
"TODO-opsz"
);
unicode = 401;
userData = {
interface.gridadjust.original = "{'width': 1645, 'leftMargin': 0, 'rightMargin': 31}";
"interface.width-adjustments" = (
-16
);
};
},
{
color = 6;
glyphname = G;
kernLeft = C;
kernRight = G;
lastChange = "2022-07-22 10:10:39 +0000";
layers = (
{
anchors = (
{
name = bottom;
pos = (722,0);
},
{
name = top;
pos = (726,1676);
}
);
background = {
shapes = (
{
ref = C;
}
);
};
layerId = "C698F293-3EC0-4A5A-A3A0-0FDB1F5CF265";
shapes = (
{
closed = 1;
nodes = (
(1092,-20,o),
(1346,216,o),
(1346,584,cs),
(1346,744,l),
(778,744,l),
(778,584,l),
(1226,584,l),
(1170,596,l),
(1170,322,o),
(993,148,o),
(738,148,cs),
(461,148,o),
(248,358,o),
(248,744,cs),
(248,1132,o),
(461,1342,o),
(726,1342,cs),
(941,1342,o),
(1087,1220,o),
(1150,1024,c),
(1336,1024,l),
(1281,1312,o),
(1040,1510,o),
(726,1510,cs),
(344,1510,o),
(74,1216,o),
(74,744,cs),
(74,273,o),
(342,-20,o),
(738,-20,cs)
);
}
);
width = 1426;
},
{
anchors = (
{
name = bottom;
pos = (778,6);
},
{
name = top;
pos = (782,1676);
}
);
background = {
shapes = (
{
ref = C;
}
);
};
guides = (
{
angle = 7.9575;
pos = (892,1320);
},
{
orientation = center;
angle = 90;
pos = (-2979,528);
},
{
pos = (1228,756);
}
);
layerId = "5C20EF92-B63D-42A8-8878-93C2863E0093";
shapes = (
{
closed = 1;
nodes = (
(1186,-20,o),
(1466,218,o),
(1466,626,cs),
(1466,832,l),
(806,832,l),
(806,544,l),
(1146,544,l),
(1076,552,l),
(1076,417,o),
(984,332,o),
(800,332,cs),
(590,332,o),
(482,486,o),
(482,748,cs),
(482,1006,o),
(599,1158,o),
(802,1158,cs),
(929,1158,o),
(1015,1100,o),
(1040,998,c),
(1448,998,l),
(1417,1297,o),
(1145,1510,o),
(794,1510,cs),
(392,1510,o),
(66,1233,o),
(66,742,cs),
(66,271,o),
(361,-20,o),
(796,-20,cs)
);
}
);
width = 1534;
},
{
anchors = (
{
name = bottom;
pos = (756,0);
},
{
name = top;
pos = (756,1676);
}
);
guides = (
{
pos = (1872,1408);
}
);
layerId = "B1F27B51-9973-4381-9301-4FE46FE1CA59";
shapes = (
{
closed = 1;
nodes = (
(1105,-20,o),
(1346,221,o),
(1346,628,cs),
(1346,674,l),
(786,674,l),
(786,628,l),
(1320,628,l),
(1300,646,l),
(1300,248,o),
(1082,26,o),
(770,26,cs),
(419,26,o),
(194,319,o),
(194,744,cs),
(194,1175,o),
(423,1464,o),
(766,1464,cs),
(1071,1464,o),
(1253,1227,o),
(1288,1024,c),
(1336,1024,l),
(1300,1236,o),
(1113,1510,o),
(766,1510,cs),
(396,1510,o),
(148,1203,o),
(148,744,cs),
(148,289,o),
(393,-20,o),
(770,-20,cs)
);
}
);
width = 1512;
}
);
metricLeft = O;
note = "C + hook segments";
unicode = 71;
userData = {
com.typemytype.robofont.guideline.magnetic.DBpTQJmUAf = 5;
com.typemytype.robofont.guideline.magnetic.Mdeh49HlEG = 5;
com.typemytype.robofont.guideline.magnetic.iFgX6ho5qJ = 5;
"interface.width-adjustments" = (
-16
);
};
},
{
color = 3;
glyphname = Gbar;
kernLeft = C;
kernRight = G;
lastChange = "2022-07-22 10:10:39 +0000";
layers = (
{
guides = (
{
angle = 90;
pos = (1072,744);
},
{
angle = 90;
pos = (976,148);
}
);
layerId = "C698F293-3EC0-4A5A-A3A0-0FDB1F5CF265";
shapes = (
{
closed = 1;
nodes = (
(778,454,l),
(778,308,l),
(1448,308,l),
(1448,454,l)
);
},
{
ref = G;
}
);
width = 1426;
},
{
layerId = "5C20EF92-B63D-42A8-8878-93C2863E0093";
shapes = (
{
closed = 1;
nodes = (
(806,500,l),
(806,410,l),
(1512,410,l),
(1512,500,l)
);
},
{
ref = G;
}
);
width = 1534;
},
{
layerId = "B1F27B51-9973-4381-9301-4FE46FE1CA59";
shapes = (
{
closed = 1;
nodes = (
(786,408,l),
(786,360,l),
(1454,360,l),
(1454,408,l)
);
},
{
ref = G;
}
);
width = 1512;
}
);
metricLeft = G;
tags = (
"TODO-opsz"
);
unicode = 484;
userData = {
com.typemytype.robofont.guideline.magnetic.L529Uh5F2Z = 5;
com.typemytype.robofont.guideline.magnetic.aP8dy3XBkq = 5;
interface.gridadjust.original = "{'width': 1917, 'leftMargin': 256, 'rightMargin': 7}";
"interface.width-adjustments" = (
-16
);
};
},
{
color = 3;
glyphname = Ghook;
kernLeft = C;
kernRight = G;
lastChange = "2022-07-22 10:10:39 +0000";
layers = (
{
layerId = "C698F293-3EC0-4A5A-A3A0-0FDB1F5CF265";
shapes = (
{
closed = 1;
nodes = (
(1334,1182,ls),
(1334,1297,o),
(1404,1332,o),
(1496,1332,cs),
(1517,1332,o),
(1537,1329,o),
(1552,1326,c),
(1552,1472,l),
(1526,1481,o),
(1488,1481,o),
(1454,1480,cs),
(1267,1481,o),
(1171,1373,o),
(1160,1182,cs),
(1150,1024,l),
(1334,1024,l)
);
},
{
ref = G;
}
);
width = 1486;
},
{
guides = (
{
angle = 90;
pos = (1728,996);
}
);
layerId = "5C20EF92-B63D-42A8-8878-93C2863E0093";
shapes = (
{
closed = 1;
nodes = (
(1448,1272,ls),
(1448,1396,o),
(1553,1414,o),
(1660,1414,cs),
(1695,1414,o),
(1730,1408,o),
(1768,1406,c),
(1768,1720,l),
(1701,1734,o),
(1649,1743,o),
(1590,1742,cs),
(1308,1743,o),
(1029,1577,o),
(1032,1272,cs),
(1034,998,l),
(1448,998,l)
);
},
{
ref = G;
}
);
width = 1744;
},
{
layerId = "B1F27B51-9973-4381-9301-4FE46FE1CA59";
shapes = (
{
closed = 1;
nodes = (
(1336,1192,ls),
(1335,1316,o),
(1371,1361,o),
(1474,1362,cs),
(1492,1361,o),
(1519,1360,o),
(1544,1358,c),
(1544,1404,l),
(1520,1407,o),
(1493,1408,o),
(1474,1408,cs),
(1345,1408,o),
(1289,1343,o),
(1288,1192,cs),
(1288,1024,l),
(1336,1024,l,{
name = hr00;
})
);
},
{
alignment = -1;
ref = G;
}
);
width = 1456;
}
);
metricLeft = G;
tags = (
"TODO-opsz"
);
unicode = 403;
userData = {
interface.gridadjust.original = "{'width': 1998, 'leftMargin': 256, 'rightMargin': -45}";
};
},
{
color = 6;
glyphname = uni021C;
lastChange = "2022-07-22 10:10:39 +0000";
layers = (
{
background = {
shapes = (
{
closed = 1;
nodes = (
(745,451,o),
(1140,713,o),
(1140,1062,cs),
(1140,1332,o),
(940,1478,o),
(622,1478,cs),
(355,1478,o),
(131,1321,o),
(130,1074,c),
(338,1074,l),
(337,1213,o),
(468,1309,o),
(622,1310,cs),
(841,1309,o),
(934,1196,o),
(934,1064,cs),
(934,756,o),
(678,611,o),
(222,474,c),
(222,322,l)
);
},
{
closed = 1;
nodes = (
(911,591,o),
(954,503,o),
(954,328,cs),
(954,-26,o),
(684,-177,o),
(222,-270,c),
(222,-436,l),
(765,-326,o),
(1164,-148,o),
(1164,326,cs),
(1164,553,o),
(1068,687,o),
(902,748,c),
(800,634,l)
);
}
);
};
layerId = "C698F293-3EC0-4A5A-A3A0-0FDB1F5CF265";
shapes = (
{
closed = 1;
nodes = (
(697,451,o),
(1092,720,o),
(1092,1084,cs),
(1092,1357,o),
(881,1510,o),
(594,1510,cs),
(297,1510,o),
(83,1353,o),
(82,1106,c),
(290,1106,l),
(289,1245,o),
(409,1341,o),
(594,1342,cs),
(781,1341,o),
(886,1241,o),
(886,1064,cs),
(886,784,o),
(630,625,o),
(174,488,c),
(174,338,l)
);
},
{
closed = 1;
nodes = (
(863,605,o),
(906,509,o),
(906,340,cs),
(906,-35,o),
(636,-177,o),
(174,-270,c),
(174,-436,l),
(717,-326,o),
(1116,-148,o),
(1116,326,cs),
(1116,567,o),
(1020,701,o),
(854,762,c),
(752,648,l)
);
}
);
width = 1196;
},
{
background = {
shapes = (
{
closed = 1;
nodes = (
(931,460,o),
(1280,634,o),
(1280,1062,cs),
(1280,1332,o),
(1044,1475,o),
(696,1474,cs),
(401,1475,o),
(125,1329,o),
(126,1054,c),
(514,1054,l),
(515,1135,o),
(602,1164,o),
(696,1164,cs),
(841,1164,o),
(893,1103,o),
(894,992,cs),
(893,817,o),
(794,745,o),
(248,584,c),
(248,290,l)
);
},
{
closed = 1;
nodes = (
(841,506,o),
(911,500,o),
(910,366,cs),
(911,148,o),
(689,-47,o),
(248,-128,c),
(248,-436,l),
(855,-375,o),
(1300,-73,o),
(1300,358,cs),
(1300,596,o),
(1082,745,o),
(760,718,c),
(722,488,l)
);
}
);
};
layerId = "5C20EF92-B63D-42A8-8878-93C2863E0093";
shapes = (
{
closed = 1;
nodes = (
(993,495,o),
(1256,706,o),
(1256,1062,cs),
(1256,1370,o),
(1037,1510,o),
(672,1510,cs),
(337,1510,o),
(101,1335,o),
(102,1088,c),
(490,1088,l),
(491,1157,o),
(559,1199,o),
(672,1198,cs),
(808,1199,o),
(869,1145,o),
(870,1006,cs),
(869,827,o),
(755,755,o),
(224,600,c),
(224,306,l)
);
},
{
closed = 1;
nodes = (
(841,524,o),
(887,495,o),
(886,366,cs),
(887,133,o),
(639,-52,o),
(224,-128,c),
(224,-436,l),
(857,-373,o),
(1276,-56,o),
(1276,358,cs),
(1276,612,o),
(1056,759,o),
(736,734,c),
(698,504,l)
);
}
);
width = 1378;
},
{
background = {
shapes = (
{
closed = 1;
nodes = (
(702,493,o),
(1054,796,o),
(1054,1106,cs),
(1055,1327,o),
(880,1479,o),
(606,1480,cs),
(336,1479,o),
(132,1310,o),
(130,1086,c),
(178,1086,l),
(176,1281,o),
(364,1433,o),
(606,1432,cs),
(852,1433,o),
(1006,1304,o),
(1008,1108,cs),
(1012,825,o),
(682,544,o),
(204,404,c),
(204,358,l)
);
},
{
closed = 1;
nodes = (
(959,639,o),
(1033,501,o),
(1032,320,cs),
(1033,-17,o),
(832,-188,o),
(204,-388,c),
(204,-436,l),
(864,-230,o),
(1081,-42,o),
(1080,322,cs),
(1079,516,o),
(1003,657,o),
(856,740,c),
(826,704,l)
);
},
{
closed = 1;
nodes = (
(702,493,o),
(1054,796,o),
(1054,1106,cs),
(1055,1327,o),
(874,1479,o),
(610,1480,cs),
(330,1479,o),
(132,1310,o),
(130,1086,c),
(178,1086,l),
(176,1281,o),
(358,1433,o),
(610,1432,cs),
(846,1433,o),
(1006,1304,o),
(1008,1108,cs),
(1012,825,o),
(682,544,o),
(204,404,c),
(204,358,l)
);
},
{
closed = 1;
nodes = (
(959,639,o),
(1033,507,o),
(1032,312,cs),
(1033,-11,o),
(832,-188,o),
(204,-388,c),
(204,-436,l),
(864,-230,o),
(1081,-36,o),
(1080,314,cs),
(1079,521,o),
(1003,657,o),
(856,740,c),
(826,704,l)
);
}
);
};
layerId = "B1F27B51-9973-4381-9301-4FE46FE1CA59";
shapes = (
{
closed = 1;
nodes = (
(702,508,o),
(1054,805,o),
(1054,1124,cs),
(1055,1352,o),
(874,1510,o),
(610,1510,cs),
(330,1510,o),
(132,1340,o),
(130,1116,c),
(178,1116,l),
(176,1312,o),
(358,1463,o),
(610,1464,cs),
(846,1463,o),
(1006,1329,o),
(1008,1128,cs),
(1011,834,o),
(682,559,o),
(204,418,c),
(204,372,l)
);
},
{
closed = 1;
nodes = (
(959,654,o),
(1033,517,o),
(1032,316,cs),
(1033,-15,o),
(832,-188,o),
(204,-388,c),
(204,-436,l),
(864,-230,o),
(1081,-41,o),
(1080,318,cs),
(1079,532,o),
(1003,672,o),
(856,754,c),
(826,718,l)
);
}
);
width = 1210;
}
);
tags = (
"TODO-opsz"
);
unicode = 540;
userData = {
interface.gridadjust.original = "{'width': 1690, 'leftMargin': 124, 'rightMargin': 146}";
"interface.width-adjustments" = (
-16
);
};
},
{
color = 6;
glyphname = H;
kernLeft = B;
kernRight = H;
lastChange = "2022-07-22 10:10:39 +0000";
layers = (
{
anchors = (
{
name = bottom;
pos = (708,0);
},
{
name = cedilla;
pos = (246,-2);
},
{
name = cyrtic;
pos = (1352,64);
},
{
name = right;
pos = (1286,0);
},
{
name = tonos;
pos = (98,1490);
},
{
name = top;
pos = (708,1676);
}
);
guides = (
{
orientation = center;
angle = 90;
pos = (-522,56);
},
{
angle = 90;
pos = (660,1400);
}
);
layerId = "C698F293-3EC0-4A5A-A3A0-0FDB1F5CF265";
shapes = (
{
closed = 1;
nodes = (
(312,0,l),
(312,666,l),
(1106,666,l),
(1106,0,l),
(1286,0,l),
(1286,1490,l),
(1106,1490,l),
(1106,826,l),
(312,826,l),
(312,1490,l),
(132,1490,l),
(132,0,l)
);
}
);
width = 1418;
},
{
anchors = (
{
name = bottom;
pos = (744,0);
},
{
name = cedilla;
pos = (264,0);
},
{
name = cyrtic;
pos = (1608,162);
},
{
name = right;
pos = (1416,0);
},
{
name = tonos;
pos = (38,1490);
},
{
name = top;
pos = (744,1676);
}
);
layerId = "5C20EF92-B63D-42A8-8878-93C2863E0093";
shapes = (
{
closed = 1;
nodes = (
(476,0,l),
(476,582,l),
(1012,582,l),
(1012,0,l),
(1416,0,l),
(1416,1490,l),
(1012,1490,l),
(1012,908,l),
(476,908,l),
(476,1490,l),
(72,1490,l),
(72,0,l)
);
}
);
width = 1488;
},
{
anchors = (
{
name = bottom;
pos = (754,0);
},
{
name = cedilla;
pos = (256,-6);
},
{
name = cyrtic;
pos = (1294,6);
},
{
name = right;
pos = (1274,0);
},
{
name = tonos;
pos = (198,1490);
},
{
name = top;
pos = (754,1676);
}
);
layerId = "B1F27B51-9973-4381-9301-4FE46FE1CA59";
shapes = (
{
closed = 1;
nodes = (
(280,0,l),
(280,722,l),
(1228,722,l),
(1228,0,l),
(1274,0,l),
(1274,1490,l),
(1228,1490,l),
(1228,768,l),
(280,768,l),
(280,1490,l),
(232,1490,l),
(232,0,l)
);
}
);
width = 1506;
}
);
unicode = 72;
userData = {
"interface.width-adjustments" = (
-16
);
};
},
{
color = 3;
glyphname = Hbar;
kernLeft = B;
kernRight = H;
lastChange = "2022-07-22 10:10:39 +0000";
layers = (
{
guides = (
{
orientation = center;
angle = 90;
pos = (-666,2068);
}
);
layerId = "C698F293-3EC0-4A5A-A3A0-0FDB1F5CF265";
shapes = (
{
closed = 1;
nodes = (
(50,1176,l),
(50,1024,l),
(1444,1024,l),
(1444,1176,l)
);
},
{
pos = (38,0);
ref = H;
}
);
width = 1494;
},
{
layerId = "5C20EF92-B63D-42A8-8878-93C2863E0093";
shapes = (
{
closed = 1;
nodes = (
(32,1268,l),
(32,1076,l),
(1626,1076,l),
(1626,1268,l)
);
},
{
pos = (84,0);
ref = H;
}
);
width = 1658;
},
{
layerId = "B1F27B51-9973-4381-9301-4FE46FE1CA59";
shapes = (
{
closed = 1;
nodes = (
(126,1080,l),
(126,1032,l),
(1400,1032,l),
(1400,1080,l)
);
},
{
alignment = -1;
pos = (12,0);
ref = H;
}
);
width = 1524;
}
);
metricLeft = T;
metricRight = T;
tags = (
"TODO-opsz"
);
unicode = 294;
userData = {
interface.gridadjust.original = "{'width': 1980.0, 'leftMargin': 43, 'rightMargin': 22.0}";
"interface.width-adjustments" = (
-16
);
};
},
{
color = 6;
glyphname = I;
kernLeft = B;
kernRight = H;
lastChange = "2022-07-22 10:10:39 +0000";
layers = (
{
anchors = (
{
name = bottom;
pos = (222,0);
},
{
name = cross;
pos = (222,768);
},
{
name = ogonek;
pos = (312,0);
},
{
name = right;
pos = (328,0);
},
{
name = tonos;
pos = (132,1490);
},
{
name = top;
pos = (222,1676);
}
);
guides = (
{
angle = 90;
pos = (276,1848);
}
);
layerId = "C698F293-3EC0-4A5A-A3A0-0FDB1F5CF265";
shapes = (
{
closed = 1;
nodes = (
(132,1490,l),
(132,0,l),
(312,0,l),
(312,1490,l)
);
}
);
width = 444;
},
{
anchors = (
{
name = bottom;
pos = (272,0);
},
{
name = cross;
pos = (272,788);
},
{
name = ogonek;
pos = (476,0);
},
{
name = right;
pos = (502,0);
},
{
name = tonos;
pos = (72,1490);
},
{
name = top;
pos = (276,1676);
}
);
guides = (
{
orientation = center;
angle = 90;
pos = (-1258,1240);
}
);
layerId = "5C20EF92-B63D-42A8-8878-93C2863E0093";
shapes = (
{
closed = 1;
nodes = (
(72,1490,l),
(72,0,l),
(476,0,l),
(476,1490,l)
);
}
);
width = 548;
},
{
anchors = (
{
name = bottom;
pos = (256,0);
},
{
name = cross;
pos = (256,768);
},
{
name = ogonek;
pos = (280,0);
},
{
name = right;
pos = (288,0);
},
{
name = tonos;
pos = (232,1490);
},
{
name = top;
pos = (256,1676);
}
);
layerId = "B1F27B51-9973-4381-9301-4FE46FE1CA59";
shapes = (
{
closed = 1;
nodes = (
(232,1490,l),
(232,0,l),
(280,0,l),
(280,1490,l)
);
}
);
width = 512;
}
);
metricLeft = H;
metricRight = H;
unicode = 73;
userData = {
"interface.width-adjustments" = (
-16
);
};
},
{
color = 10;
glyphname = Idieresisacute;
kernLeft = Idieresis;
kernRight = Idieresis;
lastChange = "2022-07-22 10:10:39 +0000";
layers = (
{
layerId = "C698F293-3EC0-4A5A-A3A0-0FDB1F5CF265";
shapes = (
{
ref = I;
},
{
pos = (648,0);
ref = dieresisacutecomb.cn;
}
);
width = 444;
},
{
background = {
shapes = (
{
closed = 1;
nodes = (
(510,46,l),
(510,1490,l),
(86,1490,l),
(86,46,l)
);
},
{
closed = 1;
nodes = (
(142,1972,l),
(428,1972,l),
(666,2254,l),
(344,2254,l)
);
},
{
closed = 1;
nodes = (
(167,1583,o),
(233,1651,o),
(234,1732,cs),
(235,1815,o),
(167,1883,o),
(76,1884,cs),
(-17,1884,o),
(-83,1815,o),
(-82,1732,cs),
(-83,1651,o),
(-17,1583,o),
(76,1582,cs)
);
},
{
closed = 1;
nodes = (
(612,1583,o),
(678,1651,o),
(678,1732,cs),
(678,1815,o),
(612,1883,o),
(520,1884,cs),
(428,1884,o),
(361,1815,o),
(362,1732,cs),
(363,1651,o),
(428,1583,o),
(520,1582,cs)
);
}
);
};
layerId = "5C20EF92-B63D-42A8-8878-93C2863E0093";
shapes = (
{
ref = I;
},
{
pos = (708,0);
ref = dieresisacutecomb.cn;
}
);
width = 548;
},
{
layerId = "B1F27B51-9973-4381-9301-4FE46FE1CA59";
shapes = (
{
ref = I;
},
{
pos = (628,0);
ref = dieresisacutecomb.cn;
}
);
width = 512;
}
);
unicode = 7726;
userData = {
interface.gridadjust.original = "{'width': 1018, 'leftMargin': 28, 'rightMargin': 28}";
};
},
{
color = 6;
glyphname = J;
kernLeft = J;
kernRight = J;
lastChange = "2022-07-22 10:10:39 +0000";
layers = (
{
anchors = (
{
name = cross;
pos = (808,884);
},
{
name = top;
pos = (808,1676);
}
);
guides = (
{
angle = 90;
pos = (1112,2256);
}
);
layerId = "B1F27B51-9973-4381-9301-4FE46FE1CA59";
shapes = (
{
closed = 1;
nodes = (
(662,-20,o),
(832,93,o),
(832,396,cs),
(832,1490,l),
(786,1490,l),
(786,396,ls),
(786,119,o),
(634,26,o),
(472,26,cs),
(294,26,o),
(156,134,o),
(156,280,cs),
(156,288,l),
(110,288,l),
(110,280,ls),
(110,108,o),
(266,-20,o),
(472,-20,cs)
);
}
);
width = 1064;
},
{
anchors = (
{
name = cross;
pos = (792,884);
},
{
name = top;
pos = (792,1676);
}
);
guides = (
{
angle = 90;
pos = (1060,1476);
},
{
angle = 90;
pos = (600,492);
}
);
layerId = "C698F293-3EC0-4A5A-A3A0-0FDB1F5CF265";
shapes = (
{
closed = 1;
nodes = (
(717,-20,o),
(882,139,o),
(882,424,cs),
(882,1490,l),
(702,1490,l),
(702,424,ls),
(702,239,o),
(614,140,o),
(458,140,cs),
(316,140,o),
(214,223,o),
(214,350,cs),
(214,384,l),
(36,384,l),
(36,350,ls),
(36,120,o),
(214,-20,o),
(458,-20,cs)
);
}
);
width = 1014;
},
{
anchors = (
{
name = cross;
pos = (880,884);
},
{
name = top;
pos = (884,1676);
}
);
guides = (
{
angle = 90;
pos = (1104,1476);
}
);
layerId = "5C20EF92-B63D-42A8-8878-93C2863E0093";
shapes = (
{
closed = 1;
nodes = (
(876,-20,o),
(1084,177,o),
(1084,468,cs),
(1084,1490,l),
(686,1490,l),
(686,468,ls),
(686,353,o),
(636,294,o),
(546,294,cs),
(457,294,o),
(404,353,o),
(404,466,cs),
(404,472,l),
(0,472,l),
(0,466,ls),
(0,122,o),
(259,-20,o),
(546,-20,cs)
);
}
);
width = 1156;
}
);
metricRight = H;
unicode = 74;
},
{
color = 6;
glyphname = K;
kernLeft = B;
kernRight = K;
lastChange = "2022-07-22 10:10:39 +0000";
layers = (
{
anchors = (
{
name = bottom;
pos = (622,0);
},
{
name = top;
pos = (626,1676);
}
);
guides = (
{
angle = 227.6708;
pos = (1652,2048);
},
{
angle = 90;
pos = (832,212);
}
);
layerId = "C698F293-3EC0-4A5A-A3A0-0FDB1F5CF265";
shapes = (
{
closed = 1;
nodes = (
(312,0,l),
(312,482,l),
(498,692,l),
(1016,0,l),
(1234,0,l),
(610,818,l),
(1234,1490,l),
(1000,1490,l),
(330,750,l),
(312,750,l),
(312,1490,l),
(132,1490,l),
(132,0,l)
);
}
);
width = 1240;
},
{
anchors = (
{
name = bottom;
pos = (698,2);
},
{
name = top;
pos = (700,1676);
}
);
guides = (
{
orientation = center;
angle = 90;
pos = (-2672,1820);
}
);
layerId = "5C20EF92-B63D-42A8-8878-93C2863E0093";
shapes = (
{
closed = 1;
nodes = (
(476,0,l),
(476,384,l),
(610,558,l),
(944,0,l),
(1428,0,l),
(912,826,l),
(1416,1490,l),
(944,1490,l),
(496,888,l),
(476,888,l),
(476,1490,l),
(72,1490,l),
(72,0,l)
);
}
);
width = 1416;
},
{
anchors = (
{
name = bottom;
pos = (634,0);
},
{
name = top;
pos = (638,1676);
}
);
guides = (
{
angle = 227.6708;
pos = (1640,2048);
}
);
layerId = "B1F27B51-9973-4381-9301-4FE46FE1CA59";
shapes = (
{
closed = 1;
nodes = (
(280,0,l),
(280,486,l),
(504,734,l),
(1122,0,l),
(1184,0,l),
(536,768,l),
(1192,1490,l),
(1128,1490,l),
(286,562,l),
(280,562,l),
(280,1490,l),
(232,1490,l),
(232,0,l)
);
}
);
width = 1262;
}
);
metricLeft = H;
unicode = 75;
userData = {
com.typemytype.robofont.guideline.magnetic.bB6GeEoQ3O = 5;
"interface.width-adjustments" = (
-16
);
};
},
{
color = 6;
glyphname = Khook;
kernLeft = B;
kernRight = K;
lastChange = "2022-07-22 10:10:39 +0000";
layers = (
{
background = {
shapes = (
{
ref = K;
}
);
};
layerId = "C698F293-3EC0-4A5A-A3A0-0FDB1F5CF265";
shapes = (
{
closed = 1;
nodes = (
(312,0,l),
(312,482,l),
(498,692,l),
(1016,0,l),
(1234,0,l),
(610,818,l),
(1034,1274,ls),
(1108,1354,o),
(1174,1359,o),
(1238,1318,c),
(1310,1452,l),
(1191,1536,o),
(1037,1530,o),
(920,1402,cs),
(330,750,l),
(312,750,l),
(312,1490,l),
(132,1490,l),
(132,0,l)
);
}
);
width = 1280;
},
{
background = {
shapes = (
{
pos = (12,0);
ref = K;
}
);
};
guides = (
{
angle = 227.7472;
pos = (1000,1740);
},
{
angle = 227.9329;
pos = (1388,1508);
}
);
layerId = "5C20EF92-B63D-42A8-8878-93C2863E0093";
shapes = (
{
closed = 1;
nodes = (
(476,0,l),
(476,318,l),
(656,504,l),
(1040,0,l),
(1524,0,l),
(916,792,l),
(1218,1096,ls),
(1281,1159,o),
(1323,1196,o),
(1416,1152,c),
(1536,1434,l),
(1303,1562,o),
(1096,1521,o),
(918,1342,cs),
(496,914,l),
(476,914,l),
(476,1490,l),
(72,1490,l),
(72,0,l)
);
}
);
width = 1522;
},
{
layerId = "B1F27B51-9973-4381-9301-4FE46FE1CA59";
shapes = (
{
closed = 1;
nodes = (
(280,0,l),
(280,486,l),
(504,734,l),
(1192,0,l),
(1256,0,l),
(536,768,l),
(1100,1388,ls),
(1159,1455,o),
(1223,1469,o),
(1292,1420,c),
(1324,1450,l),
(1260,1520,o),
(1136,1505,o),
(1064,1420,c),
(286,562,l),
(280,562,l),
(280,1490,l),
(232,1490,l),
(232,0,l)
);
}
);
width = 1342;
}
);
tags = (
"TODO-opsz"
);
unicode = 408;
userData = {
com.typemytype.robofont.guideline.magnetic.39qH0NXtzo = 5;
com.typemytype.robofont.guideline.magnetic.tBAYMBoO6i = 5;
interface.gridadjust.original = "{'width': 1764, 'leftMargin': 228, 'rightMargin': -13}";
"interface.width-adjustments" = (
-16
);
};
},
{
color = 6;
glyphname = L;
kernLeft = B;
kernRight = L;
lastChange = "2022-07-22 10:10:39 +0000";
layers = (
{
anchors = (
{
name = bottom;
pos = (568,0);
},
{
name = cross;
pos = (222,768);
},
{
name = dot;
pos = (558,794);
},
{
name = raccent;
pos = (566,1490);
},
{
name = top;
pos = (222,1676);
}
);
guides = (
{
angle = 90;
pos = (276,1944);
},
{
angle = 90;
pos = (752,-100);
}
);
layerId = "C698F293-3EC0-4A5A-A3A0-0FDB1F5CF265";
shapes = (
{
closed = 1;
nodes = (
(1006,0,l),
(1006,160,l),
(312,160,l),
(312,1490,l),
(132,1490,l),
(132,0,l)
);
}
);
width = 1056;
},
{
anchors = (
{
name = bottom;
pos = (576,0);
},
{
name = cross;
pos = (272,788);
},
{
name = dot;
pos = (582,872);
},
{
name = raccent;
pos = (680,1490);
},
{
name = top;
pos = (270,1676);
}
);
guides = (
{
pos = (-132,1304);
},
{
angle = 90;
pos = (680,584);
},
{
pos = (844,-416);
}
);
layerId = "5C20EF92-B63D-42A8-8878-93C2863E0093";
shapes = (
{
closed = 1;
nodes = (
(1078,0,l),
(1078,326,l),
(476,326,l),
(476,1490,l),
(72,1490,l),
(72,0,l)
);
}
);
width = 1122;
},
{
anchors = (
{
name = bottom;
pos = (628,0);
},
{
name = cross;
pos = (256,768);
},
{
name = dot;
pos = (606,748);
},
{
name = raccent;
pos = (626,1490);
},
{
name = top;
pos = (256,1676);
}
);
guides = (
{
angle = 90;
pos = (864,2088);
},
{
angle = 90;
pos = (352,1932);
}
);
layerId = "B1F27B51-9973-4381-9301-4FE46FE1CA59";
shapes = (
{
closed = 1;
nodes = (
(1024,0,l),
(1024,46,l),
(280,46,l),
(280,1490,l),
(232,1490,l),
(232,0,l)
);
}
);
width = 1152;
}
);
metricLeft = H;
unicode = 76;
userData = {
"interface.width-adjustments" = (
-16
);
};
},
{
color = 3;
glyphname = Lslash;
kernLeft = B;
kernRight = L;
lastChange = "2022-07-22 10:10:39 +0000";
layers = (
{
layerId = "C698F293-3EC0-4A5A-A3A0-0FDB1F5CF265";
shapes = (
{
closed = 1;
nodes = (
(-4,744,l),
(-4,614,l),
(586,800,l),
(586,930,l)
);
},
{
ref = L;
}
);
width = 1056;
},
{
layerId = "5C20EF92-B63D-42A8-8878-93C2863E0093";
shapes = (
{
closed = 1;
nodes = (
(-4,794,l),
(-4,596,l),
(726,782,l),
(726,984,l)
);
},
{
pos = (104,0);
ref = L;
}
);
width = 1182;
},
{
layerId = "B1F27B51-9973-4381-9301-4FE46FE1CA59";
shapes = (
{
closed = 1;
nodes = (
(0,678,l),
(0,626,l),
(506,814,l),
(506,862,l)
);
},
{
alignment = -1;
pos = (-64,0);
ref = L;
}
);
width = 1104;
}
);
unicode = 321;
userData = {
interface.gridadjust.original = "{'width': 1524, 'leftMargin': 52, 'rightMargin': 104}";
"interface.width-adjustments" = (
-16
);
};
},
{
color = 6;
glyphname = M;
kernLeft = B;
kernRight = H;
lastChange = "2022-07-22 10:10:39 +0000";
layers = (
{
anchors = (
{
name = bottom;
pos = (862,0);
},
{
name = right;
pos = (1594,0);
},
{
name = top;
pos = (862,1676);
}
);
guides = (
{
orientation = center;
angle = 90;
pos = (-653,152);
},
{
angle = 90;
pos = (420,2056);
},
{
angle = 90;
pos = (1836,2060);
}
);
layerId = "C698F293-3EC0-4A5A-A3A0-0FDB1F5CF265";
shapes = (
{
closed = 1;
nodes = (
(132,0,l),
(302,0,l),
(302,1132,l),
(316,1132,l),
(779,0,l),
(941,0,l),
(1410,1132,l),
(1424,1132,l),
(1424,0,l),
(1601,0,l),
(1601,1490,l),
(1378,1490,l),
(872,254,l),
(854,254,l),
(348,1490,l),
(132,1490,l)
);
}
);
width = 1733;
},
{
anchors = (
{
name = bottom;
pos = (930,0);
},
{
name = right;
pos = (1788,0);
},
{
name = top;
pos = (930,1676);
}
);
guides = (
{
pos = (44,1220);
},
{
orientation = center;
angle = 90;
pos = (-3742,2164);
}
);
layerId = "5C20EF92-B63D-42A8-8878-93C2863E0093";
shapes = (
{
closed = 1;
nodes = (
(72,0,l),
(468,0,l),
(468,866,l),
(480,866,l),
(810,12,l),
(1050,12,l),
(1382,862,l),
(1392,862,l),
(1392,0,l),
(1788,0,l),
(1788,1490,l),
(1286,1490,l),
(938,646,l),
(922,646,l),
(576,1490,l),
(72,1490,l)
);
}
);
width = 1860;
},
{
anchors = (
{
name = bottom;
pos = (998,2);
},
{
name = bottom_dd;
pos = (1960,-408);
},
{
name = right;
pos = (1850,0);
},
{
name = top;
pos = (998,1586);
},
{
name = top0315;
pos = (1960,1600);
},
{
name = top_dd;
pos = (1960,1600);
}
);
associatedMasterId = "5C20EF92-B63D-42A8-8878-93C2863E0093";
guides = (
{
pos = (188,1220);
},
{
angle = 90;
pos = (1572,1848);
},
{
angle = 90;
pos = (1088,2164);
},
{
angle = 90;
pos = (2140,2040);
}
);
layerId = "75B701FF-9FEA-46EA-B4EE-AB55E07CEDFA";
name = "Oct 6 18, 13:17";
shapes = (
{
closed = 1;
nodes = (
(96,0,l),
(504,0,l),
(504,916,l),
(514,916,l),
(870,30,l),
(1126,30,l),
(1480,910,l),
(1492,910,l),
(1492,0,l),
(1900,0,l),
(1900,1490,l),
(1368,1490,l),
(1006,640,l),
(990,640,l),
(628,1490,l),
(96,1490,l)
);
}
);
width = 1996;
},
{
anchors = (
{
name = bottom;
pos = (884,0);
},
{
name = right;
pos = (1536,0);
},
{
name = top;
pos = (884,1676);
}
);
layerId = "B1F27B51-9973-4381-9301-4FE46FE1CA59";
shapes = (
{
closed = 1;
nodes = (
(232,0,l),
(280,0,l),
(280,1344,l),
(286,1344,l),
(862,0,l),
(908,0,l),
(1484,1344,l),
(1490,1344,l),
(1490,0,l),
(1536,0,l),
(1536,1490,l),
(1496,1490,l),
(888,70,l),
(882,70,l),
(274,1490,l),
(232,1490,l)
);
}
);
width = 1768;
}
);
metricLeft = H;
metricRight = H;
unicode = 77;
userData = {
com.typemytype.robofont.guideline.magnetic.ezYETy42tZ = 5;
com.typemytype.robofont.guideline.magnetic.wu5HJlZVk6 = 5;
com.typemytype.robofont.guideline.magnetic.x5YoYrsuLC = 5;
"interface.width-adjustments" = (
-16
);
};
},
{
color = 6;
glyphname = N;
kernLeft = B;
kernRight = H;
lastChange = "2022-07-22 10:10:39 +0000";
layers = (
{
anchors = (
{
name = bottom;
pos = (792,0);
},
{
name = right;
pos = (1300,0);
},
{
name = top;
pos = (792,1676);
}
);
layerId = "B1F27B51-9973-4381-9301-4FE46FE1CA59";
shapes = (
{
closed = 1;
nodes = (
(1304,1490,l),
(1304,88,l),
(1298,88,l),
(280,1490,l),
(232,1490,l),
(232,0,l),
(280,0,l),
(280,1402,l),
(286,1402,l),
(1304,0,l),
(1350,0,l),
(1350,1490,l)
);
}
);
width = 1582;
},
{
anchors = (
{
name = bottom;
pos = (722,0);
},
{
name = right;
pos = (1316,0);
},
{
name = top;
pos = (722,1676);
}
);
layerId = "C698F293-3EC0-4A5A-A3A0-0FDB1F5CF265";
shapes = (
{
closed = 1;
nodes = (
(1136,1490,l),
(1136,318,l),
(1122,318,l),
(306,1490,l),
(132,1490,l),
(132,0,l),
(312,0,l),
(312,1170,l),
(328,1170,l),
(1138,0,l),
(1316,0,l),
(1316,1490,l)
);
}
);
width = 1448;
},
{
anchors = (
{
name = bottom;
pos = (756,0);
},
{
name = right;
pos = (1330,0);
},
{
name = top;
pos = (756,1676);
}
);
associatedMasterId = "C698F293-3EC0-4A5A-A3A0-0FDB1F5CF265";
guides = (
{
orientation = center;
angle = 90;
pos = (1116,284);
}
);
layerId = "CDCA1FA0-CAD8-4C14-B3A1-3337A4674D3F";
name = "Oct 7 18, 22:28";
shapes = (
{
closed = 1;
nodes = (
(1154,1490,l),
(1154,318,l),
(1140,318,l),
(354,1490,l),
(180,1490,l),
(180,0,l),
(360,0,l),
(360,1166,l),
(376,1166,l),
(1158,0,l),
(1332,0,l),
(1332,1490,l)
);
}
);
width = 1512;
},
{
anchors = (
{
name = bottom;
pos = (718,0);
},
{
name = right;
pos = (1430,0);
},
{
name = top;
pos = (718,1676);
}
);
guides = (
{
pos = (-132,1652);
},
{
orientation = center;
angle = 90;
pos = (-2860,240);
}
);
layerId = "5C20EF92-B63D-42A8-8878-93C2863E0093";
shapes = (
{
closed = 1;
nodes = (
(956,1490,l),
(956,710,l),
(944,710,l),
(416,1490,l),
(72,1490,l),
(72,0,l),
(476,0,l),
(476,782,l),
(486,782,l),
(1024,0,l),
(1360,0,l),
(1360,1490,l)
);
}
);
width = 1432;
},
{
anchors = (
{
name = bottom;
pos = (742,0);
},
{
name = bottom_dd;
pos = (1566,-408);
},
{
name = right;
pos = (1454,0);
},
{
name = top;
pos = (742,1586);
},
{
name = top0315;
pos = (1566,1600);
},
{
name = top_dd;
pos = (1566,1600);
}
);
associatedMasterId = "5C20EF92-B63D-42A8-8878-93C2863E0093";
guides = (
{
pos = (12,1652);
},
{
orientation = center;
angle = 90;
pos = (900,240);
}
);
layerId = "F81B89FA-28D8-48B6-8D66-9AD40CA032B3";
name = "Oct 6 18, 13:13";
shapes = (
{
closed = 1;
nodes = (
(980,1490,l),
(980,674,l),
(968,674,l),
(498,1490,l),
(96,1490,l),
(96,0,l),
(500,0,l),
(500,818,l),
(510,818,l),
(990,0,l),
(1384,0,l),
(1384,1490,l)
);
}
);
width = 1480;
}
);
metricLeft = H;
metricRight = H;
unicode = 78;
userData = {
"interface.width-adjustments" = (
-16
);
};
},
{
color = 3;
glyphname = Nhook;
kernLeft = jdotless;
kernRight = H;
lastChange = "2022-07-22 10:10:39 +0000";
layers = (
{
layerId = "C698F293-3EC0-4A5A-A3A0-0FDB1F5CF265";
shapes = (
{
closed = 1;
nodes = (
(190,-116,ls),
(189,-233,o),
(122,-268,o),
(30,-268,cs),
(9,-268,o),
(-12,-265,o),
(-26,-262,c),
(-26,-410,l),
(0,-419,o),
(38,-419,o),
(72,-418,cs),
(236,-419,o),
(369,-311,o),
(370,-120,cs),
(370,0,l),
(190,0,l)
);
},
{
pos = (56,0);
ref = N;
}
);
width = 1504;
},
{
layerId = "5C20EF92-B63D-42A8-8878-93C2863E0093";
shapes = (
{
closed = 1;
nodes = (
(148,-34,ls),
(148,-102,o),
(71,-116,o),
(-2,-116,c),
(-19,-116,o),
(-48,-119,o),
(-70,-116,c),
(-70,-414,l),
(-28,-419,o),
(65,-419,o),
(104,-418,c),
(316,-419,o),
(553,-387,o),
(552,-34,cs),
(552,0,l),
(148,0,l)
);
},
{
pos = (76,0);
ref = N;
}
);
width = 1508;
},
{
layerId = "B1F27B51-9973-4381-9301-4FE46FE1CA59";
shapes = (
{
closed = 1;
nodes = (
(184,-168,ls),
(184,-304,o),
(133,-369,o),
(28,-370,cs),
(7,-369,o),
(-11,-367,o),
(-24,-364,c),
(-24,-410,l),
(-10,-414,o),
(11,-416,o),
(32,-416,cs),
(161,-416,o),
(231,-329,o),
(230,-168,cs),
(230,0,l),
(184,0,l)
);
},
{
alignment = -1;
pos = (-48,0);
ref = N;
}
);
width = 1534;
}
);
metricLeft = j;
metricRight = H;
tags = (
"TODO-opsz"
);
unicode = 413;
userData = {
interface.gridadjust.original = "{'width': 2104, 'leftMargin': 0, 'rightMargin': 218}";
"interface.width-adjustments" = (
-16
);
};
},
{
color = 3;
glyphname = Eng;
kernLeft = B;
kernRight = H;
lastChange = "2022-07-22 10:10:39 +0000";
layers = (
{
layerId = "C698F293-3EC0-4A5A-A3A0-0FDB1F5CF265";
shapes = (
{
closed = 1;
nodes = (
(1138,-116,ls),
(1139,-233,o),
(1066,-268,o),
(974,-268,cs),
(953,-268,o),
(932,-265,o),
(918,-262,c),
(918,-410,l),
(944,-419,o),
(982,-419,o),
(1016,-418,cs),
(1180,-419,o),
(1313,-311,o),
(1314,-120,cs),
(1314,0,l),
(1138,0,l)
);
},
{
ref = N;
}
);
width = 1448;
},
{
layerId = "5C20EF92-B63D-42A8-8878-93C2863E0093";
shapes = (
{
closed = 1;
nodes = (
(1024,-30,ls),
(1023,-111,o),
(957,-160,o),
(848,-160,cs),
(799,-160,o),
(745,-154,o),
(706,-146,c),
(706,-436,l),
(745,-449,o),
(792,-457,o),
(828,-456,cs),
(1159,-457,o),
(1361,-364,o),
(1360,-20,cs),
(1360,0,l),
(1024,0,l,{
name = hr00;
})
);
},
{
ref = N;
}
);
width = 1432;
},
{
layerId = "B1F27B51-9973-4381-9301-4FE46FE1CA59";
shapes = (
{
closed = 1;
nodes = (
(1304,-168,ls),
(1303,-304,o),
(1252,-369,o),
(1148,-370,cs),
(1126,-369,o),
(1108,-367,o),
(1096,-364,c),
(1096,-410,l),
(1109,-414,o),
(1130,-416,o),
(1152,-416,cs),
(1280,-416,o),
(1350,-329,o),
(1350,-168,cs),
(1350,0,l),
(1304,0,l)
);
},
{
alignment = -1;
ref = N;
}
);
width = 1582;
}
);
metricLeft = N;
metricRight = N;
tags = (
"TODO-opsz"
);
unicode = 330;
userData = {
interface.gridadjust.original = "{'width': 1947.0, 'leftMargin': 217, 'rightMargin': 205.0}";
"interface.width-adjustments" = (
-16
);
};
},
{
color = 6;
glyphname = O;
kernLeft = C;
kernRight = D;
lastChange = "2022-07-22 10:10:39 +0000";
layers = (
{
anchors = (
{
name = bottom;
pos = (766,0);
},
{
name = ogonek;
pos = (800,0);
},
{
name = tonos;
pos = (222,1490);
},
{
name = top;
pos = (766,1676);
},
{
name = tophorn;
pos = (1175,1295);
}
);
layerId = "B1F27B51-9973-4381-9301-4FE46FE1CA59";
shapes = (
{
closed = 1;
nodes = (
(1132,-20,o),
(1382,289,o),
(1382,744,cs),
(1382,1200,o),
(1132,1510,o),
(766,1510,cs),
(398,1510,o),
(148,1199,o),
(148,744,cs),
(148,291,o),
(397,-20,o),
(766,-20,cs)
);
},
{
closed = 1;
nodes = (
(423,26,o),
(194,320,o),
(194,744,cs),
(194,1175,o),
(428,1464,o),
(766,1464,cs),
(1104,1464,o),
(1336,1172,o),
(1336,744,cs),
(1336,317,o),
(1104,26,o),
(766,26,cs)
);
}
);
width = 1530;
},
{
anchors = (
{
name = bottom;
pos = (733,0);
},
{
name = ogonek;
pos = (874,-6);
},
{
name = tonos;
pos = (150,1490);
},
{
name = top;
pos = (733,1676);
},
{
name = tophorn;
pos = (1118,1186);
}
);
guides = (
{
angle = 90;
pos = (685,803);
}
);
layerId = "C698F293-3EC0-4A5A-A3A0-0FDB1F5CF265";
shapes = (
{
closed = 1;
nodes = (
(1114,-20,o),
(1390,273,o),
(1390,744,cs),
(1390,1216,o),
(1114,1510,o),
(733,1510,cs),
(352,1510,o),
(74,1216,o),
(74,744,cs),
(74,273,o),
(352,-20,o),
(733,-20,cs)
);
},
{
closed = 1;
nodes = (
(462,148,o),
(248,358,o),
(248,744,cs),
(248,1132,o),
(462,1342,o),
(733,1342,cs),
(1003,1342,o),
(1216,1132,o),
(1216,744,cs),
(1216,358,o),
(1003,148,o),
(733,148,cs)
);
}
);
width = 1464;
},
{
anchors = (
{
name = bottom;
pos = (790,0);
},
{
name = ogonek;
pos = (998,6);
},
{
name = tonos;
pos = (148,1490);
},
{
name = top;
pos = (790,1676);
},
{
name = tophorn;
pos = (1289,1056);
}
);
guides = (
{
orientation = center;
angle = 90;
pos = (-2846,940);
}
);
layerId = "5C20EF92-B63D-42A8-8878-93C2863E0093";
shapes = (
{
closed = 1;
nodes = (
(1195,-20,o),
(1514,247,o),
(1514,744,cs),
(1514,1242,o),
(1195,1510,o),
(790,1510,cs),
(383,1510,o),
(66,1242,o),
(66,744,cs),
(66,250,o),
(383,-20,o),
(790,-20,cs)
);
},
{
closed = 1;
nodes = (
(590,332,o),
(482,477,o),
(482,744,cs),
(482,1012,o),
(590,1158,o),
(790,1158,cs),
(991,1158,o),
(1098,1012,o),
(1098,744,cs),
(1098,477,o),
(991,332,o),
(790,332,cs)
);
}
);
width = 1580;
}
);
unicode = 79;
userData = {
com.typemytype.robofont.guideline.magnetic.GU6fgH972W = 5;
"interface.width-adjustments" = (
-16
);
};
},
{
color = 6;
glyphname = OI;
lastChange = "2022-07-22 10:10:39 +0000";
layers = (
{
background = {
shapes = (
{
closed = 1;
nodes = (
(1048,728,l),
(1048,250,l),
(1009,209,o),
(943,145,o),
(742,146,cs),
(468,145,o),
(329,358,o),
(328,678,cs),
(328,774,l),
(122,770,l),
(122,678,ls),
(122,224,o),
(381,-20,o),
(734,-20,cs),
(1065,-20,o),
(1193,116,o),
(1246,198,c),
(1246,728,l,{
name = hr00;
})
);
},
{
closed = 1;
nodes = (
(1193,1341,o),
(1065,1478,o),
(734,1478,cs),
(378,1478,o),
(122,1219,o),
(122,780,cs),
(122,696,l),
(328,696,l),
(328,780,ls),
(329,1117,o),
(489,1309,o),
(734,1310,cs),
(943,1309,o),
(1009,1248,o),
(1048,1204,c),
(1048,710,l),
(1246,710,l),
(1246,1260,l)
);
},
{
closed = 1;
nodes = (
(1434,1458,l),
(1154,1344,l),
(1154,1176,l),
(1388,1260,l),
(1388,-416,l),
(1588,-416,l),
(1588,1458,l)
);
}
);
};
layerId = "C698F293-3EC0-4A5A-A3A0-0FDB1F5CF265";
shapes = (
{
closed = 1;
nodes = (
(1000,760,l),
(1000,250,l),
(934,180,o),
(826,145,o),
(708,146,cs),
(424,145,o),
(281,342,o),
(280,678,cs),
(280,806,l),
(74,802,l),
(74,678,ls),
(74,249,o),
(305,-20,o),
(696,-20,cs),
(914,-20,o),
(1108,60,o),
(1198,198,c),
(1198,760,l,{
name = hr00;
})
);
},
{
closed = 1;
nodes = (
(1112,1424,o),
(922,1510,o),
(714,1510,cs),
(313,1510,o),
(74,1249,o),
(74,812,cs),
(74,696,l),
(280,696,l),
(280,812,ls),
(281,1159,o),
(428,1341,o),
(712,1342,cs),
(834,1341,o),
(943,1301,o),
(1000,1236,c),
(1000,742,l),
(1198,742,l),
(1198,1292,l)
);
},
{
closed = 1;
nodes = (
(1386,1490,l),
(1106,1376,l),
(1106,1208,l),
(1340,1292,l),
(1340,-418,l),
(1540,-418,l),
(1540,1490,l)
);
}
);
width = 1672;
},
{
background = {
shapes = (
{
closed = 1;
nodes = (
(1000,934,l),
(1000,340,l),
(965,317,o),
(901,291,o),
(792,290,cs),
(564,291,o),
(488,451,o),
(488,690,cs),
(488,744,l),
(90,742,l),
(90,690,ls),
(89,241,o),
(357,-20,o),
(768,-20,cs),
(1093,-20,o),
(1297,96,o),
(1378,178,c),
(1378,934,l)
);
},
{
closed = 1;
nodes = (
(1297,1364,o),
(1096,1478,o),
(768,1478,cs),
(357,1478,o),
(89,1219,o),
(90,768,cs),
(90,698,l),
(488,696,l),
(488,768,ls),
(488,1021,o),
(552,1167,o),
(794,1166,cs),
(881,1167,o),
(953,1155,o),
(1000,1120,c),
(1000,530,l),
(1378,536,l),
(1378,1280,l)
);
},
{
closed = 1;
nodes = (
(1634,1458,l),
(1164,1234,l),
(1164,800,l),
(1542,984,l),
(1542,-416,l),
(1914,-416,l),
(1914,1458,l)
);
}
);
};
layerId = "5C20EF92-B63D-42A8-8878-93C2863E0093";
shapes = (
{
closed = 1;
nodes = (
(976,966,l),
(976,340,l),
(941,317,o),
(871,291,o),
(776,290,cs),
(534,291,o),
(465,451,o),
(464,690,cs),
(464,776,l),
(66,774,l),
(66,690,ls),
(66,241,o),
(323,-20,o),
(762,-20,cs),
(1059,-20,o),
(1273,96,o),
(1354,178,c),
(1354,966,l)
);
},
{
closed = 1;
nodes = (
(1273,1396,o),
(1062,1510,o),
(762,1510,cs),
(323,1510,o),
(66,1251,o),
(66,800,cs),
(66,698,l),
(464,696,l),
(464,800,ls),
(465,1053,o),
(522,1199,o),
(778,1198,cs),
(851,1199,o),
(929,1187,o),
(976,1152,c),
(976,530,l),
(1354,536,l),
(1354,1312,l)
);
},
{
closed = 1;
nodes = (
(1610,1490,l),
(1140,1266,l),
(1140,832,l),
(1518,1016,l),
(1518,-418,l),
(1890,-418,l),
(1890,1490,l)
);
}
);
width = 1962;
},
{
background = {
shapes = (
{
closed = 1;
nodes = (
(1080,756,l),
(1080,184,l),
(1017,90,o),
(881,26,o),
(738,26,cs),
(439,26,o),
(196,294,o),
(194,672,cs),
(194,714,l),
(148,714,l),
(148,672,ls),
(148,269,o),
(415,-20,o),
(736,-20,cs),
(897,-20,o),
(1044,51,o),
(1126,174,c),
(1126,756,l)
);
},
{
closed = 1;
nodes = (
(1034,1415,o),
(890,1481,o),
(736,1480,cs),
(400,1481,o),
(148,1169,o),
(148,758,cs),
(148,702,l),
(194,702,l),
(194,758,ls),
(195,1146,o),
(428,1434,o),
(736,1434,cs),
(874,1434,o),
(1007,1376,o),
(1080,1278,c),
(1080,670,l),
(1126,670,l),
(1126,1302,l)
);
},
{
closed = 1;
nodes = (
(1282,1458,l),
(1090,1306,l),
(1090,1246,l),
(1302,1414,l),
(1302,-416,l),
(1348,-416,l),
(1348,1458,l)
);
}
);
};
guides = (
{
pos = (1106,924);
}
);
layerId = "B1F27B51-9973-4381-9301-4FE46FE1CA59";
shapes = (
{
closed = 1;
nodes = (
(1080,786,l),
(1080,184,l),
(1017,90,o),
(881,26,o),
(738,26,cs),
(439,26,o),
(196,294,o),
(194,672,cs),
(194,714,l),
(148,714,l),
(148,672,ls),
(148,269,o),
(415,-20,o),
(736,-20,cs),
(897,-20,o),
(1044,51,o),
(1126,174,c),
(1126,786,l)
);
},
{
closed = 1;
nodes = (
(1034,1444,o),
(890,1510,o),
(736,1510,cs),
(400,1510,o),
(148,1199,o),
(148,786,cs),
(148,702,l),
(194,702,l),
(194,786,ls),
(195,1175,o),
(428,1463,o),
(736,1464,cs),
(874,1463,o),
(1007,1405,o),
(1080,1308,c),
(1080,670,l),
(1126,670,l),
(1126,1330,l)
);
},
{
closed = 1;
nodes = (
(1282,1490,l),
(1090,1338,l),
(1090,1278,l),
(1302,1446,l),
(1302,-418,l),
(1348,-418,l),
(1348,1490,l)
);
}
);
width = 1582;
}
);
tags = (
"TODO-opsz"
);
unicode = 418;
userData = {
interface.gridadjust.original = "{'width': 2409.0, 'leftMargin': 161, 'rightMargin': 232.0}";
"interface.width-adjustments" = (
-16
);
};
},
{
color = 3;
glyphname = Ohorn;
kernLeft = C;
kernRight = D;
lastChange = "2022-07-22 10:10:39 +0000";
layers = (
{
layerId = "C698F293-3EC0-4A5A-A3A0-0FDB1F5CF265";
shapes = (
{
ref = O;
},
{
pos = (895,68);
ref = _part.otophorn;
}
);
width = 1464;
},
{
layerId = "B1F27B51-9973-4381-9301-4FE46FE1CA59";
shapes = (
{
ref = O;
},
{
pos = (919,161);
ref = _part.otophorn;
}
);
width = 1530;
},
{
associatedMasterId = "5C20EF92-B63D-42A8-8878-93C2863E0093";
guides = (
{
angle = 90;
pos = (814,1568);
}
);
layerId = "B6E533A3-34FC-4B43-B8CB-424549AE8CAF";
name = "Jun 4, 22, 09:39";
shapes = (
{
ref = O;
},
{
closed = 1;
nodes = (
(930,1325,ls),
(1084,1342,o),
(1187,1374,o),
(1261,1426,cs),
(1369,1502,o),
(1422,1626,o),
(1422,1804,c),
(1121,1804,l),
(1117,1679,o),
(1094,1611,o),
(1041,1569,cs),
(995,1532,o),
(919,1512,o),
(814,1510,c),
(814,1312,l)
);
}
);
width = 1630;
},
{
background = {
shapes = (
{
closed = 1;
nodes = (
(1478,1350,o),
(1449,1239,o),
(1314,1240,c),
(1314,1068,l),
(1585,1068,o),
(1696,1242,o),
(1696,1538,c),
(1478,1538,l)
);
},
{
closed = 1;
nodes = (
(1539,1242,o),
(1219,1510,o),
(814,1510,cs),
(407,1510,o),
(90,1242,o),
(90,744,cs),
(90,250,o),
(407,-20,o),
(814,-20,cs),
(1219,-20,o),
(1539,247,o),
(1538,744,cs)
);
},
{
closed = 1;
nodes = (
(1123,477,o),
(1015,332,o),
(814,332,cs),
(614,332,o),
(506,477,o),
(506,744,cs),
(506,1012,o),
(614,1158,o),
(814,1158,cs),
(1015,1158,o),
(1123,1012,o),
(1122,744,cs)
);
}
);
};
guides = (
{
angle = 90;
pos = (814,1568);
}
);
layerId = "5C20EF92-B63D-42A8-8878-93C2863E0093";
name = Black;
shapes = (
{
ref = O;
},
{
pos = (1067,0);
ref = _part.otophorn;
}
);
width = 1580;
}
);
metricLeft = O;
unicode = 416;
userData = {
interface.gridadjust.original = "{'width': 1928, 'leftMargin': 226, 'rightMargin': -45}";
"interface.width-adjustments" = (
-16
);
};
},
{
color = 3;
glyphname = Oslash;
kernLeft = C;
kernRight = D;
lastChange = "2022-07-22 10:10:39 +0000";
layers = (
{
guides = (
{
angle = 145.6539;
pos = (300,-96);
},
{
angle = 90;
pos = (920,1852);
},
{
angle = 56.0077;
pos = (920,1024);
}
);
layerId = "C698F293-3EC0-4A5A-A3A0-0FDB1F5CF265";
shapes = (
{
ref = O;
},
{
closed = 1;
nodes = (
(1302,1472,l),
(1192,1548,l),
(156,14,l),
(266,-62,l)
);
}
);
width = 1464;
},
{
guides = (
{
angle = 90;
pos = (880,1588);
},
{
pos = (1148,1024);
},
{
angle = 55.9722;
pos = (880,1024);
}
);
layerId = "5C20EF92-B63D-42A8-8878-93C2863E0093";
shapes = (
{
ref = O;
},
{
closed = 1;
nodes = (
(1416,1454,l),
(1254,1566,l),
(166,32,l),
(328,-78,l)
);
}
);
width = 1580;
},
{
layerId = "B1F27B51-9973-4381-9301-4FE46FE1CA59";
shapes = (
{
alignment = -1;
ref = O;
},
{
closed = 1;
nodes = (
(1286,1498,l),
(1248,1524,l),
(244,-8,l),
(282,-34,l)
);
}
);
width = 1530;
}
);
metricLeft = O;
metricRight = O;
unicode = 216;
userData = {
com.typemytype.robofont.guideline.magnetic.7eFhkhwEhv = 5;
com.typemytype.robofont.guideline.magnetic.bDBaZ7HKjd = 5;
com.typemytype.robofont.guideline.magnetic.rquz9RFtyk = 5;
"interface.width-adjustments" = (
-16
);
};
},
{
color = 3;
glyphname = OE;
kernLeft = C;
kernRight = E;
lastChange = "2022-07-22 10:10:39 +0000";
layers = (
{
layerId = "C698F293-3EC0-4A5A-A3A0-0FDB1F5CF265";
shapes = (
{
pos = (816,0);
ref = E;
},
{
closed = 1;
nodes = (
(1020,0,l),
(1020,160,l),
(732,160,ls),
(444,160,o),
(249,396,o),
(248,744,cs),
(249,1097,o),
(444,1330,o),
(732,1330,cs),
(1020,1330,l),
(1020,1490,l),
(732,1490,ls),
(339,1490,o),
(74,1193,o),
(74,744,cs),
(74,300,o),
(339,0,o),
(732,0,cs)
);
}
);
width = 1944;
},
{
layerId = "5C20EF92-B63D-42A8-8878-93C2863E0093";
shapes = (
{
pos = (872,0);
ref = E;
},
{
closed = 1;
nodes = (
(1182,0,l),
(1182,344,l),
(822,344,l),
(600,343,o),
(472,433,o),
(472,744,c),
(472,1056,o),
(600,1146,o),
(834,1146,c),
(1188,1146,l),
(1188,1490,l),
(812,1490,l),
(353,1489,o),
(65,1210,o),
(66,744,c),
(65,279,o),
(353,0,o),
(806,0,c)
);
}
);
width = 2098;
},
{
layerId = "B1F27B51-9973-4381-9301-4FE46FE1CA59";
shapes = (
{
alignment = -1;
pos = (692,0);
ref = E;
},
{
closed = 1;
nodes = (
(948,0,l),
(948,46,l),
(766,46,ls),
(423,47,o),
(195,332,o),
(194,744,cs),
(195,1164,o),
(428,1444,o),
(766,1442,cs),
(948,1442,l),
(948,1490,l),
(766,1490,ls),
(398,1489,o),
(148,1188,o),
(148,744,cs),
(148,303,o),
(397,0,o),
(766,0,cs)
);
}
);
width = 1888;
}
);
metricLeft = O;
metricRight = E;
note = "Mirrored D + E";
unicode = 338;
userData = {
interface.gridadjust.original = "{'width': 2698, 'leftMargin': 143, 'rightMargin': 191}";
"interface.width-adjustments" = (
-16
);
};
},
{
color = 6;
glyphname = P;
kernLeft = B;
kernRight = P;
lastChange = "2022-07-22 10:10:39 +0000";
layers = (
{
anchors = (
{
name = tonos;
pos = (190,1490);
},
{
name = top;
pos = (638,1676);
}
);
layerId = "B1F27B51-9973-4381-9301-4FE46FE1CA59";
shapes = (
{
closed = 1;
nodes = (
(280,0,l),
(280,1442,l),
(670,1442,ls),
(892,1442,o),
(1050,1281,o),
(1050,1054,cs),
(1050,826,o),
(892,666,o),
(670,666,cs),
(256,666,l),
(256,620,l),
(670,620,ls),
(919,620,o),
(1096,799,o),
(1096,1054,cs),
(1096,1308,o),
(919,1490,o),
(670,1490,cs),
(232,1490,l),
(232,0,l)
);
}
);
width = 1242;
},
{
anchors = (
{
name = tonos;
pos = (98,1490);
},
{
name = top;
pos = (600,1676);
}
);
guides = (
{
angle = 90;
pos = (1300,1760);
},
{
angle = 90;
pos = (1152,1804);
}
);
layerId = "C698F293-3EC0-4A5A-A3A0-0FDB1F5CF265";
shapes = (
{
closed = 1;
nodes = (
(312,0,l),
(312,1330,l),
(630,1330,ls),
(872,1330,o),
(964,1197,o),
(964,1018,cs),
(964,839,o),
(872,704,o),
(632,704,cs),
(278,704,l),
(278,544,l),
(638,544,ls),
(985,544,o),
(1142,755,o),
(1142,1018,cs),
(1142,1281,o),
(985,1490,o),
(636,1490,cs),
(132,1490,l),
(132,0,l)
);
}
);
width = 1204;
},
{
anchors = (
{
name = tonos;
pos = (52,1490);
},
{
name = top;
pos = (634,1676);
}
);
guides = (
{
pos = (-132,1240);
},
{
pos = (-132,764);
},
{
pos = (-132,1552);
},
{
pos = (676,1372);
}
);
layerId = "5C20EF92-B63D-42A8-8878-93C2863E0093";
shapes = (
{
closed = 1;
nodes = (
(476,0,l),
(476,1166,l),
(618,1166,ls),
(761,1166,o),
(846,1091,o),
(846,962,cs),
(846,836,o),
(761,756,o),
(618,756,cs),
(316,756,l),
(316,442,l),
(700,442,ls),
(1040,442,o),
(1268,642,o),
(1268,962,cs),
(1268,1280,o),
(1046,1490,o),
(714,1490,cs),
(72,1490,l),
(72,0,l)
);
}
);
width = 1296;
}
);
metricLeft = H;
unicode = 80;
userData = {
com.typemytype.robofont.guideline.magnetic.fNIC4eKo9v = 5;
com.typemytype.robofont.guideline.magnetic.hdLF6WxJ6g = 5;
"interface.width-adjustments" = (
-16
);
};
},
{
color = 3;
glyphname = Phook;
kernLeft = B;
kernRight = P;
lastChange = "2022-07-22 10:10:39 +0000";
layers = (
{
layerId = "C698F293-3EC0-4A5A-A3A0-0FDB1F5CF265";
shapes = (
{
closed = 1;
nodes = (
(220,1150,ls),
(220,1242,o),
(234,1329,o),
(350,1330,cs),
(494,1330,l),
(494,1490,l),
(348,1490,ls),
(156,1489,o),
(51,1356,o),
(50,1192,cs),
(50,1094,l),
(220,1094,l)
);
},
{
pos = (312,0);
ref = P;
}
);
width = 1516;
},
{
layerId = "5C20EF92-B63D-42A8-8878-93C2863E0093";
shapes = (
{
closed = 1;
nodes = (
(386,978,ls),
(385,1065,o),
(420,1167,o),
(544,1166,cs),
(808,1166,l,{
name = hr00;
}),
(808,1490,l),
(544,1490,ls),
(231,1489,o),
(30,1329,o),
(32,1048,cs),
(32,870,l),
(386,870,l)
);
},
{
pos = (494,0);
ref = P;
}
);
width = 1790;
},
{
layerId = "B1F27B51-9973-4381-9301-4FE46FE1CA59";
shapes = (
{
closed = 1;
nodes = (
(172,1254,ls),
(172,1391,o),
(215,1443,o),
(326,1442,cs),
(454,1442,l,{
name = hr00;
}),
(454,1490,l),
(322,1490,ls),
(195,1489,o),
(126,1416,o),
(126,1280,cs),
(126,1228,l),
(172,1228,l)
);
},
{
alignment = -1;
pos = (120,0);
ref = P;
}
);
width = 1362;
},
{
associatedMasterId = "B1F27B51-9973-4381-9301-4FE46FE1CA59";
background = {
shapes = (
{
closed = 1;
nodes = (
(418,1490,l),
(346,1490,ls),
(227,1489,o),
(177,1373,o),
(178,1280,cs),
(178,1228,l),
(224,1228,l),
(224,1312,ls),
(224,1408,o),
(239,1443,o),
(352,1442,cs),
(418,1442,l,{
name = hr00;
})
);
}
);
};
layerId = "EAD41403-23A7-4556-BD97-FF67B573FEAA";
name = "Nov 25 18, 15:04";
shapes = (
{
closed = 0;
nodes = (
(418,1466,l),
(350,1466,l),
(224,1466,o),
(163,1405,o),
(162,1280,c),
(162,1228,l)
);
},
{
alignment = -1;
pos = (162,0);
ref = P;
}
);
width = 1410;
}
);
metricLeft = T;
metricRight = P;
note = "!post:RemoveOverlap";
tags = (
"TODO-opsz"
);
unicode = 420;
userData = {
interface.gridadjust.original = "{'width': 2072, 'leftMargin': 41, 'rightMargin': 158}";
"interface.width-adjustments" = (
-16
);
};
},
{
color = 6;
glyphname = Thorn;
kernLeft = B;
lastChange = "2022-07-22 10:10:39 +0000";
layers = (
{
layerId = "C698F293-3EC0-4A5A-A3A0-0FDB1F5CF265";
shapes = (
{
closed = 1;
nodes = (
(120,0,l),
(302,0,l),
(302,1490,l),
(120,1490,l)
);
},
{
closed = 1;
nodes = (
(206,1022,l),
(590,1022,ls),
(796,1021,o),
(909,919,o),
(910,750,cs),
(909,582,o),
(796,486,o),
(590,486,cs),
(206,486,l),
(206,326,l),
(590,326,ls),
(906,326,o),
(1081,518,o),
(1080,754,cs),
(1081,989,o),
(906,1181,o),
(590,1182,cs),
(206,1182,l)
);
}
);
width = 1196;
},
{
guides = (
{
pos = (-132,1240);
},
{
pos = (-132,764);
}
);
layerId = "5C20EF92-B63D-42A8-8878-93C2863E0093";
shapes = (
{
closed = 1;
nodes = (
(74,0,l),
(480,0,l),
(480,1490,l),
(74,1490,l)
);
},
{
closed = 1;
nodes = (
(262,940,l),
(650,940,ls),
(811,940,o),
(863,844,o),
(864,762,cs),
(863,684,o),
(811,591,o),
(650,590,cs),
(262,590,l),
(262,294,l),
(650,294,ls),
(1038,294,o),
(1250,486,o),
(1250,766,cs),
(1250,1044,o),
(1038,1239,o),
(650,1240,cs),
(262,1240,l)
);
}
);
width = 1380;
},
{
layerId = "B1F27B51-9973-4381-9301-4FE46FE1CA59";
shapes = (
{
closed = 1;
nodes = (
(212,0,l),
(256,0,l),
(256,1490,l),
(212,1490,l)
);
},
{
closed = 1;
nodes = (
(236,1086,l),
(614,1086,ls),
(855,1085,o),
(999,959,o),
(1000,744,cs),
(999,530,o),
(860,409,o),
(614,408,cs),
(236,408,l),
(236,362,l),
(614,362,ls),
(886,362,o),
(1047,505,o),
(1048,748,cs),
(1047,984,o),
(880,1132,o),
(614,1132,cs),
(236,1132,l)
);
}
);
width = 1210;
}
);
tags = (
"TODO-opsz"
);
unicode = 222;
userData = {
interface.gridadjust.original = "{'width': 1662, 'leftMargin': 224, 'rightMargin': 119}";
"interface.width-adjustments" = (
-16
);
};
},
{
color = 3;
glyphname = Q;
kernLeft = C;
kernRight = D;
lastChange = "2022-07-22 10:10:39 +0000";
layers = (
{
layerId = "C698F293-3EC0-4A5A-A3A0-0FDB1F5CF265";
shapes = (
{
closed = 1;
nodes = (
(926,134,l),
(968,78,l),
(1130,-140,l),
(1328,-140,l),
(1080,190,l),
(1038,248,l),
(872,466,l),
(674,466,l)
);
},
{
ref = O;
}
);
width = 1464;
},
{
guides = (
{
angle = 90;
pos = (880,1432);
}
);
layerId = "5C20EF92-B63D-42A8-8878-93C2863E0093";
shapes = (
{
closed = 1;
nodes = (
(864,268,l),
(982,96,l),
(1160,-110,l),
(1518,-110,l),
(1268,192,l),
(1076,410,l),
(962,552,l),
(648,552,l)
);
},
{
ref = O;
}
);
width = 1584;
},
{
layerId = "B1F27B51-9973-4381-9301-4FE46FE1CA59";
shapes = (
{
closed = 1;
nodes = (
(1082,122,l),
(1090,110,l),
(1280,-140,l),
(1338,-140,l),
(1132,134,l),
(1122,146,l),
(882,466,l),
(824,466,l)
);
},
{
alignment = -1;
ref = O;
}
);
width = 1530;
}
);
metricLeft = O;
metricRight = O;
unicode = 81;
userData = {
"interface.width-adjustments" = (
-16
);
};
},
{
color = 6;
glyphname = Q_rthook;
kernLeft = O;
kernRight = rthook;
lastChange = "2022-07-22 10:10:39 +0000";
layers = (
{
layerId = "C698F293-3EC0-4A5A-A3A0-0FDB1F5CF265";
shapes = (
{
closed = 1;
nodes = (
(1166,1490,l),
(1166,1260,l),
(1148,1260,l),
(1075,1417,o),
(909,1510,o),
(706,1510,cs),
(330,1510,o),
(74,1193,o),
(74,750,cs),
(74,294,o),
(333,-23,o),
(706,-24,cs),
(906,-23,o),
(1072,70,o),
(1148,236,c),
(1160,236,l),
(1160,-120,ls),
(1159,-311,o),
(1287,-419,o),
(1450,-418,cs),
(1485,-419,o),
(1523,-419,o),
(1550,-410,c),
(1550,-264,l),
(1535,-268,o),
(1514,-271,o),
(1494,-270,cs),
(1401,-271,o),
(1331,-236,o),
(1330,-120,cs),
(1330,1490,l)
);
},
{
closed = 1;
nodes = (
(441,148,o),
(252,378,o),
(252,748,cs),
(252,1094,o),
(432,1347,o),
(708,1346,cs),
(1018,1347,o),
(1162,1076,o),
(1162,748,cs),
(1162,412,o),
(1033,148,o),
(706,148,cs)
);
}
);
width = 1502;
},
{
background = {
shapes = (
{
ref = O;
}
);
};
guides = (
{
pos = (-64,1024);
}
);
layerId = "5C20EF92-B63D-42A8-8878-93C2863E0093";
shapes = (
{
closed = 1;
nodes = (
(1098,1490,l),
(1098,1280,l),
(1088,1280,l),
(1015,1401,o),
(887,1510,o),
(686,1510,cs),
(338,1510,o),
(66,1169,o),
(66,744,cs),
(66,323,o),
(329,-20,o),
(686,-20,cs),
(886,-20,o),
(1016,87,o),
(1088,210,c),
(1098,210,l),
(1098,-34,ls),
(1099,-364,o),
(1297,-419,o),
(1542,-418,cs),
(1634,-419,o),
(1698,-410,o),
(1742,-408,c),
(1742,-110,l),
(1710,-113,o),
(1681,-116,o),
(1652,-116,cs),
(1579,-116,o),
(1500,-102,o),
(1500,-34,cs),
(1500,1490,l)
);
},
{
closed = 1;
nodes = (
(590,332,o),
(482,477,o),
(482,744,cs),
(482,1012,o),
(590,1158,o),
(790,1158,cs),
(991,1158,o),
(1099,1012,o),
(1098,744,cs),
(1099,477,o),
(991,332,o),
(790,332,cs)
);
}
);
width = 1718;
},
{
layerId = "B1F27B51-9973-4381-9301-4FE46FE1CA59";
shapes = (
{
closed = 1;
nodes = (
(1246,1490,l),
(1246,1106,l),
(1240,1106,l),
(1156,1374,o),
(994,1510,o),
(766,1510,cs),
(399,1510,o),
(148,1200,o),
(148,744,cs),
(148,292,o),
(397,-20,o),
(758,-20,cs),
(989,-20,o),
(1155,118,o),
(1240,382,c),
(1246,382,l),
(1246,-200,ls),
(1245,-351,o),
(1301,-416,o),
(1430,-416,cs),
(1453,-416,o),
(1479,-415,o),
(1502,-412,c),
(1502,-366,l),
(1480,-368,o),
(1453,-369,o),
(1430,-370,cs),
(1328,-369,o),
(1292,-324,o),
(1292,-200,cs),
(1292,1490,l)
);
},
{
closed = 1;
nodes = (
(425,26,o),
(195,316,o),
(194,744,cs),
(195,1172,o),
(425,1463,o),
(766,1464,cs),
(1064,1463,o),
(1249,1190,o),
(1250,744,cs),
(1250,295,o),
(1068,26,o),
(766,26,cs)
);
}
);
width = 1530;
}
);
metricLeft = O;
note = "Composed by O and a vertical stem with tail";
tags = (
"TODO-opsz"
);
unicode = 586;
userData = {
interface.gridadjust.original = "{'width': 1998, 'leftMargin': 161, 'rightMargin': 14}";
"interface.width-adjustments" = (
-16
);
};
},
{
color = 6;
glyphname = R;
kernLeft = B;
kernRight = R;
lastChange = "2022-07-22 10:10:39 +0000";
layers = (
{
anchors = (
{
name = bottom;
pos = (646,0);
},
{
name = top;
pos = (626,1676);
}
);
layerId = "B1F27B51-9973-4381-9301-4FE46FE1CA59";
shapes = (
{
closed = 1;
nodes = (
(280,0,l),
(280,1442,l),
(670,1442,ls),
(892,1442,o),
(1050,1293,o),
(1050,1064,cs),
(1050,838,o),
(892,690,o),
(670,690,cs),
(256,690,l),
(256,642,l),
(670,642,ls),
(919,642,o),
(1096,811,o),
(1096,1064,cs),
(1096,1320,o),
(919,1490,o),
(670,1490,cs),
(232,1490,l),
(232,0,l)
);
},
{
closed = 1;
nodes = (
(1166,0,l),
(800,678,l),
(748,678,l),
(1114,0,l)
);
}
);
width = 1260;
},
{
anchors = (
{
name = bottom;
pos = (624,0);
},
{
name = top;
pos = (598,1676);
}
);
background = {
shapes = (
{
closed = 1;
nodes = (
(360,0,l),
(360,1330,l),
(706,1330,ls),
(905,1329,o),
(1012,1219,o),
(1012,1032,cs),
(1012,855,o),
(911,745,o),
(686,744,cs),
(290,744,l),
(290,582,l),
(724,582,l),
(1038,0,l),
(1248,0,l),
(910,616,l),
(1100,687,o),
(1190,844,o),
(1190,1036,cs),
(1190,1303,o),
(1015,1489,o),
(716,1490,cs),
(180,1490,l),
(180,0,l)
);
}
);
};
guides = (
{
orientation = center;
angle = 90;
pos = (-434,2112);
}
);
layerId = "C698F293-3EC0-4A5A-A3A0-0FDB1F5CF265";
shapes = (
{
closed = 1;
nodes = (
(312,0,l),
(312,1330,l),
(630,1330,ls),
(871,1330,o),
(964,1212,o),
(964,1032,cs),
(964,854,o),
(871,744,o),
(632,744,cs),
(232,744,l),
(232,582,l),
(638,582,ls),
(985,582,o),
(1142,769,o),
(1142,1032,cs),
(1142,1296,o),
(985,1490,o),
(636,1490,cs),
(132,1490,l),
(132,0,l)
);
},
{
closed = 1;
nodes = (
(1200,0,l),
(834,670,l),
(630,670,l),
(990,0,l)
);
}
);
width = 1214;
},
{
anchors = (
{
name = bottom;
pos = (672,0);
},
{
name = top;
pos = (640,1676);
}
);
associatedMasterId = "C698F293-3EC0-4A5A-A3A0-0FDB1F5CF265";
guides = (
{
orientation = center;
angle = 90;
pos = (924,2112);
}
);
layerId = "DE316BBE-2641-4C0D-8E2F-8ACABB428D9B";
name = "Nov 25 18, 13:05";
shapes = (
{
closed = 1;
nodes = (
(360,0,l),
(360,1330,l),
(706,1330,ls),
(905,1329,o),
(1012,1219,o),
(1012,1032,cs),
(1012,855,o),
(911,745,o),
(686,744,cs),
(290,744,l),
(290,582,l),
(724,582,l),
(1038,0,l),
(1248,0,l),
(910,616,l),
(1100,687,o),
(1190,844,o),
(1190,1036,cs),
(1190,1303,o),
(1015,1489,o),
(716,1490,cs),
(180,1490,l),
(180,0,l)
);
},
{
closed = 0;
nodes = (
(1016,582,l),
(1330,0,l),
(1538,0,l),
(1202,616,l)
);
}
);
width = 1310;
},
{
anchors = (
{
name = bottom;
pos = (674,0);
},
{
name = top;
pos = (650,1676);
}
);
guides = (
{
pos = (-132,1552);
},
{
angle = 90;
pos = (1300,0);
},
{
orientation = center;
angle = 90;
pos = (-2640,220);
}
);
layerId = "5C20EF92-B63D-42A8-8878-93C2863E0093";
shapes = (
{
closed = 1;
nodes = (
(476,0,l),
(476,1166,l),
(618,1166,ls),
(761,1166,o),
(846,1111,o),
(846,984,cs),
(846,856,o),
(761,806,o),
(618,806,cs),
(316,806,l),
(316,492,l),
(700,492,ls),
(1040,492,o),
(1268,663,o),
(1268,984,cs),
(1268,1300,o),
(1046,1490,o),
(714,1490,cs),
(72,1490,l),
(72,0,l)
);
},
{
closed = 1;
nodes = (
(1318,0,l),
(944,684,l),
(514,684,l),
(878,0,l)
);
}
);
width = 1320;
}
);
metricLeft = H;
unicode = 82;
userData = {
com.typemytype.robofont.guideline.magnetic.vulxOItvKZ = 5;
"interface.width-adjustments" = (
-16
);
};
},
{
color = 6;
glyphname = S;
kernLeft = S;
kernRight = S;
lastChange = "2022-07-22 10:10:39 +0000";
layers = (
{
anchors = (
{
name = bottom;
pos = (628,-24);
},
{
name = cedilla;
pos = (628,0);
},
{
name = top;
pos = (628,1676);
}
);
layerId = "B1F27B51-9973-4381-9301-4FE46FE1CA59";
shapes = (
{
closed = 1;
nodes = (
(905,-24,o),
(1096,145,o),
(1096,378,cs),
(1096,561,o),
(979,677,o),
(722,756,cs),
(552,808,ls),
(339,873,o),
(238,977,o),
(238,1128,cs),
(238,1324,o),
(407,1466,o),
(634,1466,cs),
(865,1466,o),
(1015,1321,o),
(1030,1118,c),
(1076,1118,l),
(1062,1347,o),
(889,1512,o),
(634,1512,cs),
(380,1512,o),
(192,1348,o),
(192,1128,cs),
(192,956,o),
(307,835,o),
(542,762,cs),
(710,710,ls),
(951,635,o),
(1050,538,o),
(1050,378,cs),
(1050,167,o),
(879,24,o),
(622,24,cs),
(377,24,o),
(218,156,o),
(204,350,c),
(158,350,l),
(172,130,o),
(351,-24,o),
(622,-24,cs)
);
}
);
width = 1254;
},
{
anchors = (
{
name = bottom;
pos = (634,-44);
},
{
name = cedilla;
pos = (638,0);
},
{
name = top;
pos = (634,1730);
}
);
associatedMasterId = "B1F27B51-9973-4381-9301-4FE46FE1CA59";
background = {
shapes = (
{
closed = 1;
nodes = (
(1100,1172,l),
(1088,1357,o),
(892,1510,o),
(648,1510,cs),
(404,1510,o),
(195,1359,o),
(194,1128,cs),
(194,947,o),
(330,834,o),
(544,762,cs),
(748,698,ls),
(900,649,o),
(1089,585,o),
(1088,390,cs,{
name = hr00;
}),
(1089,172,o),
(879,31,o),
(626,32,cs),
(434,31,o),
(238,112,o),
(218,300,c),
(152,300,l),
(178,134,o),
(343,-31,o),
(622,-32,cs),
(945,-31,o),
(1121,173,o),
(1120,384,cs),
(1121,694,o),
(778,743,o),
(730,766,cs),
(562,814,ls),
(468,844,o),
(222,912,o),
(222,1126,cs),
(220,1314,o),
(396,1453,o),
(638,1454,cs),
(848,1453,o),
(1029,1350,o),
(1054,1172,c)
);
}
);
};
layerId = "9C280ED6-539A-47A5-81A9-2BEBEE9FA0FB";
name = "Nov 25 18, 13:19";
shapes = (
{
closed = 0;
nodes = (
(1062,1120,l),
(1049,1305,o),
(876,1432,o),
(642,1432,cs),
(401,1432,o),
(223,1297,o),
(224,1100,cs),
(223,920,o),
(385,831,o),
(556,782,cs),
(724,736,ls),
(879,695,o),
(1081,622,o),
(1082,408,cs),
(1081,206,o),
(905,57,o),
(632,58,cs),
(382,57,o),
(204,180,o),
(190,386,c)
);
}
);
width = 1272;
},
{
anchors = (
{
name = bottom;
pos = (634,-44);
},
{
name = cedilla;
pos = (638,0);
},
{
name = top;
pos = (634,1730);
}
);
associatedMasterId = "B1F27B51-9973-4381-9301-4FE46FE1CA59";
background = {
shapes = (
{
closed = 1;
nodes = (
(1100,1172,l),
(1088,1357,o),
(892,1510,o),
(648,1510,cs),
(404,1510,o),
(195,1359,o),
(194,1128,cs),
(194,947,o),
(330,834,o),
(544,762,cs),
(748,698,ls),
(900,649,o),
(1089,585,o),
(1088,390,cs,{
name = hr00;
}),
(1089,172,o),
(879,31,o),
(626,32,cs),
(434,31,o),
(238,112,o),
(218,300,c),
(152,300,l),
(178,134,o),
(343,-31,o),
(622,-32,cs),
(945,-31,o),
(1121,173,o),
(1120,384,cs),
(1121,694,o),
(778,743,o),
(730,766,cs),
(562,814,ls),
(468,844,o),
(222,912,o),
(222,1126,cs),
(220,1314,o),
(396,1453,o),
(638,1454,cs),
(848,1453,o),
(1029,1350,o),
(1054,1172,c)
);
}
);
};
layerId = "48736875-43E9-423A-93EA-8ACE2815DF1A";
name = "Nov 25 18, 13:23";
shapes = (
{
closed = 0;
nodes = (
(1062,1118,l),
(1062,1152,l),
(1049,1351,o),
(876,1487,o),
(642,1486,cs),
(401,1487,o),
(223,1343,o),
(224,1132,cs),
(223,941,o),
(385,847,o),
(556,794,cs),
(724,744,ls),
(879,702,o),
(1081,624,o),
(1082,396,cs),
(1081,181,o),
(905,23,o),
(632,24,cs),
(382,23,o),
(204,153,o),
(190,372,c),
(190,384,l)
);
}
);
width = 1272;
},
{
anchors = (
{
name = bottom;
pos = (606,-26);
},
{
name = cedilla;
pos = (606,0);
},
{
name = top;
pos = (604,1676);
}
);
guides = (
{
pos = (-36,528);
},
{
orientation = center;
angle = 90;
pos = (-62,-72);
}
);
layerId = "C698F293-3EC0-4A5A-A3A0-0FDB1F5CF265";
shapes = (
{
closed = 1;
nodes = (
(947,-26,o),
(1142,163,o),
(1142,404,cs),
(1142,684,o),
(876,771,o),
(722,814,cs),
(572,856,ls),
(462,887,o),
(284,943,o),
(284,1102,cs),
(284,1245,o),
(415,1350,o),
(612,1350,cs),
(793,1350,o),
(929,1264,o),
(946,1118,c),
(1122,1118,l),
(1113,1342,o),
(906,1510,o),
(618,1510,cs),
(333,1510,o),
(110,1344,o),
(110,1094,cs),
(110,893,o),
(255,773,o),
(488,706,cs),
(670,654,ls),
(827,609,o),
(968,556,o),
(968,408,cs),
(968,244,o),
(810,136,o),
(604,136,cs),
(426,136,o),
(269,215,o),
(254,384,c),
(68,384,l),
(86,140,o),
(284,-26,o),
(604,-26,cs)
);
}
);
width = 1210;
},
{
anchors = (
{
name = bottom;
pos = (666,0);
},
{
name = cedilla;
pos = (662,0);
},
{
name = top;
pos = (660,1676);
}
);
guides = (
{
pos = (-132,764);
},
{
pos = (-132,1552);
},
{
orientation = center;
angle = 90;
pos = (-2298,-132);
}
);
layerId = "5C20EF92-B63D-42A8-8878-93C2863E0093";
shapes = (
{
closed = 1;
nodes = (
(1055,-18,o),
(1282,145,o),
(1282,440,cs),
(1282,666,o),
(1145,826,o),
(816,896,cs),
(694,922,ls),
(553,952,o),
(494,993,o),
(494,1064,cs),
(494,1130,o),
(549,1178,o),
(674,1178,cs),
(805,1178,o),
(867,1121,o),
(874,1024,c),
(1262,1024,l),
(1260,1316,o),
(1035,1510,o),
(674,1510,cs),
(320,1510,o),
(72,1319,o),
(72,1036,cs),
(72,803,o),
(233,672,o),
(496,616,cs),
(646,584,ls),
(811,549,o),
(870,507,o),
(870,440,cs,{
name = hr00;
}),
(870,366,o),
(801,314,o),
(672,314,cs),
(516,314,o),
(425,387,o),
(418,524,c),
(34,524,l),
(36,150,o),
(289,-18,o),
(678,-18,cs)
);
}
);
width = 1316;
}
);
note = "recipe: use stroke + offset curve filter with 32, no autostroke";
unicode = 83;
userData = {
com.typemytype.robofont.guideline.magnetic.yXeOBXqbc8 = 5;
"interface.width-adjustments" = (
-16
);
};
},
{
color = 6;
glyphname = Germandbls;
kernLeft = B;
kernRight = S;
lastChange = "2022-07-22 10:10:39 +0000";
layers = (
{
layerId = "C698F293-3EC0-4A5A-A3A0-0FDB1F5CF265";
shapes = (
{
closed = 1;
nodes = (
(312,0,l),
(312,990,ls),
(312,1175,o),
(371,1350,o),
(598,1350,cs),
(720,1350,o),
(799,1300,o),
(862,1256,c),
(566,852,l),
(566,696,l),
(712,696,ls),
(772,696,o),
(1032,695,o),
(1032,422,cs),
(1032,247,o),
(924,140,o),
(734,140,cs),
(639,140,o),
(566,166,o),
(510,190,c),
(452,30,l),
(548,-6,o),
(641,-20,o),
(732,-20,cs),
(1023,-20,o),
(1232,134,o),
(1232,418,cs),
(1232,675,o),
(1063,832,o),
(766,850,c),
(1098,1286,l),
(964,1408,o),
(807,1510,o),
(590,1510,cs),
(287,1510,o),
(132,1335,o),
(132,990,cs),
(132,0,l)
);
}
);
width = 1300;
},
{
guides = (
{
pos = (-136,2092);
}
);
layerId = "5C20EF92-B63D-42A8-8878-93C2863E0093";
shapes = (
{
closed = 1;
nodes = (
(476,0,l),
(476,974,ls),
(476,1116,o),
(540,1202,o),
(646,1202,cs),
(746,1202,o),
(849,1167,o),
(918,1112,c),
(662,864,l),
(662,654,l),
(794,654,ls),
(956,654,o),
(1056,573,o),
(1056,440,cs),
(1056,343,o),
(976,286,o),
(846,286,cs),
(783,286,o),
(700,303,o),
(628,332,c),
(522,46,l),
(613,7,o),
(762,-20,o),
(884,-20,cs),
(1206,-20,o),
(1434,170,o),
(1434,440,cs),
(1434,650,o),
(1278,830,o),
(1058,872,c),
(1390,1230,l),
(1169,1394,o),
(860,1510,o),
(646,1510,cs),
(309,1510,o),
(72,1288,o),
(72,974,cs),
(72,0,l)
);
}
);
width = 1468;
},
{
layerId = "B1F27B51-9973-4381-9301-4FE46FE1CA59";
shapes = (
{
closed = 1;
nodes = (
(280,0,l),
(280,1108,ls),
(280,1329,o),
(401,1464,o),
(602,1464,cs),
(716,1464,o),
(836,1417,o),
(932,1334,c),
(564,806,l),
(564,760,l),
(586,760,ls),
(898,760,o),
(1048,645,o),
(1048,408,cs),
(1048,188,o),
(900,46,o),
(672,46,cs),
(595,46,o),
(532,57,o),
(486,76,c),
(470,32,l),
(529,12,o),
(593,0,o),
(660,0,cs),
(928,0,o),
(1092,158,o),
(1092,414,cs),
(1092,665,o),
(925,801,o),
(618,802,c),
(990,1336,l),
(895,1444,o),
(752,1510,o),
(610,1510,cs),
(380,1510,o),
(232,1358,o),
(232,1120,cs),
(232,0,l)
);
}
);
width = 1250;
}
);
metricLeft = B;
metricRight = S;
tags = (
"TODO-opsz"
);
unicode = 7838;
userData = {
interface.gridadjust.original = "{'width': 1819, 'leftMargin': 188, 'rightMargin': 122}";
"interface.width-adjustments" = (
-16
);
};
},
{
color = 6;
glyphname = T;
kernLeft = T;
kernRight = T;
lastChange = "2022-07-22 10:10:39 +0000";
layers = (
{
anchors = (
{
name = bottom;
pos = (610,0);
},
{
name = cedilla;
pos = (632,0);
},
{
name = cross;
pos = (610,768);
},
{
name = cyrtic;
pos = (782,64);
},
{
name = right;
pos = (650,0);
},
{
name = top;
pos = (610,1676);
}
);
guides = (
{
orientation = center;
angle = 90;
pos = (-98,176);
}
);
layerId = "C698F293-3EC0-4A5A-A3A0-0FDB1F5CF265";
shapes = (
{
closed = 1;
nodes = (
(520,1330,l),
(520,0,l),
(700,0,l),
(700,1330,l),
(1168,1330,l),
(1168,1490,l),
(50,1490,l),
(50,1330,l)
);
}
);
width = 1218;
},
{
anchors = (
{
name = bottom;
pos = (678,0);
},
{
name = cedilla;
pos = (672,0);
},
{
name = cross;
pos = (678,666);
},
{
name = cyrtic;
pos = (1052,162);
},
{
name = right;
pos = (832,0);
},
{
name = top;
pos = (680,1676);
}
);
guides = (
{
orientation = center;
angle = 90;
pos = (-2603,956);
}
);
layerId = "5C20EF92-B63D-42A8-8878-93C2863E0093";
shapes = (
{
closed = 1;
nodes = (
(480,1164,l),
(480,0,l),
(878,0,l),
(878,1164,l),
(1326,1164,l),
(1326,1490,l),
(32,1490,l),
(32,1164,l)
);
}
);
width = 1358;
},
{
anchors = (
{
name = bottom;
pos = (628,0);
},
{
name = cedilla;
pos = (628,-6);
},
{
name = cross;
pos = (628,768);
},
{
name = cyrtic;
pos = (672,6);
},
{
name = right;
pos = (640,0);
},
{
name = top;
pos = (628,1676);
}
);
layerId = "B1F27B51-9973-4381-9301-4FE46FE1CA59";
shapes = (
{
closed = 1;
nodes = (
(606,1442,l),
(606,0,l),
(652,0,l),
(652,1442,l),
(1132,1442,l),
(1132,1490,l),
(126,1490,l),
(126,1442,l)
);
}
);
width = 1256;
}
);
unicode = 84;
userData = {
"interface.width-adjustments" = (
-16
);
};
},
{
color = 6;
glyphname = Thook;
kernLeft = T;
kernRight = T;
lastChange = "2022-07-22 10:10:39 +0000";
layers = (
{
background = {
shapes = (
{
pos = (112,0);
ref = T;
}
);
};
layerId = "C698F293-3EC0-4A5A-A3A0-0FDB1F5CF265";
shapes = (
{
closed = 1;
nodes = (
(348,1490,ls),
(164,1489,o),
(51,1370,o),
(50,1196,cs),
(50,1108,l),
(214,1108,l),
(214,1164,ls),
(214,1248,o),
(246,1329,o),
(348,1330,cs),
(690,1330,l),
(690,1490,l)
);
},
{
closed = 1;
nodes = (
(458,1490,l),
(458,1330,l),
(600,1330,l),
(600,0,l),
(782,0,l),
(782,1330,l),
(1250,1330,l),
(1250,1490,l)
);
}
);
width = 1300;
},
{
background = {
shapes = (
{
pos = (88,0);
ref = T;
}
);
};
layerId = "5C20EF92-B63D-42A8-8878-93C2863E0093";
shapes = (
{
closed = 1;
nodes = (
(514,1490,ls),
(196,1489,o),
(31,1324,o),
(32,1044,cs),
(32,864,l),
(358,864,l),
(358,972,ls),
(357,1065,o),
(382,1164,o),
(514,1164,cs),
(742,1164,l),
(742,1490,l)
);
},
{
closed = 1;
nodes = (
(532,1490,l),
(532,1164,l),
(544,1164,l),
(544,0,l),
(942,0,l),
(942,1164,l),
(1390,1164,l),
(1390,1490,l)
);
}
);
width = 1422;
},
{
layerId = "B1F27B51-9973-4381-9301-4FE46FE1CA59";
shapes = (
{
closed = 1;
nodes = (
(322,1490,ls),
(195,1489,o),
(126,1416,o),
(126,1280,cs),
(126,1228,l),
(172,1228,l),
(172,1254,ls),
(172,1391,o),
(215,1443,o),
(326,1442,cs),
(454,1442,l,{
name = hr00;
}),
(454,1490,l)
);
},
{
closed = 1;
nodes = (
(372,1490,l),
(372,1442,l),
(606,1442,l),
(606,0,l),
(652,0,l),
(652,1442,l),
(1132,1442,l),
(1132,1490,l)
);
}
);
width = 1256;
}
);
metricLeft = T;
metricRight = T;
note = "!post:RemoveOverlap";
tags = (
"TODO-opsz"
);
unicode = 428;
userData = {
interface.gridadjust.original = "{'width': 1772, 'leftMargin': 41, 'rightMargin': 63}";
"interface.width-adjustments" = (
-16
);
};
},
{
color = 3;
glyphname = Tonefive;
lastChange = "2022-07-22 10:10:39 +0000";
layers = (
{
layerId = "C698F293-3EC0-4A5A-A3A0-0FDB1F5CF265";
shapes = (
{
closed = 1;
nodes = (
(18,1490,l),
(18,1330,l),
(342,1330,l),
(342,1490,l,{
name = hr00;
})
);
},
{
ref = five;
}
);
width = 1126;
},
{
layerId = "5C20EF92-B63D-42A8-8878-93C2863E0093";
shapes = (
{
closed = 1;
nodes = (
(52,1490,l),
(52,1166,l),
(374,1166,l),
(374,1490,l)
);
},
{
pos = (58,0);
ref = five;
}
);
width = 1308;
},
{
layerId = "B1F27B51-9973-4381-9301-4FE46FE1CA59";
shapes = (
{
closed = 1;
nodes = (
(62,1490,l),
(62,1442,l),
(302,1442,l),
(302,1490,l)
);
},
{
alignment = -1;
pos = (-34,0);
ref = five;
}
);
width = 1142;
}
);
tags = (
"TODO-opsz"
);
unicode = 444;
userData = {
interface.gridadjust.original = "{'width': 1587, 'leftMargin': 89, 'rightMargin': 43}";
"interface.width-adjustments" = (
-16
);
};
},
{
color = 6;
glyphname = Tonesix;
lastChange = "2022-07-22 10:10:39 +0000";
layers = (
{
layerId = "C698F293-3EC0-4A5A-A3A0-0FDB1F5CF265";
shapes = (
{
closed = 1;
nodes = (
(-28,1490,l),
(-28,1330,l),
(502,1330,l),
(502,1490,l)
);
},
{
closed = 1;
nodes = (
(456,704,l),
(880,704,l),
(1084,704,o),
(1197,585,o),
(1198,442,c),
(1197,297,o),
(1084,157,o),
(880,158,c),
(502,158,l),
(502,1490,l),
(322,1490,l),
(322,0,l),
(880,0,l),
(1200,0,o),
(1375,180,o),
(1374,440,c),
(1375,698,o),
(1200,864,o),
(880,864,c),
(456,864,l)
);
}
);
width = 1368;
},
{
layerId = "5C20EF92-B63D-42A8-8878-93C2863E0093";
shapes = (
{
closed = 1;
nodes = (
(6,1490,l),
(6,1164,l),
(688,1164,l),
(688,1490,l)
);
},
{
closed = 1;
nodes = (
(618,680,l),
(928,680,l),
(1073,681,o),
(1151,605,o),
(1152,504,c),
(1151,396,o),
(1073,317,o),
(928,318,c),
(776,318,l),
(776,1490,l),
(372,1490,l),
(372,0,l),
(928,0,l),
(1303,0,o),
(1553,204,o),
(1552,500,c),
(1553,797,o),
(1303,989,o),
(928,990,c),
(618,990,l)
);
}
);
width = 1654;
},
{
layerId = "B1F27B51-9973-4381-9301-4FE46FE1CA59";
shapes = (
{
closed = 1;
nodes = (
(16,1490,l),
(16,1442,l),
(402,1442,l),
(402,1490,l)
);
},
{
closed = 1;
nodes = (
(382,730,l),
(914,730,ls),
(1137,730,o),
(1284,602,o),
(1282,408,cs),
(1282,180,o),
(1146,47,o),
(914,46,cs),
(402,46,l),
(402,1490,l),
(354,1490,l),
(354,0,l),
(914,0,ls),
(1170,0,o),
(1329,155,o),
(1330,404,cs),
(1329,631,o),
(1166,777,o),
(914,776,cs),
(382,776,l)
);
}
);
width = 1290;
}
);
tags = (
"TODO-opsz"
);
unicode = 388;
userData = {
interface.gridadjust.original = "{'width': 1917, 'leftMargin': 136, 'rightMargin': 157}";
"interface.width-adjustments" = (
-16
);
};
},
{
color = 6;
glyphname = Tonetwo;
kernLeft = S;
kernRight = B;
lastChange = "2022-07-22 10:10:39 +0000";
layers = (
{
anchors = (
{
name = bottom;
pos = (604,-26);
},
{
name = cedilla;
pos = (604,0);
},
{
name = top;
pos = (606,1676);
}
);
layerId = "C698F293-3EC0-4A5A-A3A0-0FDB1F5CF265";
shapes = (
{
closed = 1;
nodes = (
(281,1264,o),
(417,1350,o),
(598,1350,cs),
(796,1350,o),
(927,1245,o),
(926,1102,cs),
(927,943,o),
(749,884,o),
(638,856,cs),
(488,814,ls),
(333,774,o),
(68,684,o),
(68,404,cs),
(68,163,o),
(263,-26,o),
(606,-26,cs),
(927,-26,o),
(1124,140,o),
(1142,384,c),
(956,384,l),
(941,215,o),
(784,137,o),
(606,136,cs),
(400,137,o),
(243,244,o),
(242,408,cs),
(243,556,o),
(383,611,o),
(540,654,cs),
(722,706,ls),
(956,774,o),
(1101,893,o),
(1102,1094,cs),
(1101,1344,o),
(877,1510,o),
(592,1510,cs),
(304,1510,o),
(97,1342,o),
(88,1118,c),
(264,1118,l)
);
}
);
width = 1210;
},
{
anchors = (
{
name = bottom;
pos = (650,0);
},
{
name = cedilla;
pos = (654,0);
},
{
name = top;
pos = (656,1676);
}
);
layerId = "5C20EF92-B63D-42A8-8878-93C2863E0093";
shapes = (
{
closed = 1;
nodes = (
(449,1121,o),
(511,1178,o),
(642,1178,cs),
(767,1178,o),
(822,1130,o),
(822,1064,cs),
(826,993,o),
(763,952,o),
(622,922,cs),
(500,896,ls),
(171,825,o),
(36,666,o),
(34,440,cs),
(36,145,o),
(262,-17,o),
(640,-18,cs),
(1028,-17,o),
(1281,150,o),
(1282,524,c),
(898,524,l),
(892,387,o),
(800,314,o),
(646,314,cs),
(516,314,o),
(449,366,o),
(448,440,cs,{
name = hr00;
}),
(449,507,o),
(505,548,o),
(672,584,cs),
(820,616,ls),
(1084,673,o),
(1245,803,o),
(1244,1036,cs),
(1247,1319,o),
(996,1510,o),
(642,1510,cs),
(281,1510,o),
(56,1316,o),
(54,1024,c),
(442,1024,l)
);
}
);
width = 1316;
},
{
anchors = (
{
name = bottom;
pos = (626,-24);
},
{
name = cedilla;
pos = (626,0);
},
{
name = top;
pos = (626,1676);
}
);
layerId = "B1F27B51-9973-4381-9301-4FE46FE1CA59";
shapes = (
{
closed = 1;
nodes = (
(239,1321,o),
(389,1466,o),
(620,1466,cs),
(847,1466,o),
(1015,1324,o),
(1016,1128,cs),
(1015,977,o),
(915,874,o),
(702,808,cs),
(532,756,ls),
(275,677,o),
(157,561,o),
(158,378,cs),
(157,145,o),
(349,-23,o),
(632,-24,cs),
(903,-23,o),
(1082,130,o),
(1096,350,c),
(1050,350,l),
(1036,156,o),
(877,23,o),
(632,24,cs),
(375,23,o),
(204,167,o),
(204,378,cs),
(204,538,o),
(303,635,o),
(544,710,cs),
(712,762,ls),
(947,836,o),
(1062,956,o),
(1062,1128,cs),
(1062,1348,o),
(874,1513,o),
(620,1512,cs),
(364,1513,o),
(192,1347,o),
(178,1118,c),
(224,1118,l)
);
}
);
width = 1254;
}
);
metricLeft = S;
metricRight = S;
tags = (
"TODO-opsz"
);
unicode = 423;
userData = {
interface.gridadjust.original = "{'width': 1672.0, 'leftMargin': 105, 'rightMargin': 109.0}";
"interface.width-adjustments" = (
-16
);
};
},
{
color = 3;
glyphname = Trthook;
kernLeft = T;
kernRight = T;
lastChange = "2022-07-22 10:10:39 +0000";
layers = (
{
layerId = "C698F293-3EC0-4A5A-A3A0-0FDB1F5CF265";
shapes = (
{
closed = 1;
nodes = (
(520,0,l),
(520,-122,ls),
(519,-314,o),
(668,-419,o),
(830,-418,c),
(930,-418,l),
(930,-258,l),
(874,-258,l),
(781,-259,o),
(700,-236,o),
(700,-120,cs),
(700,0,l)
);
},
{
ref = T;
}
);
width = 1218;
},
{
layerId = "5C20EF92-B63D-42A8-8878-93C2863E0093";
shapes = (
{
closed = 1;
nodes = (
(480,0,l),
(480,-32,ls),
(479,-384,o),
(705,-419,o),
(918,-418,c),
(1094,-418,l),
(1094,-120,l),
(1026,-120,l),
(955,-119,o),
(878,-102,o),
(878,-34,cs),
(878,0,l)
);
},
{
ref = T;
}
);
width = 1358;
},
{
layerId = "B1F27B51-9973-4381-9301-4FE46FE1CA59";
shapes = (
{
closed = 1;
nodes = (
(606,0,l),
(606,-168,ls),
(605,-330,o),
(676,-416,o),
(802,-416,c),
(852,-416,l),
(852,-370,l),
(808,-370,l),
(704,-369,o),
(652,-305,o),
(652,-168,cs),
(652,0,l)
);
},
{
alignment = -1;
ref = T;
}
);
width = 1256;
}
);
metricLeft = T;
metricRight = T;
tags = (
"TODO-opsz"
);
unicode = 430;
userData = {
interface.gridadjust.original = "{'width': 1680, 'leftMargin': 67, 'rightMargin': 63}";
"interface.width-adjustments" = (
-16
);
};
},
{
color = 6;
glyphname = U;
kernLeft = U;
kernRight = J;
lastChange = "2022-07-22 10:10:39 +0000";
layers = (
{
anchors = (
{
name = bottom;
pos = (712,-20);
},
{
name = ogonek;
pos = (854,2);
},
{
name = right;
pos = (796,0);
},
{
name = rtophorn;
pos = (1110,1490);
},
{
name = top;
pos = (712,1676);
}
);
guides = (
{
orientation = center;
angle = 90;
pos = (-530,2084);
}
);
layerId = "C698F293-3EC0-4A5A-A3A0-0FDB1F5CF265";
shapes = (
{
closed = 1;
nodes = (
(1110,518,ls),
(1110,300,o),
(960,142,o),
(712,142,cs),
(463,142,o),
(312,300,o),
(312,518,cs),
(312,1490,l),
(132,1490,l),
(132,504,ls),
(132,198,o),
(361,-26,o),
(712,-26,cs),
(1062,-26,o),
(1290,198,o),
(1290,504,cs),
(1290,1490,l),
(1110,1490,l)
);
}
);
width = 1422;
},
{
anchors = (
{
name = bottom;
pos = (714,8);
},
{
name = ogonek;
pos = (936,0);
},
{
name = right;
pos = (842,0);
},
{
name = rtophorn;
pos = (954,1490);
},
{
name = top;
pos = (714,1676);
}
);
layerId = "5C20EF92-B63D-42A8-8878-93C2863E0093";
shapes = (
{
closed = 1;
nodes = (
(954,570,ls),
(954,431,o),
(854,332,o),
(714,332,cs),
(576,332,o),
(476,431,o),
(476,570,cs),
(476,1490,l),
(72,1490,l),
(72,536,ls),
(72,195,o),
(329,-18,o),
(714,-18,cs),
(1097,-18,o),
(1358,195,o),
(1358,536,cs),
(1358,1490,l),
(954,1490,l)
);
}
);
width = 1430;
},
{
anchors = (
{
name = bottom;
pos = (768,-24);
},
{
name = ogonek;
pos = (830,0);
},
{
name = right;
pos = (830,0);
},
{
name = rtophorn;
pos = (1256,1490);
},
{
name = top;
pos = (768,1676);
}
);
layerId = "B1F27B51-9973-4381-9301-4FE46FE1CA59";
shapes = (
{
closed = 1;
nodes = (
(1256,504,ls),
(1256,228,o),
(1049,24,o),
(768,24,cs),
(487,24,o),
(280,228,o),
(280,504,cs),
(280,1490,l),
(232,1490,l),
(232,504,ls),
(232,202,o),
(463,-24,o),
(768,-24,cs),
(1074,-24,o),
(1304,201,o),
(1304,504,cs),
(1304,1490,l),
(1256,1490,l)
);
}
);
width = 1536;
}
);
metricLeft = H;
metricRight = H;
unicode = 85;
userData = {
com.typemytype.robofont.guideline.magnetic.icXM2D4lH7 = 5;
"interface.width-adjustments" = (
-16
);
};
},
{
color = 6;
glyphname = Upsilon2;
lastChange = "2022-07-22 10:10:39 +0000";
layers = (
{
layerId = "C698F293-3EC0-4A5A-A3A0-0FDB1F5CF265";
shapes = (
{
closed = 1;
nodes = (
(74,279,o),
(348,-20,o),
(732,-20,cs),
(1116,-20,o),
(1389,279,o),
(1390,704,cs),
(1389,986,o),
(1270,1196,o),
(1078,1318,c),
(1078,1330,l),
(1390,1330,l),
(1390,1490,l),
(860,1490,l),
(860,1286,l),
(1052,1204,o),
(1215,983,o),
(1214,704,cs),
(1215,393,o),
(1014,148,o),
(732,148,cs),
(449,148,o),
(249,393,o),
(248,704,cs),
(249,983,o),
(412,1204,o),
(604,1286,c),
(604,1490,l),
(74,1490,l),
(74,1330,l),
(386,1330,l),
(386,1318,l),
(193,1193,o),
(74,986,o),
(74,704,cs)
);
}
);
width = 1464;
},
{
layerId = "5C20EF92-B63D-42A8-8878-93C2863E0093";
shapes = (
{
closed = 1;
nodes = (
(49,265,o),
(354,-20,o),
(784,-20,cs),
(1215,-20,o),
(1521,265,o),
(1520,666,c),
(1521,893,o),
(1422,1053,o),
(1264,1152,c),
(1264,1164,l),
(1520,1164,l),
(1520,1490,l),
(890,1490,l),
(890,1082,l),
(1023,1030,o),
(1108,881,o),
(1108,706,cs),
(1108,489,o),
(974,335,o),
(784,334,cs),
(596,335,o),
(462,489,o),
(462,706,c),
(462,881,o),
(546,1030,o),
(680,1082,c),
(680,1490,l),
(48,1490,l),
(48,1164,l),
(304,1164,l),
(304,1152,l),
(148,1053,o),
(49,893,o),
(48,666,cs)
);
}
);
width = 1570;
},
{
layerId = "B1F27B51-9973-4381-9301-4FE46FE1CA59";
shapes = (
{
closed = 1;
nodes = (
(151,297,o),
(412,-20,o),
(762,-20,cs),
(1114,-20,o),
(1374,295,o),
(1374,728,cs),
(1372,1044,o),
(1242,1283,o),
(952,1432,c),
(952,1442,l),
(1374,1442,l),
(1374,1490,l),
(904,1490,l),
(904,1422,l),
(1142,1297,o),
(1328,1087,o),
(1326,730,cs),
(1325,335,o),
(1100,28,o),
(762,26,cs),
(426,25,o),
(196,335,o),
(198,730,cs),
(199,1089,o),
(381,1296,o),
(620,1422,c),
(620,1490,l),
(152,1490,l),
(152,1442,l),
(574,1442,l),
(574,1432,l),
(284,1283,o),
(152,1042,o),
(152,728,cs)
);
}
);
width = 1524;
}
);
tags = (
"TODO-opsz"
);
unicode = 433;
userData = {
interface.gridadjust.original = "{'width': 1871, 'leftMargin': 164, 'rightMargin': 163}";
"interface.width-adjustments" = (
-16
);
};
},
{
color = 10;
glyphname = Utildeacute;
kernLeft = U;
kernRight = J;
lastChange = "2022-07-22 10:10:39 +0000";
layers = (
{
background = {
shapes = (
{
closed = 1;
nodes = (
(366,1490,l),
(186,1490,l),
(186,544,ls),
(186,235,o),
(400,12,o),
(760,12,cs),
(1116,11,o),
(1332,235,o),
(1332,544,cs),
(1332,1490,l),
(1152,1490,l),
(1152,556,ls),
(1152,337,o),
(1008,179,o),
(760,180,cs),
(508,182,o),
(367,337,o),
(366,556,cs)
);
},
{
closed = 1;
nodes = (
(1032,1625,o),
(1124,1729,o),
(1122,1862,c),
(990,1862,l),
(983,1785,o),
(942,1751,o),
(894,1752,cs),
(786,1751,o),
(788,1879,o),
(620,1880,cs),
(484,1879,o),
(392,1780,o),
(392,1638,c),
(530,1638,l),
(532,1711,o),
(565,1750,o),
(622,1752,cs),
(730,1754,o),
(728,1621,o),
(898,1624,cs)
);
},
{
closed = 1;
nodes = (
(734,1920,l),
(922,1920,l),
(1170,2142,l),
(952,2142,l)
);
}
);
};
layerId = "C698F293-3EC0-4A5A-A3A0-0FDB1F5CF265";
shapes = (
{
ref = U;
},
{
pos = (1118,0);
ref = tildeacutecomb.uc;
}
);
width = 1422;
},
{
background = {
shapes = (
{
closed = 1;
nodes = (
(530,1490,l),
(108,1490,l),
(108,562,ls),
(108,231,o),
(361,22,o),
(742,20,cs),
(1123,19,o),
(1379,231,o),
(1378,562,cs),
(1378,1490,l),
(954,1490,l),
(954,608,ls),
(954,455,o),
(879,372,o),
(742,372,cs),
(605,372,o),
(529,455,o),
(530,608,cs)
);
},
{
closed = 1;
nodes = (
(1024,1583,o),
(1137,1694,o),
(1138,1882,c),
(936,1882,l),
(933,1819,o),
(913,1775,o),
(866,1774,cs),
(798,1775,o),
(742,1895,o),
(596,1896,cs),
(460,1898,o),
(347,1790,o),
(346,1602,c),
(546,1602,l),
(551,1655,o),
(571,1703,o),
(616,1704,cs),
(686,1707,o),
(742,1583,o),
(888,1582,cs)
);
},
{
closed = 1;
nodes = (
(588,1972,l),
(872,1972,l),
(1112,2252,l),
(788,2252,l)
);
}
);
};
layerId = "5C20EF92-B63D-42A8-8878-93C2863E0093";
shapes = (
{
ref = U;
},
{
pos = (1134,0);
ref = tildeacutecomb.uc;
}
);
width = 1430;
},
{
layerId = "B1F27B51-9973-4381-9301-4FE46FE1CA59";
shapes = (
{
ref = U;
},
{
pos = (1140,0);
ref = tildeacutecomb.uc;
}
);
width = 1536;
}
);
unicode = 7800;
},
{
color = 6;
glyphname = V;
kernLeft = V;
kernRight = V;
lastChange = "2022-07-22 10:10:39 +0000";
layers = (
{
anchors = (
{
name = bottom;
pos = (644,0);
},
{
name = top;
pos = (644,1676);
}
);
guides = (
{
orientation = center;
angle = 90;
pos = (-488,476);
},
{
angle = 90;
pos = (216,2088);
},
{
angle = 90;
pos = (1456,2196);
}
);
layerId = "C698F293-3EC0-4A5A-A3A0-0FDB1F5CF265";
shapes = (
{
closed = 1;
nodes = (
(4,1490,l),
(552,0,l),
(738,0,l),
(1284,1490,l),
(1096,1490,l),
(654,236,l),
(636,236,l),
(194,1490,l)
);
}
);
width = 1288;
},
{
anchors = (
{
name = bottom;
pos = (790,0);
},
{
name = top;
pos = (790,1676);
}
);
guides = (
{
orientation = center;
angle = 90;
pos = (-3090,1048);
}
);
layerId = "5C20EF92-B63D-42A8-8878-93C2863E0093";
shapes = (
{
closed = 1;
nodes = (
(22,1490,l),
(514,0,l),
(1066,0,l),
(1558,1490,l),
(1102,1490,l),
(796,440,l),
(784,440,l),
(480,1490,l)
);
}
);
width = 1580;
},
{
anchors = (
{
name = bottom;
pos = (812,0);
},
{
name = top;
pos = (812,1586);
}
);
associatedMasterId = "5C20EF92-B63D-42A8-8878-93C2863E0093";
guides = (
{
orientation = center;
angle = 90;
pos = (1040,1048);
}
);
layerId = "B0E2023B-B6D1-4711-B977-6B7F091C03CB";
name = "Oct 2 18, 14:43";
shapes = (
{
closed = 1;
nodes = (
(46,1490,l),
(552,0,l),
(1070,0,l),
(1576,1490,l),
(1128,1490,l),
(820,498,l),
(802,498,l),
(494,1490,l)
);
}
);
width = 1624;
},
{
anchors = (
{
name = bottom;
pos = (632,0);
},
{
name = top;
pos = (632,1676);
}
);
layerId = "B1F27B51-9973-4381-9301-4FE46FE1CA59";
shapes = (
{
closed = 1;
nodes = (
(66,1490,l),
(600,0,l),
(664,0,l),
(1196,1490,l),
(1146,1490,l),
(634,58,l),
(628,58,l),
(116,1490,l)
);
}
);
width = 1262;
}
);
metricLeft = A;
metricRight = A;
unicode = 86;
userData = {
com.typemytype.robofont.guideline.magnetic.IJvllllLzF = 5;
com.typemytype.robofont.guideline.magnetic.KeOP4W9VuQ = 5;
com.typemytype.robofont.guideline.magnetic.yHrbtxZ5FX = 5;
"interface.width-adjustments" = (
-16
);
};
},
{
color = 6;
glyphname = Gamma1;
kernLeft = V;
kernRight = V;
lastChange = "2022-07-22 10:10:39 +0000";
layers = (
{
layerId = "C698F293-3EC0-4A5A-A3A0-0FDB1F5CF265";
shapes = (
{
closed = 1;
nodes = (
(568,114,ls),
(644,-61,o),
(685,-140,o),
(686,-198,cs),
(685,-241,o),
(650,-279,o),
(598,-280,cs),
(545,-279,o),
(511,-244,o),
(510,-198,cs),
(511,-140,o),
(557,-55,o),
(630,114,cs),
(1224,1490,l),
(1028,1490,l),
(514,282,ls),
(400,15,o),
(327,-99,o),
(328,-198,cs),
(327,-355,o),
(429,-442,o),
(598,-442,cs),
(767,-442,o),
(868,-355,o),
(868,-198,cs),
(868,-105,o),
(790,15,o),
(676,282,cs),
(168,1490,l),
(-28,1490,l)
);
}
);
width = 1196;
},
{
background = {
shapes = (
{
closed = 1;
nodes = (
(802,126,ls),
(861,12,o),
(881,-49,o),
(882,-108,cs),
(881,-143,o),
(884,-180,o),
(840,-180,cs),
(800,-180,o),
(800,-148,o),
(800,-108,cs),
(800,-44,o),
(826,15,o),
(882,126,cs),
(1554,1446,l),
(1086,1446,l),
(738,642,ls),
(599,320,o),
(401,-29,o),
(402,-126,cs),
(401,-358,o),
(623,-436,o),
(840,-436,cs),
(1059,-436,o),
(1265,-358,o),
(1266,-126,cs),
(1265,-26,o),
(1088,326,o),
(948,642,cs),
(594,1446,l),
(128,1446,l)
);
}
);
};
layerId = "5C20EF92-B63D-42A8-8878-93C2863E0093";
shapes = (
{
closed = 1;
nodes = (
(778,168,ls),
(826,79,o),
(857,-36,o),
(858,-116,cs),
(857,-165,o),
(845,-186,o),
(816,-186,cs),
(788,-186,o),
(776,-164,o),
(776,-118,cs),
(776,-38,o),
(807,74,o),
(858,168,cs),
(1558,1490,l),
(1090,1490,l),
(714,688,ls),
(414,46,o),
(377,-55,o),
(378,-140,cs),
(377,-327,o),
(557,-442,o),
(816,-442,cs),
(1071,-442,o),
(1241,-315,o),
(1242,-152,cs),
(1241,-28,o),
(1135,245,o),
(924,686,cs),
(540,1490,l),
(74,1490,l)
);
}
);
width = 1634;
},
{
layerId = "B1F27B51-9973-4381-9301-4FE46FE1CA59";
shapes = (
{
closed = 1;
nodes = (
(512,110,ls),
(623,-167,o),
(652,-253,o),
(652,-294,cs),
(651,-351,o),
(601,-396,o),
(530,-396,cs),
(455,-396,o),
(406,-351,o),
(406,-294,cs),
(406,-253,o),
(439,-164,o),
(542,92,cs),
(1106,1490,l),
(1054,1490,l),
(474,50,ls),
(378,-188,o),
(359,-244,o),
(360,-288,cs),
(359,-374,o),
(425,-442,o),
(530,-442,cs),
(633,-442,o),
(698,-374,o),
(698,-288,cs),
(698,-244,o),
(675,-172,o),
(578,72,cs),
(8,1490,l),
(-44,1490,l)
);
}
);
width = 1058;
}
);
tags = (
"TODO-opsz"
);
unicode = 404;
userData = {
interface.gridadjust.original = "{'width': 1778, 'leftMargin': 28, 'rightMargin': 28}";
"interface.width-adjustments" = (
-16
);
};
},
{
color = 6;
glyphname = Vcursive;
lastChange = "2022-07-22 10:10:39 +0000";
layers = (
{
background = {
shapes = (
{
closed = 1;
nodes = (
(928,-20,o),
(1178,143,o),
(1178,472,cs),
(1178,1128,ls),
(1178,1353,o),
(1044,1478,o),
(852,1478,cs),
(820,1478,o),
(768,1469,o),
(738,1460,c),
(738,1300,l),
(756,1306,o),
(785,1306,o),
(802,1306,cs),
(911,1306,o),
(969,1260,o),
(968,1128,cs),
(968,472,ls),
(969,247,o),
(841,145,o),
(646,146,cs),
(451,145,o),
(323,247,o),
(322,472,cs),
(322,1458,l),
(116,1458,l),
(116,472,ls),
(116,143,o),
(346,-20,o),
(646,-20,cs)
);
}
);
};
layerId = "C698F293-3EC0-4A5A-A3A0-0FDB1F5CF265";
shapes = (
{
closed = 1;
nodes = (
(880,-20,o),
(1130,143,o),
(1130,472,cs),
(1130,1160,ls),
(1130,1385,o),
(992,1510,o),
(814,1510,cs),
(768,1510,o),
(720,1501,o),
(690,1492,c),
(690,1332,l),
(708,1337,o),
(740,1338,o),
(758,1338,cs),
(861,1338,o),
(921,1292,o),
(920,1160,cs),
(920,472,ls),
(921,247,o),
(793,145,o),
(598,146,cs),
(403,145,o),
(275,247,o),
(274,472,cs),
(274,1490,l),
(68,1490,l),
(68,472,ls),
(68,143,o),
(298,-20,o),
(598,-20,cs)
);
}
);
width = 1196;
},
{
background = {
shapes = (
{
closed = 1;
nodes = (
(1086,-20,o),
(1321,177,o),
(1320,520,cs),
(1320,1024,ls),
(1321,1315,o),
(1156,1475,o),
(876,1474,cs),
(804,1475,o),
(763,1472,o),
(702,1458,c),
(702,1146,l),
(743,1152,o),
(775,1155,o),
(806,1154,cs),
(905,1155,o),
(926,1126,o),
(926,1024,cs),
(926,520,ls),
(926,378,o),
(873,291,o),
(712,290,cs),
(551,291,o),
(492,378,o),
(492,520,cs),
(492,1458,l),
(102,1458,l),
(102,520,ls),
(103,175,o),
(350,-20,o),
(712,-20,cs)
);
}
);
};
layerId = "5C20EF92-B63D-42A8-8878-93C2863E0093";
shapes = (
{
closed = 1;
nodes = (
(1062,-20,o),
(1297,177,o),
(1296,520,cs),
(1296,1058,ls),
(1297,1350,o),
(1136,1510,o),
(842,1510,cs),
(784,1510,o),
(739,1505,o),
(678,1492,c),
(678,1182,l),
(719,1187,o),
(751,1190,o),
(782,1190,cs),
(881,1190,o),
(901,1161,o),
(902,1058,cs),
(902,520,ls),
(901,378,o),
(849,291,o),
(688,290,cs),
(527,291,o),
(468,378,o),
(468,520,cs),
(468,1490,l),
(78,1490,l),
(78,520,ls),
(78,175,o),
(326,-20,o),
(688,-20,cs)
);
}
);
width = 1372;
},
{
background = {
shapes = (
{
closed = 1;
nodes = (
(896,-23,o),
(1092,159,o),
(1092,474,cs),
(1092,1232,ls),
(1092,1396,o),
(1024,1479,o),
(882,1480,cs),
(852,1479,o),
(825,1476,o),
(796,1466,c),
(796,1420,l),
(826,1430,o),
(848,1433,o),
(878,1432,cs),
(998,1433,o),
(1046,1373,o),
(1046,1232,cs),
(1046,474,ls),
(1046,185,o),
(870,23,o),
(600,24,cs),
(337,23,o),
(170,180,o),
(170,474,cs),
(170,1456,l),
(124,1456,l),
(124,474,ls),
(124,154,o),
(311,-23,o),
(600,-24,cs)
);
}
);
};
layerId = "B1F27B51-9973-4381-9301-4FE46FE1CA59";
shapes = (
{
closed = 1;
nodes = (
(896,-23,o),
(1092,159,o),
(1092,474,cs),
(1092,1262,ls),
(1092,1427,o),
(1024,1510,o),
(882,1510,cs),
(852,1510,o),
(825,1506,o),
(796,1496,c),
(796,1450,l),
(826,1460,o),
(848,1463,o),
(878,1464,cs),
(998,1463,o),
(1046,1404,o),
(1046,1262,cs),
(1046,474,ls),
(1046,185,o),
(870,23,o),
(600,24,cs),
(337,23,o),
(170,180,o),
(170,474,cs),
(170,1490,l),
(124,1490,l),
(124,474,ls),
(124,154,o),
(311,-23,o),
(600,-24,cs)
);
}
);
width = 1216;
}
);
tags = (
"TODO-opsz"
);
unicode = 434;
userData = {
interface.gridadjust.original = "{'width': 1830, 'leftMargin': 186, 'rightMargin': 185}";
"interface.width-adjustments" = (
-16
);
};
},
{
color = 6;
glyphname = W;
kernLeft = W;
kernRight = W;
lastChange = "2022-07-22 10:10:39 +0000";
layers = (
{
anchors = (
{
name = bottom;
pos = (931,12);
},
{
name = top;
pos = (931,1676);
}
);
guides = (
{
pos = (1039,360);
},
{
orientation = center;
angle = 90;
pos = (-1581,2096);
},
{
angle = 90;
pos = (651,332);
},
{
angle = 90;
pos = (1827,356);
}
);
layerId = "C698F293-3EC0-4A5A-A3A0-0FDB1F5CF265";
metricLeft = "=A*0.84";
metricRight = "=A*0.84";
shapes = (
{
closed = 1;
nodes = (
(597,0,l),
(925,1186,l),
(937,1186,l),
(1265,0,l),
(1451,0,l),
(1859,1490,l),
(1675,1490,l),
(1365,276,l),
(1349,276,l),
(1033,1490,l),
(829,1490,l),
(511,276,l),
(497,276,l),
(185,1490,l),
(3,1490,l),
(409,0,l)
);
}
);
width = 1862;
},
{
anchors = (
{
name = bottom;
pos = (1092,0);
},
{
name = top;
pos = (1092,1676);
}
);
guides = (
{
orientation = center;
angle = 90;
pos = (-5332,2076);
}
);
layerId = "5C20EF92-B63D-42A8-8878-93C2863E0093";
metricLeft = "=A-16";
metricRight = "=A-16";
shapes = (
{
closed = 1;
nodes = (
(834,0,l),
(1086,832,l),
(1098,832,l),
(1350,0,l),
(1738,0,l),
(2178,1490,l),
(1726,1490,l),
(1522,570,l),
(1510,570,l),
(1270,1490,l),
(914,1490,l),
(674,574,l),
(662,574,l),
(458,1490,l),
(6,1490,l),
(446,0,l)
);
}
);
width = 2184;
},
{
anchors = (
{
name = bottom;
pos = (910,12);
},
{
name = top;
pos = (910,1676);
}
);
layerId = "B1F27B51-9973-4381-9301-4FE46FE1CA59";
metricLeft = "=A-12";
metricRight = "=A-12";
shapes = (
{
closed = 1;
nodes = (
(528,0,l),
(906,1416,l),
(912,1416,l),
(1290,0,l),
(1354,0,l),
(1764,1490,l),
(1716,1490,l),
(1326,72,l),
(1320,72,l),
(942,1490,l),
(878,1490,l),
(500,72,l),
(494,72,l),
(104,1490,l),
(54,1490,l),
(464,0,l)
);
}
);
width = 1818;
},
{
anchors = (
{
name = bottom;
pos = (884,20);
},
{
name = top;
pos = (884,1730);
}
);
associatedMasterId = "B1F27B51-9973-4381-9301-4FE46FE1CA59";
background = {
shapes = (
{
closed = 1;
nodes = (
(504,0,l),
(878,1400,l),
(890,1400,l),
(1262,0,l),
(1330,0,l),
(1716,1490,l),
(1694,1490,l),
(1318,102,l),
(1304,102,l),
(940,1490,l),
(826,1490,l),
(466,98,l),
(448,98,l),
(72,1490,l),
(50,1490,l),
(436,0,l)
);
}
);
};
layerId = "11917E52-1163-4D25-A7C8-D834BC2206AE";
name = "Nov 25 18, 14:25";
shapes = (
{
closed = 1;
nodes = (
(46,1490,l),
(456,0,l),
(520,0,l),
(914,1490,l),
(864,1490,l),
(492,72,l),
(486,72,l),
(94,1490,l)
);
},
{
closed = 1;
nodes = (
(1320,72,l),
(1314,72,l),
(942,1490,l),
(894,1490,l),
(1286,0,l),
(1350,0,l),
(1760,1490,l),
(1714,1490,l)
);
}
);
width = 1768;
}
);
unicode = 87;
userData = {
com.typemytype.robofont.guideline.magnetic.8gZT6dIVxI = 5;
com.typemytype.robofont.guideline.magnetic.ZoWqubfLj9 = 5;
com.typemytype.robofont.guideline.magnetic.k6chDe7LUI = 5;
com.typemytype.robofont.guideline.magnetic.tUpIEqa0MC = 5;
"interface.width-adjustments" = (
-16
);
};
},
{
color = 6;
glyphname = X;
kernLeft = X;
kernRight = X;
lastChange = "2022-07-22 10:10:39 +0000";
layers = (
{
anchors = (
{
name = bottom;
pos = (610,12);
},
{
name = cross;
pos = (610,744);
},
{
name = cyrtic;
pos = (1180,64);
},
{
name = right;
pos = (1080,0);
},
{
name = top;
pos = (610,1676);
}
);
guides = (
{
angle = 90;
pos = (1628,2180);
},
{
orientation = center;
angle = 90;
pos = (-466,1372);
},
{
angle = 90;
pos = (-28,2060);
},
{
orientation = center;
pos = (-10,1024);
}
);
layerId = "C698F293-3EC0-4A5A-A3A0-0FDB1F5CF265";
shapes = (
{
closed = 1;
nodes = (
(8,1490,l),
(488,744,l),
(8,0,l),
(220,0,l),
(604,608,l),
(616,608,l),
(1000,0,l),
(1212,0,l),
(744,744,l),
(1212,1490,l),
(1000,1490,l),
(616,870,l),
(604,870,l),
(220,1490,l)
);
}
);
width = 1218;
},
{
anchors = (
{
name = bottom;
pos = (756,-6);
},
{
name = cross;
pos = (756,744);
},
{
name = cyrtic;
pos = (1402,162);
},
{
name = right;
pos = (1268,0);
},
{
name = top;
pos = (756,1676);
}
);
guides = (
{
orientation = center;
angle = 90;
pos = (-2969,2152);
},
{
angle = 90;
pos = (-48,2084);
},
{
angle = 90;
pos = (1752,2080);
},
{
orientation = center;
pos = (-2809,1024);
}
);
layerId = "5C20EF92-B63D-42A8-8878-93C2863E0093";
shapes = (
{
closed = 1;
nodes = (
(52,1490,l),
(494,744,l),
(38,0,l),
(496,0,l),
(750,442,l),
(762,442,l),
(1014,0,l),
(1478,0,l),
(1014,744,l),
(1460,1490,l),
(1008,1490,l),
(762,1056,l),
(750,1056,l),
(506,1490,l)
);
}
);
width = 1514;
},
{
anchors = (
{
name = bottom;
pos = (600,12);
},
{
name = cross;
pos = (600,744);
},
{
name = cyrtic;
pos = (1126,6);
},
{
name = right;
pos = (1080,0);
},
{
name = top;
pos = (600,1676);
}
);
layerId = "B1F27B51-9973-4381-9301-4FE46FE1CA59";
shapes = (
{
closed = 1;
nodes = (
(70,1490,l),
(570,744,l),
(70,0,l),
(128,0,l),
(596,702,l),
(602,702,l),
(1070,0,l),
(1128,0,l),
(628,744,l),
(1128,1490,l),
(1070,1490,l),
(602,788,l),
(596,788,l),
(128,1490,l)
);
}
);
width = 1198;
},
{
anchors = (
{
name = bottom;
pos = (584,24);
},
{
name = cross;
pos = (582,744);
},
{
name = cyrtic;
pos = (1108,6);
},
{
name = right;
pos = (1032,0);
},
{
name = top;
pos = (584,1730);
}
);
associatedMasterId = "B1F27B51-9973-4381-9301-4FE46FE1CA59";
background = {
shapes = (
{
closed = 1;
nodes = (
(44,1490,l),
(546,744,l),
(52,0,l),
(116,0,l),
(578,706,l),
(590,706,l),
(1054,0,l),
(1114,0,l),
(642,744,l),
(1126,1490,l),
(1056,1490,l),
(590,760,l),
(578,760,l),
(110,1490,l)
);
}
);
};
layerId = "E8D82951-B715-498B-B293-BF1B194F0E0C";
name = "Nov 25 18, 14:33";
shapes = (
{
closed = 0;
nodes = (
(64,1516,l),
(1100,-26,l)
);
},
{
closed = 0;
nodes = (
(1100,1516,l),
(64,-26,l)
);
}
);
width = 1164;
},
{
anchors = (
{
name = bottom;
pos = (584,24);
},
{
name = cross;
pos = (582,744);
},
{
name = cyrtic;
pos = (1108,6);
},
{
name = right;
pos = (1032,0);
},
{
name = top;
pos = (584,1730);
}
);
associatedMasterId = "B1F27B51-9973-4381-9301-4FE46FE1CA59";
background = {
shapes = (
{
closed = 1;
nodes = (
(44,1490,l),
(546,744,l),
(52,0,l),
(116,0,l),
(578,706,l),
(590,706,l),
(1054,0,l),
(1114,0,l),
(642,744,l),
(1126,1490,l),
(1056,1490,l),
(590,760,l),
(578,760,l),
(110,1490,l)
);
}
);
};
layerId = "46A46977-E9DE-4073-9A61-A08C35965B24";
name = "Nov 25 18, 14:35";
shapes = (
{
closed = 1;
nodes = (
(1112,0,l),
(110,1490,l),
(52,1490,l),
(1054,0,l)
);
},
{
closed = 1;
nodes = (
(110,0,l),
(1112,1490,l),
(1054,1490,l),
(52,0,l)
);
},
{
closed = 1;
nodes = (
(576,698,l),
(588,698,l),
(588,792,l),
(576,792,l)
);
}
);
width = 1164;
}
);
note = "recipe: offset curve 32, no auto";
unicode = 88;
userData = {
com.typemytype.robofont.guideline.magnetic.1jwe8yH4eD = 5;
com.typemytype.robofont.guideline.magnetic.AJAcp0DKEy = 5;
com.typemytype.robofont.guideline.magnetic.QFtArEHSdm = 5;
com.typemytype.robofont.guideline.magnetic.TR4vAYYyfi = 5;
com.typemytype.robofont.guideline.magnetic.nnmV4p3je2 = 5;
"interface.width-adjustments" = (
-16
);
};
},
{
color = 6;
glyphname = Y;
kernLeft = Y;
kernRight = Y;
lastChange = "2022-07-22 10:10:39 +0000";
layers = (
{
anchors = (
{
name = bottom;
pos = (632,0);
},
{
name = cross;
pos = (632,594);
},
{
name = ogonek;
pos = (722,0);
},
{
name = tonos;
pos = (-50,1490);
},
{
name = top;
pos = (632,1676);
}
);
guides = (
{
orientation = center;
angle = 90;
pos = (-482,1360);
},
{
angle = 90;
pos = (236,2092);
},
{
angle = 90;
pos = (1396,2100);
}
);
layerId = "C698F293-3EC0-4A5A-A3A0-0FDB1F5CF265";
shapes = (
{
closed = 1;
nodes = (
(542,614,l),
(542,0,l),
(722,0,l),
(722,614,l),
(1262,1490,l),
(1054,1490,l),
(642,794,l),
(624,794,l),
(210,1490,l),
(4,1490,l)
);
}
);
width = 1266;
},
{
anchors = (
{
name = bottom;
pos = (758,0);
},
{
name = cross;
pos = (758,556);
},
{
name = ogonek;
pos = (960,0);
},
{
name = tonos;
pos = (-94,1490);
},
{
name = top;
pos = (758,1676);
}
);
guides = (
{
orientation = center;
angle = 90;
pos = (-2995,1724);
}
);
layerId = "5C20EF92-B63D-42A8-8878-93C2863E0093";
shapes = (
{
closed = 1;
nodes = (
(558,468,l),
(558,0,l),
(960,0,l),
(960,468,l),
(1506,1490,l),
(1056,1490,l),
(764,884,l),
(752,884,l),
(462,1490,l),
(10,1490,l)
);
}
);
width = 1518;
},
{
anchors = (
{
name = bottom;
pos = (626,0);
},
{
name = cross;
pos = (628,606);
},
{
name = ogonek;
pos = (652,0);
},
{
name = tonos;
pos = (44,1490);
},
{
name = top;
pos = (628,1676);
}
);
layerId = "B1F27B51-9973-4381-9301-4FE46FE1CA59";
shapes = (
{
closed = 1;
nodes = (
(606,706,l),
(606,0,l),
(652,0,l),
(652,706,l),
(1186,1490,l),
(1128,1490,l),
(632,760,l),
(626,760,l),
(128,1490,l),
(70,1490,l)
);
}
);
width = 1256;
},
{
anchors = (
{
name = bottom;
pos = (610,0);
},
{
name = cross;
pos = (610,616);
},
{
name = tonos;
pos = (30,1490);
},
{
name = top;
pos = (610,1676);
}
);
associatedMasterId = "B1F27B51-9973-4381-9301-4FE46FE1CA59";
background = {
shapes = (
{
closed = 1;
nodes = (
(588,702,l),
(588,0,l),
(634,0,l),
(634,702,l),
(1166,1490,l),
(1108,1490,l),
(620,742,l),
(600,742,l),
(114,1490,l),
(52,1490,l)
);
}
);
};
layerId = "519B55C8-6087-452D-A6A5-C177CD7F711A";
name = "Nov 25 18, 15:20";
shapes = (
{
closed = 1;
nodes = (
(588,706,l),
(634,706,l),
(1170,1490,l),
(1112,1490,l),
(614,760,l),
(608,760,l),
(110,1490,l),
(52,1490,l)
);
},
{
closed = 1;
nodes = (
(588,0,l),
(634,0,l),
(634,736,l),
(588,736,l)
);
}
);
width = 1222;
}
);
unicode = 89;
userData = {
com.typemytype.robofont.guideline.magnetic.KceIXUepDd = 5;
com.typemytype.robofont.guideline.magnetic.TWkdg41wEI = 5;
com.typemytype.robofont.guideline.magnetic.o5DXjGQkF9 = 5;
"interface.width-adjustments" = (
-16
);
};
},
{
color = 6;
glyphname = YR;
lastChange = "2022-07-22 10:10:39 +0000";
layers = (
{
background = {
shapes = (
{
closed = 1;
nodes = (
(320,1356,l),
(320,1560,l),
(110,1560,l),
(110,1356,l,{
name = hr00;
})
);
},
{
closed = 1;
nodes = (
(110,0,l),
(320,0,l),
(320,1288,l),
(596,1288,ls),
(815,1289,o),
(902,1181,o),
(902,1018,cs),
(902,870,o),
(800,753,o),
(596,754,cs),
(274,754,l),
(274,588,l),
(716,588,l),
(770,608,l),
(983,666,o),
(1108,817,o),
(1108,1018,cs),
(1108,1303,o),
(928,1457,o),
(596,1458,cs),
(110,1458,l)
);
},
{
closed = 1;
nodes = (
(1368,-360,l),
(1368,-350,l),
(820,664,l),
(602,664,l),
(1146,-360,l)
);
}
);
};
layerId = "C698F293-3EC0-4A5A-A3A0-0FDB1F5CF265";
shapes = (
{
closed = 1;
nodes = (
(272,1390,l),
(272,1592,l),
(62,1592,l),
(62,1390,l,{
name = hr00;
})
);
},
{
closed = 1;
nodes = (
(62,0,l),
(272,0,l),
(272,1322,l),
(548,1322,ls),
(767,1322,o),
(854,1215,o),
(854,1052,cs),
(854,903,o),
(752,787,o),
(548,786,cs),
(226,786,l),
(226,622,l),
(668,622,l),
(722,642,l),
(935,700,o),
(1060,851,o),
(1060,1052,cs),
(1060,1337,o),
(880,1491,o),
(548,1490,cs),
(62,1490,l)
);
},
{
closed = 1;
nodes = (
(1320,-360,l),
(1320,-350,l),
(772,664,l),
(554,664,l),
(1098,-360,l)
);
}
);
width = 1382;
},
{
background = {
shapes = (
{
closed = 1;
nodes = (
(486,1356,l),
(486,1560,l),
(96,1560,l),
(96,1356,l)
);
},
{
closed = 1;
nodes = (
(94,0,l),
(486,0,l),
(486,1144,l),
(710,1144,ls),
(832,1143,o),
(905,1079,o),
(904,968,cs),
(905,858,o),
(835,797,o),
(710,798,cs),
(332,798,l),
(334,486,l),
(844,486,l),
(978,568,l),
(1164,643,o),
(1295,745,o),
(1294,1016,cs),
(1295,1303,o),
(1062,1457,o),
(710,1458,cs),
(94,1458,l,{
name = hr01;
})
);
},
{
closed = 1;
nodes = (
(1524,-344,l),
(1524,-328,l),
(1004,640,l),
(590,640,l),
(1106,-344,l)
);
}
);
};
layerId = "5C20EF92-B63D-42A8-8878-93C2863E0093";
shapes = (
{
closed = 1;
nodes = (
(458,1388,l),
(458,1592,l),
(70,1592,l),
(70,1388,l)
);
},
{
closed = 1;
nodes = (
(70,0,l),
(462,0,l),
(462,1176,l),
(686,1176,ls),
(808,1175,o),
(881,1111,o),
(880,1000,cs),
(881,890,o),
(811,829,o),
(686,830,cs),
(308,830,l),
(310,518,l),
(820,518,l),
(954,600,l),
(1140,675,o),
(1271,777,o),
(1270,1048,cs),
(1271,1335,o),
(1038,1489,o),
(686,1490,cs),
(70,1490,l,{
name = hr01;
})
);
},
{
closed = 1;
nodes = (
(1500,-344,l),
(1500,-328,l),
(980,640,l),
(566,640,l),
(1082,-344,l)
);
}
);
width = 1570;
},
{
background = {
shapes = (
{
closed = 1;
nodes = (
(156,1356,l),
(156,1560,l),
(110,1560,l),
(110,1356,l)
);
},
{
closed = 1;
nodes = (
(110,0,l),
(156,0,l),
(156,1414,l),
(546,1414,ls),
(768,1414,o),
(926,1264,o),
(926,1036,cs),
(927,809,o),
(768,660,o),
(600,660,cs),
(132,660,l),
(132,614,l),
(648,614,l),
(660,618,l),
(848,663,o),
(973,823,o),
(974,1036,cs),
(973,1291,o),
(795,1460,o),
(546,1460,cs),
(110,1460,l)
);
},
{
closed = 1;
nodes = (
(1224,-372,l),
(1224,-366,l),
(676,648,l),
(624,648,l),
(1176,-372,l)
);
}
);
};
guides = (
{
pos = (432,2004);
}
);
layerId = "B1F27B51-9973-4381-9301-4FE46FE1CA59";
shapes = (
{
closed = 1;
nodes = (
(156,1384,l),
(156,1588,l),
(110,1588,l),
(110,1384,l)
);
},
{
closed = 1;
nodes = (
(110,0,l),
(156,0,l),
(156,1442,l),
(546,1442,ls),
(768,1443,o),
(926,1293,o),
(926,1064,cs),
(927,838,o),
(768,689,o),
(600,690,cs),
(132,690,l),
(132,642,l),
(648,642,l),
(660,648,l),
(848,692,o),
(973,852,o),
(974,1064,cs),
(973,1320,o),
(795,1489,o),
(546,1490,cs),
(110,1490,l)
);
},
{
closed = 1;
nodes = (
(1224,-372,l),
(1224,-366,l),
(668,664,l),
(616,664,l),
(1176,-372,l)
);
}
);
width = 1352;
}
);
tags = (
"TODO-opsz"
);
unicode = 422;
userData = {
interface.gridadjust.original = "{'width': 1939, 'leftMargin': 228, 'rightMargin': -18}";
"interface.width-adjustments" = (
-16
);
};
},
{
color = 6;
glyphname = Yhook;
kernLeft = Y;
kernRight = Y;
lastChange = "2022-07-22 10:10:39 +0000";
layers = (
{
background = {
shapes = (
{
closed = 1;
nodes = (
(702,760,l),
(702,794,l),
(666,794,l),
(666,760,l)
);
},
{
closed = 1;
nodes = (
(594,614,l),
(594,0,l),
(774,0,l),
(774,614,l),
(1144,1216,l),
(1172,1266,ls),
(1223,1353,o),
(1289,1361,o),
(1358,1332,c),
(1406,1478,l),
(1263,1545,o),
(1116,1501,o),
(1018,1342,cs),
(986,1288,l),
(684,780,l),
(262,1490,l),
(56,1490,l)
);
}
);
};
guides = (
{
angle = 238.6031;
pos = (1400,1588);
},
{
angle = 239.3277;
pos = (1208,1724);
}
);
layerId = "C698F293-3EC0-4A5A-A3A0-0FDB1F5CF265";
shapes = (
{
closed = 1;
nodes = (
(654,760,l),
(654,794,l),
(618,794,l),
(618,760,l)
);
},
{
closed = 1;
nodes = (
(546,614,l),
(546,0,l),
(726,0,l),
(726,614,l),
(1124,1266,ls),
(1177,1351,o),
(1241,1361,o),
(1310,1332,c),
(1358,1478,l),
(1215,1545,o),
(1066,1503,o),
(970,1342,cs),
(636,780,l),
(214,1490,l),
(8,1490,l)
);
}
);
width = 1350;
},
{
background = {
shapes = (
{
closed = 1;
nodes = (
(1400,1068,ls),
(1462,1175,o),
(1508,1204,o),
(1626,1172,c),
(1708,1470,l),
(1497,1542,o),
(1247,1524,o),
(1100,1268,cs),
(1042,1166,l),
(1374,1024,l)
);
},
{
closed = 1;
nodes = (
(876,850,l),
(876,884,l),
(840,884,l),
(840,850,l)
);
},
{
closed = 1;
nodes = (
(52,1490,l),
(658,550,l),
(658,0,l),
(1058,0,l),
(1058,550,l),
(1374,1024,l),
(1042,1166,l),
(858,870,l),
(486,1490,l)
);
}
);
};
guides = (
{
angle = 240.4178;
pos = (1040,1336);
},
{
angle = 238.4456;
pos = (1300,988);
}
);
layerId = "5C20EF92-B63D-42A8-8878-93C2863E0093";
shapes = (
{
closed = 1;
nodes = (
(852,850,l),
(852,884,l),
(816,884,l),
(816,850,l)
);
},
{
closed = 1;
nodes = (
(634,550,l),
(634,0,l),
(1034,0,l),
(1034,550,l),
(1382,1080,ls),
(1442,1174,o),
(1484,1204,o),
(1602,1172,c),
(1684,1470,l),
(1473,1542,o),
(1228,1520,o),
(1082,1280,cs),
(834,870,l),
(462,1490,l),
(28,1490,l)
);
}
);
width = 1682;
},
{
background = {
shapes = (
{
closed = 1;
nodes = (
(602,724,l),
(602,760,l),
(568,760,l),
(568,724,l)
);
},
{
closed = 1;
nodes = (
(562,706,l),
(562,0,l),
(608,0,l),
(608,706,l),
(1072,1384,ls),
(1123,1457,o),
(1202,1466,o),
(1250,1434,c),
(1282,1464,l),
(1236,1518,o),
(1103,1513,o),
(1040,1422,cs),
(584,756,l),
(84,1490,l),
(26,1490,l)
);
}
);
};
layerId = "B1F27B51-9973-4381-9301-4FE46FE1CA59";
shapes = (
{
closed = 1;
nodes = (
(602,724,l),
(602,760,l),
(568,760,l),
(568,724,l)
);
},
{
closed = 1;
nodes = (
(562,706,l),
(562,0,l),
(608,0,l),
(608,706,l),
(1080,1394,ls),
(1132,1468,o),
(1211,1477,o),
(1260,1446,c),
(1292,1476,l),
(1244,1529,o),
(1111,1524,o),
(1048,1434,cs),
(584,756,l),
(84,1490,l),
(26,1490,l)
);
}
);
width = 1274;
}
);
note = "!post:RemoveOverlap";
tags = (
"TODO-opsz"
);
unicode = 435;
userData = {
com.typemytype.robofont.guideline.magnetic.1p4TietnVi = 5;
com.typemytype.robofont.guideline.magnetic.a19mK3ffcr = 5;
interface.gridadjust.original = "{'width': 1843, 'leftMargin': 18, 'rightMargin': -41}";
"interface.width-adjustments" = (
-16
);
};
},
{
color = 6;
glyphname = Z;
kernLeft = Z;
kernRight = Z;
lastChange = "2022-07-22 10:10:39 +0000";
layers = (
{
anchors = (
{
name = bottom;
pos = (586,0);
},
{
name = cross;
pos = (606,768);
},
{
name = top;
pos = (592,1676);
}
);
guides = (
{
angle = 90;
pos = (1496,248);
},
{
angle = 90;
pos = (72,1280);
},
{
angle = 90;
pos = (776,2156);
}
);
layerId = "C698F293-3EC0-4A5A-A3A0-0FDB1F5CF265";
shapes = (
{
closed = 1;
nodes = (
(1110,0,l),
(1110,160,l),
(298,160,l),
(1102,1358,l),
(1102,1490,l),
(74,1490,l),
(74,1330,l),
(886,1330,l),
(82,130,l),
(82,0,l)
);
}
);
width = 1184;
},
{
anchors = (
{
name = bottom;
pos = (688,0);
},
{
name = cross;
pos = (718,788);
},
{
name = top;
pos = (692,1676);
}
);
guides = (
{
pos = (-132,1552);
},
{
angle = 55.0453;
pos = (1548,1788);
},
{
angle = 55.0343;
pos = (-8,276);
},
{
angle = 90;
pos = (-12,1664);
},
{
angle = 90;
pos = (1540,384);
},
{
orientation = center;
angle = 90;
pos = (-2507,800);
}
);
layerId = "5C20EF92-B63D-42A8-8878-93C2863E0093";
shapes = (
{
closed = 1;
nodes = (
(1294,0,l),
(1294,326,l),
(592,326,l),
(1296,1266,l),
(1296,1490,l),
(80,1490,l),
(80,1164,l),
(782,1164,l),
(78,224,l),
(78,0,l)
);
}
);
width = 1374;
},
{
anchors = (
{
name = bottom;
pos = (620,0);
},
{
name = cross;
pos = (620,744);
},
{
name = top;
pos = (620,1676);
}
);
guides = (
{
angle = 90;
pos = (212,100);
},
{
angle = 90;
pos = (1492,100);
}
);
layerId = "B1F27B51-9973-4381-9301-4FE46FE1CA59";
shapes = (
{
closed = 1;
nodes = (
(1090,0,l),
(1090,46,l),
(210,46,l),
(1086,1442,l),
(1086,1490,l),
(160,1490,l),
(160,1442,l),
(1030,1442,l),
(154,46,l),
(154,0,l)
);
}
);
width = 1240;
}
);
unicode = 90;
userData = {
com.typemytype.robofont.guideline.magnetic.7L9fK9Z9Br = 5;
com.typemytype.robofont.guideline.magnetic.DPCAFAyemJ = 5;
com.typemytype.robofont.guideline.magnetic.VxRM18zW9m = 5;
"interface.width-adjustments" = (
-16
);
};
},
{
color = 6;
glyphname = mcapturn;
lastChange = "2022-07-22 10:10:39 +0000";
layers = (
{
layerId = "C698F293-3EC0-4A5A-A3A0-0FDB1F5CF265";
shapes = (
{
closed = 1;
nodes = (
(1448,0,l),
(1636,0,l),
(1636,1490,l),
(1438,1490,l),
(1438,212,l)
);
},
{
closed = 1;
nodes = (
(1453,303,o),
(1380,145,o),
(1166,146,cs),
(1072,145,o),
(976,204,o),
(976,442,c),
(976,1490,l),
(778,1490,l),
(778,442,l),
(778,93,o),
(921,-20,o),
(1134,-20,cs),
(1430,-20,o),
(1546,204,o),
(1546,506,c),
(1454,504,l)
);
},
{
closed = 1;
nodes = (
(796,303,o),
(720,145,o),
(504,146,cs),
(412,145,o),
(319,204,o),
(318,442,cs),
(318,1490,l),
(118,1490,l),
(118,442,ls),
(118,96,o),
(257,-20,o),
(472,-20,cs),
(769,-20,o),
(889,204,o),
(888,506,c),
(796,504,l)
);
}
);
width = 1754;
},
{
layerId = "5C20EF92-B63D-42A8-8878-93C2863E0093";
shapes = (
{
closed = 1;
nodes = (
(1510,0,l),
(1844,0,l),
(1844,1490,l),
(1466,1490,l),
(1466,286,l)
);
},
{
closed = 1;
nodes = (
(1515,375,o),
(1460,279,o),
(1308,280,cs),
(1215,279,o),
(1172,335,o),
(1172,414,c),
(1172,1490,l),
(800,1490,l),
(800,414,l),
(799,99,o),
(948,-20,o),
(1180,-20,cs),
(1451,-20,o),
(1614,204,o),
(1614,506,c),
(1514,504,l)
);
},
{
closed = 1;
nodes = (
(849,372,o),
(793,279,o),
(642,280,cs),
(549,279,o),
(505,335,o),
(506,414,cs),
(506,1490,l),
(134,1490,l),
(134,414,ls),
(133,102,o),
(249,-20,o),
(514,-20,cs),
(796,-20,o),
(953,195,o),
(954,506,c),
(848,504,l)
);
}
);
width = 1974;
},
{
layerId = "B1F27B51-9973-4381-9301-4FE46FE1CA59";
shapes = (
{
closed = 1;
nodes = (
(1492,0,l),
(1534,0,l),
(1534,1490,l),
(1486,1490,l),
(1486,228,l)
);
},
{
closed = 1;
nodes = (
(1487,169,o),
(1350,32,o),
(1182,32,cs),
(983,32,o),
(876,169,o),
(876,366,cs),
(876,1490,l),
(830,1490,l),
(830,366,ls),
(829,143,o),
(957,-15,o),
(1182,-14,cs),
(1376,-15,o),
(1533,143,o),
(1518,366,c),
(1486,366,l)
);
},
{
closed = 1;
nodes = (
(829,169,o),
(692,32,o),
(524,32,cs),
(326,32,o),
(218,169,o),
(218,366,cs),
(218,1490,l),
(172,1490,l),
(172,366,ls),
(172,143,o),
(300,-15,o),
(524,-14,cs),
(719,-15,o),
(876,143,o),
(862,366,c),
(830,366,l)
);
}
);
width = 1704;
}
);
tags = (
"TODO-opsz"
);
unicode = 412;
userData = {
interface.gridadjust.original = "{'width': 2558, 'leftMargin': 234, 'rightMargin': 234}";
"interface.width-adjustments" = (
-16
);
};
},
{
color = 6;
glyphname = uni01F6;
kernLeft = B;
kernRight = u;
lastChange = "2022-07-22 10:10:39 +0000";
layers = (
{
background = {
shapes = (
{
ref = H;
}
);
};
layerId = "C698F293-3EC0-4A5A-A3A0-0FDB1F5CF265";
shapes = (
{
closed = 1;
nodes = (
(1878,-20,o),
(2076,143,o),
(2076,472,cs),
(2076,1118,l),
(1896,1118,l),
(1896,472,ls),
(1895,247,o),
(1791,145,o),
(1596,146,cs),
(1401,145,o),
(1287,247,o),
(1288,472,cs),
(1288,1490,l),
(1106,1490,l),
(1106,826,l),
(312,826,l),
(312,1490,l),
(132,1490,l),
(132,0,l),
(312,0,l),
(312,666,l),
(1106,666,l),
(1106,472,ls),
(1107,148,o),
(1305,-20,o),
(1596,-20,cs)
);
}
);
width = 2186;
},
{
background = {
shapes = (
{
ref = H;
}
);
};
layerId = "5C20EF92-B63D-42A8-8878-93C2863E0093";
shapes = (
{
closed = 1;
nodes = (
(1966,-20,o),
(2187,186,o),
(2186,520,cs),
(2186,1068,l),
(1782,1068,l),
(1782,520,ls),
(1783,390,o),
(1713,311,o),
(1600,312,cs),
(1486,311,o),
(1416,390,o),
(1416,520,cs),
(1416,1490,l),
(1012,1490,l),
(1012,908,l),
(476,908,l),
(476,1490,l),
(72,1490,l),
(72,0,l),
(476,0,l),
(476,582,l),
(1012,582,l),
(1012,520,ls),
(1012,186,o),
(1236,-20,o),
(1600,-20,cs)
);
}
);
width = 2264;
},
{
layerId = "B1F27B51-9973-4381-9301-4FE46FE1CA59";
shapes = (
{
closed = 1;
nodes = (
(1897,-23,o),
(2071,104,o),
(2072,442,cs),
(2072,1146,l),
(2024,1146,l),
(2024,442,ls),
(2025,159,o),
(1900,23,o),
(1656,24,cs),
(1412,24,o),
(1274,159,o),
(1274,442,cs),
(1274,1490,l),
(1228,1490,l),
(1228,768,l),
(280,768,l),
(280,1490,l),
(232,1490,l),
(232,0,l),
(280,0,l),
(280,722,l),
(1228,722,l),
(1228,442,ls),
(1228,118,o),
(1404,-23,o),
(1656,-24,cs)
);
}
);
width = 2270;
}
);
metricLeft = H;
metricRight = u;
tags = (
"TODO-opsz"
);
unicode = 502;
userData = {
interface.gridadjust.original = "{'width': 3059, 'leftMargin': 228, 'rightMargin': 176}";
"interface.width-adjustments" = (
-16
);
};
},
{
color = 6;
glyphname = uni01F7;
lastChange = "2022-07-22 10:10:39 +0000";
layers = (
{
background = {
shapes = (
{
closed = 1;
nodes = (
(114,1458,l),
(114,-416,l),
(322,-416,l),
(322,1458,l)
);
},
{
closed = 1;
nodes = (
(756,-116,o),
(1178,308,o),
(1178,818,cs),
(1178,870,ls),
(1178,1277,o),
(951,1478,o),
(588,1478,cs),
(448,1478,o),
(337,1440,o),
(254,1376,c),
(254,984,l),
(285,1181,o),
(367,1309,o),
(588,1310,cs),
(847,1309,o),
(972,1175,o),
(972,872,cs),
(972,818,ls),
(972,477,o),
(736,67,o),
(212,-14,c),
(212,-180,l)
);
}
);
};
layerId = "C698F293-3EC0-4A5A-A3A0-0FDB1F5CF265";
shapes = (
{
closed = 1;
nodes = (
(66,1490,l),
(66,-418,l),
(274,-418,l),
(274,1490,l)
);
},
{
closed = 1;
nodes = (
(708,-116,o),
(1130,308,o),
(1130,832,cs),
(1130,884,ls),
(1130,1309,o),
(896,1510,o),
(544,1510,cs),
(393,1510,o),
(289,1472,o),
(206,1408,c),
(206,1016,l),
(237,1213,o),
(310,1341,o),
(546,1342,cs),
(790,1341,o),
(924,1207,o),
(924,888,cs),
(924,832,ls),
(924,477,o),
(688,67,o),
(164,-14,c),
(164,-180,l)
);
}
);
width = 1196;
},
{
background = {
shapes = (
{
closed = 1;
nodes = (
(210,1458,l),
(210,-416,l),
(596,-416,l),
(596,1458,l)
);
},
{
closed = 1;
nodes = (
(1145,29,o),
(1488,358,o),
(1490,760,cs),
(1490,812,ls),
(1488,1231,o),
(1226,1478,o),
(838,1478,cs),
(679,1478,o),
(543,1420,o),
(486,1344,c),
(486,930,l),
(534,1059,o),
(703,1167,o),
(838,1166,cs),
(1087,1167,o),
(1087,948,o),
(1088,814,cs),
(1088,760,ls),
(1087,468,o),
(863,282,o),
(434,126,c),
(434,-192,l)
);
}
);
};
layerId = "5C20EF92-B63D-42A8-8878-93C2863E0093";
shapes = (
{
closed = 1;
nodes = (
(186,1490,l),
(186,-418,l),
(572,-418,l),
(572,1490,l)
);
},
{
closed = 1;
nodes = (
(1121,29,o),
(1464,358,o),
(1466,774,cs),
(1466,826,ls),
(1465,1263,o),
(1196,1510,o),
(826,1510,cs),
(649,1510,o),
(519,1452,o),
(462,1376,c),
(462,962,l),
(510,1091,o),
(671,1199,o),
(830,1198,cs),
(1055,1199,o),
(1064,980,o),
(1064,830,cs),
(1064,774,ls),
(1063,468,o),
(839,282,o),
(410,126,c),
(410,-192,l)
);
}
);
width = 1646;
},
{
background = {
shapes = (
{
closed = 1;
nodes = (
(56,1458,l),
(56,-418,l),
(102,-418,l),
(102,1458,l)
);
},
{
closed = 1;
nodes = (
(620,-14,o),
(922,328,o),
(922,842,cs),
(922,858,ls),
(922,1278,o),
(751,1479,o),
(428,1480,cs),
(284,1479,o),
(161,1446,o),
(68,1382,c),
(90,1340,l),
(178,1400,o),
(297,1433,o),
(428,1432,cs),
(723,1433,o),
(874,1253,o),
(874,862,cs),
(874,840,ls),
(874,353,o),
(596,37,o),
(70,-90,c),
(70,-136,l)
);
}
);
};
layerId = "B1F27B51-9973-4381-9301-4FE46FE1CA59";
shapes = (
{
closed = 1;
nodes = (
(56,1490,l),
(56,-418,l),
(102,-418,l),
(102,1490,l)
);
},
{
closed = 1;
nodes = (
(620,-14,o),
(922,328,o),
(922,856,cs),
(922,872,ls),
(922,1308,o),
(756,1510,o),
(424,1510,cs),
(289,1510,o),
(161,1476,o),
(68,1412,c),
(90,1370,l),
(178,1431,o),
(297,1463,o),
(424,1464,cs),
(723,1463,o),
(874,1284,o),
(874,876,cs),
(874,854,ls),
(874,353,o),
(596,37,o),
(70,-90,c),
(70,-136,l)
);
}
);
width = 980;
}
);
tags = (
"TODO-opsz"
);
unicode = 503;
userData = {
interface.gridadjust.original = "{'width': 1856, 'leftMargin': 228, 'rightMargin': 163}";
"interface.width-adjustments" = (
-16
);
};
},
{
color = 6;
glyphname = uni0220;
lastChange = "2022-07-22 10:10:39 +0000";
layers = (
{
background = {
shapes = (
{
closed = 1;
nodes = (
(1176,986,ls),
(1175,1315,o),
(922,1478,o),
(646,1478,cs),
(492,1478,o),
(358,1428,o),
(268,1368,c),
(268,1208,l),
(361,1271,o),
(480,1312,o),
(646,1312,cs),
(844,1312,o),
(975,1213,o),
(974,986,cs),
(974,-416,l),
(1176,-416,l)
);
},
{
closed = 1;
nodes = (
(120,1458,l),
(120,0,l),
(318,0,l),
(318,1458,l)
);
}
);
};
layerId = "C698F293-3EC0-4A5A-A3A0-0FDB1F5CF265";
shapes = (
{
closed = 1;
nodes = (
(1128,1018,ls),
(1127,1347,o),
(874,1510,o),
(598,1510,cs),
(444,1510,o),
(310,1460,o),
(220,1400,c),
(220,1240,l),
(313,1303,o),
(438,1344,o),
(580,1344,cs),
(801,1344,o),
(927,1245,o),
(926,1018,cs),
(926,-416,l),
(1128,-416,l)
);
},
{
closed = 1;
nodes = (
(72,1490,l),
(72,0,l),
(270,0,l),
(270,1490,l)
);
}
);
width = 1196;
},
{
background = {
shapes = (
{
closed = 1;
nodes = (
(1282,1056,ls),
(1282,1315,o),
(1076,1478,o),
(792,1478,cs),
(540,1478,o),
(354,1332,o),
(238,1186,c),
(238,830,l),
(401,1068,o),
(572,1181,o),
(734,1182,cs),
(875,1181,o),
(901,1120,o),
(902,1056,cs),
(902,-416,l),
(1282,-416,l)
);
},
{
closed = 1;
nodes = (
(152,1458,l),
(152,0,l),
(530,0,l),
(530,1458,l)
);
}
);
};
layerId = "5C20EF92-B63D-42A8-8878-93C2863E0093";
shapes = (
{
closed = 1;
nodes = (
(1258,1088,ls),
(1259,1340,o),
(1055,1510,o),
(776,1510,cs),
(557,1510,o),
(363,1405,o),
(214,1218,c),
(214,862,l),
(371,1091,o),
(540,1213,o),
(718,1214,cs),
(820,1213,o),
(878,1173,o),
(878,1088,cs),
(878,-416,l),
(1258,-416,l)
);
},
{
closed = 1;
nodes = (
(128,1490,l),
(128,0,l),
(506,0,l),
(506,1490,l)
);
}
);
width = 1384;
},
{
background = {
shapes = (
{
closed = 1;
nodes = (
(968,916,ls),
(967,1336,o),
(798,1479,o),
(474,1480,cs),
(331,1479,o),
(208,1446,o),
(114,1382,c),
(136,1340,l),
(228,1403,o),
(337,1433,o),
(488,1432,cs),
(769,1433,o),
(921,1311,o),
(920,920,cs),
(920,-418,l),
(968,-418,l)
);
},
{
closed = 1;
nodes = (
(102,1458,l),
(102,0,l),
(148,0,l),
(148,1458,l)
);
}
);
};
layerId = "B1F27B51-9973-4381-9301-4FE46FE1CA59";
shapes = (
{
closed = 1;
nodes = (
(968,946,ls),
(967,1367,o),
(793,1510,o),
(478,1510,cs),
(327,1510,o),
(208,1476,o),
(114,1412,c),
(136,1370,l),
(228,1433,o),
(340,1463,o),
(482,1464,cs),
(772,1463,o),
(921,1342,o),
(920,950,cs),
(920,-418,l),
(968,-418,l)
);
},
{
closed = 1;
nodes = (
(102,1490,l),
(102,0,l),
(148,0,l),
(148,1490,l)
);
}
);
width = 1062;
}
);
tags = (
"TODO-opsz"
);
unicode = 544;
userData = {
interface.gridadjust.original = "{'width': 1866, 'leftMargin': 228, 'rightMargin': 186}";
"interface.width-adjustments" = (
-16
);
};
},
{
color = 6;
glyphname = uni0222;
lastChange = "2022-07-22 10:10:39 +0000";
layers = (
{
background = {
shapes = (
{
closed = 1;
nodes = (
(323,881,o),
(81,730,o),
(82,434,cs),
(81,128,o),
(323,-20,o),
(634,-20,cs),
(658,-20,ls),
(969,-20,o),
(1210,128,o),
(1210,436,cs),
(1210,730,o),
(969,881,o),
(658,882,cs),
(634,882,l,{
name = hr00;
})
);
},
{
closed = 1;
nodes = (
(867,724,o),
(1004,631,o),
(1004,436,cs),
(1004,236,o),
(867,151,o),
(658,152,cs),
(634,152,ls),
(425,151,o),
(288,236,o),
(288,434,cs),
(288,631,o),
(425,724,o),
(634,724,cs),
(658,724,l)
);
},
{
closed = 1;
nodes = (
(445,896,o),
(288,940,o),
(288,1114,cs),
(288,1239,o),
(352,1289,o),
(478,1320,c),
(478,1478,l),
(259,1466,o),
(81,1356,o),
(82,1114,cs),
(81,835,o),
(337,739,o),
(626,738,cs),
(666,738,ls),
(954,739,o),
(1210,835,o),
(1210,1114,cs),
(1210,1356,o),
(1036,1466,o),
(814,1478,c),
(814,1320,l),
(940,1289,o),
(1004,1239,o),
(1004,1114,cs),
(1004,940,o),
(849,896,o),
(666,896,cs),
(626,896,l)
);
}
);
};
layerId = "C698F293-3EC0-4A5A-A3A0-0FDB1F5CF265";
shapes = (
{
closed = 1;
nodes = (
(275,881,o),
(33,730,o),
(34,434,cs),
(33,128,o),
(275,-20,o),
(586,-20,cs),
(610,-20,ls),
(921,-20,o),
(1162,128,o),
(1162,436,cs),
(1162,730,o),
(921,881,o),
(610,882,cs),
(586,882,l,{
name = hr00;
})
);
},
{
closed = 1;
nodes = (
(819,724,o),
(956,631,o),
(956,436,cs),
(956,236,o),
(819,151,o),
(610,152,cs),
(586,152,ls),
(377,151,o),
(240,236,o),
(240,434,cs),
(240,631,o),
(377,724,o),
(586,724,cs),
(610,724,l)
);
},
{
closed = 1;
nodes = (
(397,896,o),
(240,925,o),
(240,1128,cs),
(240,1257,o),
(304,1321,o),
(430,1352,c),
(430,1510,l),
(211,1498,o),
(33,1379,o),
(34,1128,cs),
(33,826,o),
(289,739,o),
(578,738,cs),
(618,738,ls),
(906,739,o),
(1162,826,o),
(1162,1128,cs),
(1162,1379,o),
(988,1498,o),
(766,1510,c),
(766,1352,l),
(892,1321,o),
(956,1257,o),
(956,1128,cs),
(956,925,o),
(801,896,o),
(618,896,cs),
(578,896,l)
);
}
);
width = 1196;
},
{
background = {
shapes = (
{
closed = 1;
nodes = (
(369,954,o),
(121,809,o),
(122,482,cs),
(121,166,o),
(366,-20,o),
(706,-20,cs),
(728,-20,ls),
(1064,-20,o),
(1305,166,o),
(1306,486,cs),
(1305,809,o),
(1061,954,o),
(728,954,cs),
(706,954,l)
);
},
{
closed = 1;
nodes = (
(852,684,o),
(907,593,o),
(908,486,cs),
(907,375,o),
(852,285,o),
(728,286,cs),
(706,286,ls),
(584,285,o),
(520,375,o),
(520,482,cs),
(520,599,o),
(587,684,o),
(706,684,cs),
(728,684,l)
);
},
{
closed = 1;
nodes = (
(555,998,o),
(520,1039,o),
(520,1106,cs),
(520,1152,o),
(543,1167,o),
(594,1176,c),
(594,1478,l),
(308,1484,o),
(121,1364,o),
(122,1106,cs),
(121,844,o),
(363,730,o),
(704,730,cs),
(724,730,ls),
(1061,730,o),
(1311,844,o),
(1312,1106,cs),
(1311,1364,o),
(1119,1484,o),
(838,1478,c),
(838,1176,l),
(884,1167,o),
(913,1152,o),
(914,1106,cs),
(913,1030,o),
(857,998,o),
(724,998,cs),
(704,998,l)
);
}
);
};
layerId = "5C20EF92-B63D-42A8-8878-93C2863E0093";
shapes = (
{
closed = 1;
nodes = (
(311,954,o),
(97,782,o),
(98,482,cs),
(97,178,o),
(328,-20,o),
(682,-20,cs),
(704,-20,ls),
(1055,-20,o),
(1281,178,o),
(1282,486,cs),
(1281,783,o),
(1069,954,o),
(704,954,cs),
(682,954,l)
);
},
{
closed = 1;
nodes = (
(814,684,o),
(883,608,o),
(884,486,cs),
(883,361,o),
(815,285,o),
(704,286,cs),
(682,286,ls),
(570,285,o),
(496,364,o),
(496,482,cs),
(496,605,o),
(569,684,o),
(682,684,cs),
(704,684,l)
);
},
{
closed = 1;
nodes = (
(548,998,o),
(497,1018,o),
(496,1114,cs),
(496,1170,o),
(514,1198,o),
(570,1208,c),
(570,1510,l),
(266,1516,o),
(97,1365,o),
(98,1114,cs),
(99,859,o),
(306,730,o),
(680,730,cs),
(700,730,ls),
(1073,730,o),
(1289,861,o),
(1288,1114,cs),
(1287,1363,o),
(1115,1516,o),
(814,1510,c),
(814,1208,l),
(868,1197,o),
(889,1169,o),
(890,1114,cs),
(890,1021,o),
(833,998,o),
(700,998,cs),
(680,998,l)
);
}
);
width = 1380;
},
{
background = {
shapes = (
{
closed = 1;
nodes = (
(225,801,o),
(58,652,o),
(58,392,cs),
(58,124,o),
(241,-20,o),
(574,-20,cs),
(586,-20,ls),
(915,-20,o),
(1100,124,o),
(1100,392,cs),
(1100,651,o),
(932,801,o),
(596,802,cs),
(562,802,ls)
);
},
{
closed = 1;
nodes = (
(906,755,o),
(1053,621,o),
(1054,392,cs),
(1053,153,o),
(892,26,o),
(586,26,cs),
(572,26,ls),
(265,26,o),
(105,154,o),
(104,392,cs),
(105,623,o),
(249,755,o),
(562,754,cs),
(596,754,ls)
);
},
{
closed = 1;
nodes = (
(279,801,o),
(125,916,o),
(126,1118,cs),
(125,1277,o),
(211,1371,o),
(336,1398,c),
(336,1448,l),
(183,1415,o),
(79,1303,o),
(78,1118,cs),
(79,889,o),
(256,755,o),
(562,754,cs),
(596,754,ls),
(903,755,o),
(1079,892,o),
(1080,1118,cs),
(1079,1314,o),
(959,1430,o),
(794,1456,c),
(794,1408,l),
(934,1386,o),
(1033,1287,o),
(1032,1118,cs),
(1033,918,o),
(876,801,o),
(598,802,cs),
(562,802,ls)
);
}
);
};
layerId = "B1F27B51-9973-4381-9301-4FE46FE1CA59";
shapes = (
{
closed = 1;
nodes = (
(225,831,o),
(58,681,o),
(58,406,cs),
(58,124,o),
(241,-20,o),
(574,-20,cs),
(586,-20,ls),
(915,-20,o),
(1100,124,o),
(1100,406,cs),
(1100,680,o),
(932,831,o),
(596,830,cs),
(562,830,ls)
);
},
{
closed = 1;
nodes = (
(906,784,o),
(1053,650,o),
(1054,406,cs),
(1053,153,o),
(892,26,o),
(586,26,cs),
(572,26,ls),
(265,26,o),
(105,154,o),
(104,406,cs),
(105,652,o),
(249,784,o),
(562,784,cs),
(596,784,ls)
);
},
{
closed = 1;
nodes = (
(279,831,o),
(125,940,o),
(126,1166,cs),
(125,1334,o),
(211,1433,o),
(336,1460,c),
(336,1510,l),
(183,1478,o),
(79,1360,o),
(78,1166,cs),
(79,912,o),
(256,784,o),
(562,784,cs),
(596,784,ls),
(903,784,o),
(1079,915,o),
(1080,1166,cs),
(1079,1371,o),
(959,1492,o),
(794,1518,c),
(794,1470,l),
(934,1449,o),
(1033,1344,o),
(1032,1166,cs),
(1033,941,o),
(876,831,o),
(598,830,cs),
(562,830,ls)
);
}
);
width = 1158;
}
);
tags = (
"TODO-opsz"
);
unicode = 546;
userData = {
interface.gridadjust.original = "{'width': 1873, 'leftMargin': 161, 'rightMargin': 161}";
"interface.width-adjustments" = (
-16
);
};
},
{
color = 6;
glyphname = uni0224;
kernLeft = Z;
kernRight = Z;
lastChange = "2022-07-22 10:10:39 +0000";
layers = (
{
layerId = "C698F293-3EC0-4A5A-A3A0-0FDB1F5CF265";
shapes = (
{
closed = 1;
nodes = (
(886,1330,l),
(82,130,l),
(82,0,l),
(824,0,ls),
(927,0,o),
(959,-81,o),
(958,-166,cs),
(958,-222,l),
(1122,-222,l),
(1122,-134,ls),
(1121,41,o),
(1008,160,o),
(824,160,cs),
(298,160,l),
(1102,1358,l),
(1102,1490,l),
(74,1490,l),
(74,1330,l)
);
}
);
width = 1184;
},
{
layerId = "5C20EF92-B63D-42A8-8878-93C2863E0093";
shapes = (
{
closed = 1;
nodes = (
(794,1164,l),
(78,224,l),
(78,0,l),
(840,0,ls),
(978,0,o),
(1001,-87,o),
(1000,-190,cs),
(1000,-280,l),
(1322,-280,l),
(1322,-116,ls),
(1324,163,o),
(1156,326,o),
(840,326,cs),
(582,326,l),
(1296,1266,l),
(1296,1490,l),
(80,1490,l),
(80,1164,l)
);
}
);
width = 1374;
},
{
layerId = "B1F27B51-9973-4381-9301-4FE46FE1CA59";
shapes = (
{
closed = 1;
nodes = (
(1000,1442,l),
(126,46,l),
(126,0,l),
(866,0,ls),
(977,0,o),
(1020,-52,o),
(1020,-182,cs),
(1020,-186,l),
(1066,-186,l),
(1066,-156,ls),
(1066,-29,o),
(995,47,o),
(868,46,cs),
(180,46,l),
(1056,1442,l),
(1056,1490,l),
(130,1490,l),
(130,1442,l)
);
}
);
width = 1194;
}
);
note = "!post:RemoveOverlap";
tags = (
"TODO-opsz"
);
unicode = 548;
userData = {
interface.gridadjust.original = "{'width': 1724, 'leftMargin': 118, 'rightMargin': 44}";
"interface.width-adjustments" = (
-16
);
};
},
{
color = 3;
glyphname = uni023A;
kernLeft = A;
kernRight = A;
lastChange = "2022-07-22 10:10:39 +0000";
layers = (
{
layerId = "C698F293-3EC0-4A5A-A3A0-0FDB1F5CF265";
shapes = (
{
closed = 1;
nodes = (
(930,1678,l),
(266,-190,l),
(432,-190,l),
(1096,1678,l)
);
},
{
ref = A;
}
);
width = 1288;
},
{
layerId = "5C20EF92-B63D-42A8-8878-93C2863E0093";
shapes = (
{
closed = 1;
nodes = (
(1090,1678,l),
(526,-190,l),
(732,-190,l),
(1296,1678,l)
);
},
{
ref = A;
}
);
width = 1580;
},
{
layerId = "B1F27B51-9973-4381-9301-4FE46FE1CA59";
shapes = (
{
closed = 1;
nodes = (
(940,1678,l),
(276,-190,l),
(326,-190,l),
(990,1678,l)
);
},
{
alignment = -1;
ref = A;
}
);
width = 1262;
}
);
metricLeft = A;
metricRight = A;
unicode = 570;
userData = {
interface.gridadjust.original = "{'width': 1855, 'leftMargin': -226, 'rightMargin': -8}";
};
},
{
color = 3;
glyphname = uni023B;
kernLeft = C;
kernRight = C;
lastChange = "2022-07-22 10:10:39 +0000";
layers = (
{
guides = (
{
angle = 90;
pos = (920,1756);
}
);
layerId = "C698F293-3EC0-4A5A-A3A0-0FDB1F5CF265";
shapes = (
{
closed = 1;
nodes = (
(456,-190,l),
(1118,1678,l),
(952,1678,l),
(290,-190,l)
);
},
{
ref = C;
}
);
width = 1394;
},
{
layerId = "5C20EF92-B63D-42A8-8878-93C2863E0093";
shapes = (
{
closed = 1;
nodes = (
(586,-190,l),
(1152,1678,l),
(944,1678,l),
(380,-190,l)
);
},
{
ref = C;
}
);
width = 1526;
},
{
layerId = "B1F27B51-9973-4381-9301-4FE46FE1CA59";
shapes = (
{
closed = 1;
nodes = (
(416,-190,l),
(1140,1678,l),
(1090,1678,l),
(366,-190,l)
);
},
{
ref = C;
}
);
width = 1480;
}
);
metricLeft = C;
metricRight = C;
unicode = 571;
userData = {
com.typemytype.robofont.guideline.magnetic.7GS4PBDdqi = 5;
interface.gridadjust.original = "{'width': 1834, 'leftMargin': 256, 'rightMargin': 2}";
"interface.width-adjustments" = (
-16
);
};
},
{
color = 3;
glyphname = uni023E;
kernLeft = T;
kernRight = T;
lastChange = "2022-07-22 10:10:39 +0000";
layers = (
{
layerId = "C698F293-3EC0-4A5A-A3A0-0FDB1F5CF265";
shapes = (
{
closed = 1;
nodes = (
(380,-190,l),
(1042,1678,l),
(878,1678,l),
(214,-190,l)
);
},
{
ref = T;
}
);
width = 1218;
},
{
layerId = "5C20EF92-B63D-42A8-8878-93C2863E0093";
shapes = (
{
closed = 1;
nodes = (
(528,-190,l),
(1094,1678,l),
(886,1678,l),
(322,-190,l)
);
},
{
ref = T;
}
);
width = 1358;
},
{
layerId = "B1F27B51-9973-4381-9301-4FE46FE1CA59";
shapes = (
{
closed = 1;
nodes = (
(302,-190,l),
(1022,1678,l),
(978,1678,l),
(256,-190,l)
);
},
{
alignment = -1;
ref = T;
}
);
width = 1256;
}
);
metricLeft = T;
metricRight = T;
tags = (
"TODO-opsz"
);
unicode = 574;
userData = {
interface.gridadjust.original = "{'width': 1680, 'leftMargin': 128, 'rightMargin': 16}";
"interface.width-adjustments" = (
-16
);
};
},
{
color = 6;
glyphname = uni0241;
lastChange = "2022-07-22 10:10:39 +0000";
layers = (
{
background = {
shapes = (
{
closed = 1;
nodes = (
(482,280,l),
(526,280,ls),
(858,279,o),
(1018,532,o),
(1018,820,cs),
(1018,936,ls),
(1018,1225,o),
(858,1478,o),
(526,1478,cs),
(268,1478,o),
(96,1303,o),
(88,1070,c),
(282,1070,l),
(291,1210,o),
(381,1303,o),
(526,1304,cs),
(751,1303,o),
(812,1117,o),
(812,936,cs),
(812,820,ls),
(812,637,o),
(753,454,o),
(526,454,c),
(482,454,l)
);
},
{
closed = 1;
nodes = (
(430,454,l),
(430,0,l),
(640,0,l),
(640,454,l)
);
}
);
};
layerId = "C698F293-3EC0-4A5A-A3A0-0FDB1F5CF265";
shapes = (
{
closed = 1;
nodes = (
(434,280,l),
(478,280,ls),
(810,279,o),
(970,532,o),
(970,820,cs),
(970,968,ls),
(970,1257,o),
(810,1510,o),
(478,1510,cs),
(220,1510,o),
(48,1335,o),
(40,1102,c),
(234,1102,l),
(243,1242,o),
(333,1335,o),
(478,1336,cs),
(703,1335,o),
(764,1149,o),
(764,968,cs),
(764,820,ls),
(764,637,o),
(705,454,o),
(478,454,c),
(434,454,l)
);
},
{
closed = 1;
nodes = (
(382,454,l),
(382,0,l),
(592,0,l),
(592,454,l)
);
}
);
width = 1010;
},
{
background = {
shapes = (
{
closed = 1;
nodes = (
(448,238,l),
(588,238,ls),
(941,239,o),
(1145,468,o),
(1146,788,cs),
(1146,920,ls),
(1145,1245,o),
(938,1478,o),
(590,1478,cs),
(307,1478,o),
(77,1303,o),
(82,1012,c),
(456,1012,l),
(452,1091,o),
(496,1161,o),
(600,1160,cs),
(746,1161,o),
(746,1007,o),
(748,920,cs),
(748,788,ls),
(746,640,o),
(723,553,o),
(600,552,cs),
(448,552,l,{
name = hr00;
})
);
},
{
closed = 1;
nodes = (
(418,552,l),
(418,0,l),
(812,0,l),
(812,552,l)
);
}
);
};
layerId = "5C20EF92-B63D-42A8-8878-93C2863E0093";
shapes = (
{
closed = 1;
nodes = (
(424,238,l),
(564,238,ls),
(917,239,o),
(1122,468,o),
(1122,788,cs),
(1122,952,ls),
(1122,1277,o),
(914,1510,o),
(566,1510,cs),
(283,1510,o),
(53,1335,o),
(58,1044,c),
(432,1044,l),
(428,1123,o),
(472,1193,o),
(576,1192,cs),
(722,1193,o),
(724,1039,o),
(724,952,cs),
(724,788,ls),
(724,640,o),
(699,553,o),
(576,552,cs),
(424,552,l,{
name = hr00;
})
);
},
{
closed = 1;
nodes = (
(394,552,l),
(394,0,l),
(788,0,l),
(788,552,l)
);
}
);
width = 1180;
},
{
background = {
shapes = (
{
closed = 1;
nodes = (
(474,350,l),
(492,350,l),
(780,349,o),
(943,515,o),
(942,812,cs),
(942,1022,ls),
(943,1309,o),
(788,1478,o),
(526,1478,cs),
(274,1478,o),
(105,1333,o),
(90,1106,c),
(136,1106,l),
(147,1304,o),
(298,1430,o),
(526,1430,cs),
(764,1430,o),
(896,1284,o),
(896,1022,cs),
(896,812,ls),
(896,537,o),
(754,394,o),
(482,396,c),
(474,396,l,{
name = hr00;
})
);
},
{
closed = 1;
nodes = (
(466,396,l),
(466,0,l),
(512,0,l),
(512,396,l)
);
}
);
};
layerId = "B1F27B51-9973-4381-9301-4FE46FE1CA59";
shapes = (
{
closed = 1;
nodes = (
(474,350,l),
(492,350,l),
(780,349,o),
(943,515,o),
(942,812,cs),
(942,1054,ls),
(943,1341,o),
(788,1510,o),
(526,1510,cs),
(274,1510,o),
(105,1365,o),
(90,1138,c),
(136,1138,l),
(147,1336,o),
(298,1462,o),
(526,1462,cs),
(764,1462,o),
(896,1316,o),
(896,1054,cs),
(896,812,ls),
(896,537,o),
(754,394,o),
(482,396,c),
(474,396,l,{
name = hr00;
})
);
},
{
closed = 1;
nodes = (
(466,396,l),
(466,0,l),
(512,0,l),
(512,396,l)
);
}
);
width = 1032;
}
);
tags = (
"TODO-opsz"
);
unicode = 577;
userData = {
interface.gridadjust.original = "{'width': 1526, 'leftMargin': 88, 'rightMargin': 156}";
"interface.width-adjustments" = (
-16
);
};
},
{
color = 3;
glyphname = uni0244;
kernLeft = U;
kernRight = J;
lastChange = "2022-07-22 10:10:39 +0000";
layers = (
{
guides = (
{
angle = 90;
pos = (940,148);
}
);
layerId = "C698F293-3EC0-4A5A-A3A0-0FDB1F5CF265";
shapes = (
{
closed = 1;
nodes = (
(-54,864,l),
(-54,744,l),
(1476,744,l),
(1476,864,l)
);
},
{
ref = U;
}
);
width = 1422;
},
{
layerId = "5C20EF92-B63D-42A8-8878-93C2863E0093";
shapes = (
{
closed = 1;
nodes = (
(-36,834,l),
(-36,614,l),
(1570,614,l),
(1570,834,l)
);
},
{
pos = (62,0);
ref = U;
}
);
width = 1534;
},
{
layerId = "B1F27B51-9973-4381-9301-4FE46FE1CA59";
shapes = (
{
closed = 1;
nodes = (
(-2,876,l),
(-2,830,l),
(1484,830,l),
(1484,876,l)
);
},
{
alignment = -1;
pos = (-38,0);
ref = U;
}
);
width = 1480;
}
);
tags = (
"TODO-opsz"
);
unicode = 580;
userData = {
com.typemytype.robofont.guideline.magnetic.DxUS4DFy1H = 5;
interface.gridadjust.original = "{'width': 2199, 'leftMargin': 41, 'rightMargin': 42}";
"interface.width-adjustments" = (
-16
);
};
},
{
color = 6;
glyphname = uni0245;
lastChange = "2022-07-22 10:10:39 +0000";
layers = (
{
layerId = "C698F293-3EC0-4A5A-A3A0-0FDB1F5CF265";
shapes = (
{
closed = 1;
nodes = (
(1322,0,l),
(782,1490,l),
(622,1490,l),
(674,1260,l),
(1096,0,l)
);
},
{
closed = 1;
nodes = (
(760,1490,l),
(600,1490,l),
(62,0,l),
(290,0,l),
(706,1260,l)
);
}
);
width = 1382;
},
{
layerId = "5C20EF92-B63D-42A8-8878-93C2863E0093";
shapes = (
{
closed = 1;
nodes = (
(1506,0,l),
(1000,1490,l),
(718,1490,l),
(770,1100,l),
(1070,0,l)
);
},
{
closed = 1;
nodes = (
(848,1490,l),
(566,1490,l),
(60,0,l),
(496,0,l),
(800,1100,l)
);
}
);
width = 1570;
},
{
layerId = "B1F27B51-9973-4381-9301-4FE46FE1CA59";
shapes = (
{
closed = 1;
nodes = (
(1250,0,l),
(718,1490,l),
(664,1490,l),
(680,1454,l),
(1200,0,l)
);
},
{
closed = 1;
nodes = (
(702,1490,l),
(654,1490,l),
(120,0,l),
(170,0,l),
(690,1456,l)
);
}
);
width = 1370;
}
);
tags = (
"TODO-opsz"
);
unicode = 581;
userData = {
interface.gridadjust.original = "{'width': 1805, 'leftMargin': 37, 'rightMargin': 37}";
"interface.width-adjustments" = (
-16
);
};
},
{
color = 3;
glyphname = uni0246;
kernLeft = B;
kernRight = E;
lastChange = "2022-07-22 10:10:39 +0000";
layers = (
{
layerId = "C698F293-3EC0-4A5A-A3A0-0FDB1F5CF265";
shapes = (
{
closed = 1;
nodes = (
(814,1678,l),
(274,-190,l),
(440,-190,l),
(978,1678,l)
);
},
{
ref = E;
}
);
width = 1128;
},
{
layerId = "5C20EF92-B63D-42A8-8878-93C2863E0093";
shapes = (
{
closed = 1;
nodes = (
(838,1678,l),
(298,-190,l),
(464,-190,l),
(1002,1678,l)
);
},
{
ref = E;
}
);
width = 1226;
},
{
layerId = "B1F27B51-9973-4381-9301-4FE46FE1CA59";
shapes = (
{
closed = 1;
nodes = (
(904,1678,l),
(366,-190,l),
(408,-190,l),
(948,1678,l)
);
},
{
alignment = -1;
ref = E;
}
);
width = 1196;
}
);
metricLeft = E;
metricRight = E;
unicode = 582;
userData = {
interface.gridadjust.original = "{'width': 1601, 'leftMargin': 256, 'rightMargin': 65}";
"interface.width-adjustments" = (
-16
);
};
},
{
color = 3;
glyphname = uni024C;
kernLeft = B;
kernRight = R;
lastChange = "2022-07-22 10:10:39 +0000";
layers = (
{
layerId = "C698F293-3EC0-4A5A-A3A0-0FDB1F5CF265";
shapes = (
{
closed = 1;
nodes = (
(252,744,l),
(-24,744,l),
(-24,582,l),
(252,582,l)
);
},
{
pos = (18,0);
ref = R;
}
);
width = 1230;
},
{
layerId = "5C20EF92-B63D-42A8-8878-93C2863E0093";
shapes = (
{
closed = 1;
nodes = (
(358,812,l),
(-12,812,l),
(-12,526,l),
(358,526,l)
);
},
{
pos = (44,0);
ref = R;
}
);
width = 1374;
},
{
layerId = "B1F27B51-9973-4381-9301-4FE46FE1CA59";
shapes = (
{
closed = 1;
nodes = (
(250,690,l),
(32,690,l),
(32,642,l),
(250,642,l)
);
},
{
alignment = -1;
pos = (2,0);
ref = R;
}
);
width = 1270;
}
);
tags = (
"TODO-opsz"
);
unicode = 588;
userData = {
interface.gridadjust.original = "{'width': 1816, 'leftMargin': 55, 'rightMargin': 33}";
"interface.width-adjustments" = (
-16
);
};
},
{
color = 3;
glyphname = uni024E;
kernLeft = Y;
kernRight = Y;
lastChange = "2022-07-22 10:10:39 +0000";
layers = (
{
guides = (
{
orientation = center;
angle = 90;
pos = (-484,1188);
}
);
layerId = "C698F293-3EC0-4A5A-A3A0-0FDB1F5CF265";
shapes = (
{
closed = 1;
nodes = (
(-42,1184,l),
(-42,1064,l),
(1314,1064,l),
(1314,1184,l)
);
},
{
ref = Y;
}
);
width = 1272;
},
{
layerId = "5C20EF92-B63D-42A8-8878-93C2863E0093";
shapes = (
{
closed = 1;
nodes = (
(2,1176,l),
(2,986,l),
(1514,986,l),
(1514,1176,l)
);
},
{
ref = Y;
}
);
width = 1518;
},
{
layerId = "B1F27B51-9973-4381-9301-4FE46FE1CA59";
shapes = (
{
closed = 1;
nodes = (
(-6,1174,l),
(-6,1128,l),
(1256,1128,l),
(1256,1174,l)
);
},
{
alignment = -1;
ref = Y;
}
);
width = 1248;
}
);
tags = (
"TODO-opsz"
);
unicode = 590;
userData = {
com.typemytype.robofont.guideline.magnetic.lWiVRVgKy6 = 5;
interface.gridadjust.original = "{'width': 1911, 'leftMargin': 41, 'rightMargin': 41}";
"interface.width-adjustments" = (
-16
);
};
},
{
color = 6;
glyphname = uni1EFC;
lastChange = "2022-07-22 10:10:39 +0000";
layers = (
{
layerId = "C698F293-3EC0-4A5A-A3A0-0FDB1F5CF265";
shapes = (
{
closed = 1;
nodes = (
(641,777,o),
(769,660,o),
(770,434,cs),
(769,247,o),
(676,143,o),
(510,142,cs),
(377,143,o),
(243,279,o),
(242,538,cs),
(242,670,ls),
(243,1004,o),
(368,1225,o),
(696,1292,c),
(664,1458,l),
(153,1364,o),
(42,1018,o),
(42,600,cs),
(42,544,ls),
(42,276,o),
(191,-20,o),
(510,-20,cs),
(813,-20,o),
(967,163,o),
(968,448,cs),
(967,713,o),
(799,916,o),
(552,978,c),
(498,814,l,{
name = hr00;
})
);
}
);
width = 1010;
},
{
layerId = "5C20EF92-B63D-42A8-8878-93C2863E0093";
shapes = (
{
closed = 1;
nodes = (
(867,634,o),
(911,550,o),
(910,456,cs),
(911,355,o),
(835,294,o),
(732,294,cs),
(588,294,o),
(547,381,o),
(546,510,cs),
(546,596,ls),
(547,1027,o),
(800,1146,o),
(1040,1182,c),
(1008,1486,l),
(591,1457,o),
(145,1164,o),
(144,642,cs),
(144,576,ls),
(145,166,o),
(410,-20,o),
(744,-20,cs),
(1062,-20,o),
(1303,157,o),
(1302,480,cs),
(1303,692,o),
(1137,867,o),
(960,966,c),
(768,710,l)
);
}
);
width = 1444;
},
{
background = {
shapes = (
{
closed = 1;
nodes = (
(621,843,o),
(778,655,o),
(778,430,cs),
(778,201,o),
(636,26,o),
(450,26,cs),
(220,26,o),
(83,245,o),
(82,612,cs),
(82,668,ls),
(83,1064,o),
(225,1297,o),
(522,1390,c),
(506,1432,l),
(204,1343,o),
(36,1078,o),
(36,690,cs),
(36,626,ls),
(36,217,o),
(188,-20,o),
(450,-20,cs),
(661,-20,o),
(825,176,o),
(824,430,cs),
(825,675,o),
(647,889,o),
(406,936,c),
(394,894,l)
);
}
);
};
layerId = "B1F27B51-9973-4381-9301-4FE46FE1CA59";
shapes = (
{
closed = 1;
nodes = (
(621,843,o),
(778,655,o),
(778,430,cs),
(778,201,o),
(636,26,o),
(450,26,cs),
(220,26,o),
(83,245,o),
(82,612,cs),
(82,668,ls),
(83,1064,o),
(225,1297,o),
(522,1390,c),
(506,1432,l),
(204,1343,o),
(36,1078,o),
(36,690,cs),
(36,626,ls),
(36,217,o),
(188,-20,o),
(450,-20,cs),
(661,-20,o),
(825,176,o),
(824,430,cs),
(825,675,o),
(647,889,o),
(406,936,c),
(394,894,l)
);
}
);
width = 868;
}
);
tags = (
"TODO-opsz"
);
unicode = 7932;
userData = {
interface.gridadjust.original = "{'width': 1594, 'leftMargin': 161, 'rightMargin': 163}";
"interface.width-adjustments" = (
-16
);
};
},
{
color = 6;
glyphname = uni1EFE;
lastChange = "2022-07-22 10:10:39 +0000";
layers = (
{
layerId = "C698F293-3EC0-4A5A-A3A0-0FDB1F5CF265";
shapes = (
{
closed = 1;
nodes = (
(676,506,l),
(696,158,l),
(1340,1490,l),
(1110,1490,l),
(682,556,l)
);
},
{
closed = 1;
nodes = (
(114,1490,l),
(638,504,l),
(764,504,l),
(808,568,l),
(346,1490,l)
);
},
{
closed = 1;
nodes = (
(586,-20,o),
(740,131,o),
(740,320,cs),
(740,489,o),
(607,660,o),
(400,660,cs),
(211,660,o),
(60,506,o),
(60,320,cs),
(60,131,o),
(211,-20,o),
(400,-20,cs)
);
},
{
closed = 1;
nodes = (
(313,160,o),
(246,215,o),
(246,320,cs),
(246,428,o),
(313,483,o),
(400,482,cs),
(484,483,o),
(551,428,o),
(552,320,cs),
(551,215,o),
(484,160,o),
(400,160,cs)
);
}
);
width = 1382;
},
{
layerId = "5C20EF92-B63D-42A8-8878-93C2863E0093";
shapes = (
{
closed = 1;
nodes = (
(778,526,l),
(892,230,l),
(1572,1490,l),
(1158,1490,l),
(770,690,l)
);
},
{
closed = 1;
nodes = (
(172,1490,l),
(710,472,l),
(906,472,l),
(966,672,l),
(584,1490,l)
);
},
{
closed = 1;
nodes = (
(732,-20,o),
(942,186,o),
(942,434,cs),
(942,695,o),
(727,893,o),
(474,894,cs),
(215,893,o),
(5,684,o),
(6,434,cs),
(5,183,o),
(217,-20,o),
(474,-20,cs)
);
},
{
closed = 1;
nodes = (
(389,291,o),
(328,343,o),
(328,440,cs),
(328,532,o),
(389,585,o),
(474,584,cs),
(555,585,o),
(619,532,o),
(618,440,cs),
(619,343,o),
(555,291,o),
(474,290,cs)
);
}
);
width = 1558;
},
{
layerId = "B1F27B51-9973-4381-9301-4FE46FE1CA59";
shapes = (
{
closed = 1;
nodes = (
(724,232,l),
(728,168,l),
(1278,1490,l),
(1226,1490,l),
(724,274,l)
);
},
{
closed = 1;
nodes = (
(232,1490,l),
(734,292,l),
(752,304,l),
(772,318,l),
(282,1490,l)
);
},
{
closed = 1;
nodes = (
(622,-17,o),
(740,101,o),
(738,248,cs),
(737,396,o),
(622,515,o),
(472,514,cs),
(327,515,o),
(207,396,o),
(206,248,cs),
(206,101,o),
(327,-18,o),
(472,-18,cs)
);
},
{
closed = 1;
nodes = (
(353,28,o),
(253,127,o),
(254,248,cs),
(253,370,o),
(353,468,o),
(472,468,cs),
(596,468,o),
(691,370,o),
(692,248,cs),
(694,127,o),
(596,30,o),
(472,30,cs)
);
}
);
width = 1414;
}
);
tags = (
"TODO-opsz"
);
unicode = 7934;
userData = {
interface.gridadjust.original = "{'width': 1859.0, 'leftMargin': 36, 'rightMargin': 84.0}";
"interface.width-adjustments" = (
-16
);
};
},
{
color = 6;
glyphname = uni2C7F;
kernLeft = Z;
kernRight = Z;
lastChange = "2022-07-22 10:10:39 +0000";
layers = (
{
layerId = "C698F293-3EC0-4A5A-A3A0-0FDB1F5CF265";
shapes = (
{
closed = 1;
nodes = (
(1028,-436,o),
(1095,-425,o),
(1128,-410,c),
(1128,-250,l),
(1089,-259,o),
(1049,-268,o),
(994,-268,cs),
(781,-268,o),
(665,84,o),
(292,152,c),
(1102,1358,l),
(1102,1490,l),
(74,1490,l),
(74,1330,l),
(886,1330,l),
(82,130,l),
(82,0,l),
(162,0,ls),
(531,0,o),
(659,-436,o),
(962,-436,cs)
);
}
);
width = 1184;
},
{
background = {
shapes = (
{
closed = 1;
nodes = (
(1210,-436,o),
(1271,-422,o),
(1320,-402,c),
(1320,-98,l),
(1271,-116,o),
(1222,-122,o),
(1166,-122,cs),
(966,-122,o),
(847,151,o),
(588,268,c),
(1304,1246,l),
(1304,1446,l),
(102,1446,l),
(102,1128,l),
(788,1128,l),
(98,204,l),
(98,0,l),
(212,0,ls),
(657,0,o),
(724,-436,o),
(1140,-436,cs)
);
}
);
};
layerId = "5C20EF92-B63D-42A8-8878-93C2863E0093";
shapes = (
{
closed = 1;
nodes = (
(1186,-436,o),
(1247,-422,o),
(1296,-402,c),
(1296,-98,l),
(1247,-116,o),
(1198,-122,o),
(1142,-122,cs),
(942,-122,o),
(823,151,o),
(564,268,c),
(1280,1288,l),
(1280,1490,l),
(78,1490,l),
(78,1172,l),
(764,1172,l),
(74,204,l),
(74,0,l),
(188,0,ls),
(633,0,o),
(700,-436,o),
(1116,-436,cs)
);
}
);
width = 1374;
},
{
layerId = "B1F27B51-9973-4381-9301-4FE46FE1CA59";
shapes = (
{
closed = 1;
nodes = (
(1018,-436,o),
(1066,-425,o),
(1088,-416,c),
(1088,-376,l),
(1057,-383,o),
(1022,-390,o),
(992,-390,cs),
(737,-390,o),
(583,45,o),
(184,46,c),
(1058,1442,l),
(1058,1490,l),
(134,1490,l),
(134,1442,l),
(1004,1442,l),
(128,46,l),
(128,0,l),
(180,0,ls),
(546,0,o),
(719,-436,o),
(976,-436,cs)
);
}
);
width = 1194;
}
);
tags = (
"TODO-opsz"
);
unicode = 11391;
userData = {
interface.gridadjust.original = "{'width': 1687, 'leftMargin': 117, 'rightMargin': 115}";
"interface.width-adjustments" = (
-16
);
};
},
{
color = 6;
glyphname = Gsmallcap;
lastChange = "2022-07-22 10:10:39 +0000";
layers = (
{
layerId = "C698F293-3EC0-4A5A-A3A0-0FDB1F5CF265";
shapes = (
{
closed = 1;
nodes = (
(626,552,l),
(626,392,l),
(910,392,l),
(910,224,l),
(877,198,o),
(772,140,o),
(616,140,cs),
(417,140,o),
(272,279,o),
(272,462,cs),
(272,626,ls),
(272,806,o),
(423,945,o),
(610,946,cs),
(775,945,o),
(880,873,o),
(898,736,c),
(1078,736,l),
(1057,945,o),
(915,1103,o),
(610,1102,cs),
(310,1103,o),
(95,908,o),
(94,626,cs),
(94,462,ls),
(95,177,o),
(307,-20,o),
(616,-20,cs),
(883,-20,o),
(1031,90,o),
(1080,158,c),
(1080,552,l)
);
}
);
width = 1196;
},
{
layerId = "5C20EF92-B63D-42A8-8878-93C2863E0093";
shapes = (
{
closed = 1;
nodes = (
(704,610,l),
(704,376,l),
(896,376,l),
(896,294,l),
(857,276,o),
(843,282,o),
(718,282,cs),
(581,282,o),
(523,358,o),
(522,462,cs),
(522,628,ls),
(523,736,o),
(575,806,o),
(694,806,cs),
(802,806,o),
(843,785,o),
(864,706,c),
(1242,706,l),
(1209,998,o),
(1009,1103,o),
(694,1102,cs),
(369,1103,o),
(139,911,o),
(138,626,cs),
(138,462,ls),
(139,177,o),
(380,-17,o),
(718,-18,cs),
(1049,-17,o),
(1169,81,o),
(1254,166,c),
(1254,610,l)
);
}
);
width = 1384;
},
{
layerId = "B1F27B51-9973-4381-9301-4FE46FE1CA59";
shapes = (
{
closed = 1;
nodes = (
(642,486,l),
(642,440,l),
(994,440,l),
(994,168,l),
(952,99,o),
(749,22,o),
(616,24,cs),
(355,23,o),
(177,201,o),
(178,462,cs),
(178,626,ls),
(177,878,o),
(361,1055,o),
(622,1056,cs),
(836,1056,o),
(968,949,o),
(996,754,c),
(1042,754,l),
(1024,967,o),
(862,1103,o),
(622,1102,cs),
(336,1103,o),
(130,903,o),
(130,626,cs),
(130,462,ls),
(130,175,o),
(327,-22,o),
(616,-24,cs),
(784,-23,o),
(993,63,o),
(1042,152,c),
(1042,486,l)
);
}
);
width = 1208;
}
);
tags = (
"TODO-opsz"
);
unicode = 610;
userData = {
interface.gridadjust.original = "{'width': 1700, 'leftMargin': 154, 'rightMargin': 159}";
"interface.width-adjustments" = (
-16
);
};
},
{
color = 6;
glyphname = Gsmallcaphook;
lastChange = "2022-07-22 10:10:39 +0000";
layers = (
{
layerId = "C698F293-3EC0-4A5A-A3A0-0FDB1F5CF265";
shapes = (
{
closed = 1;
nodes = (
(1080,856,ls),
(1081,972,o),
(1139,1012,o),
(1232,1012,cs),
(1247,1012,o),
(1270,1009,o),
(1288,1006,c),
(1288,1140,l),
(1258,1149,o),
(1217,1155,o),
(1188,1154,cs),
(1023,1155,o),
(944,1047,o),
(944,856,cs),
(944,736,l),
(1080,736,l)
);
},
{
closed = 1;
nodes = (
(626,552,l),
(626,392,l),
(910,392,l),
(910,224,l),
(877,198,o),
(772,140,o),
(616,140,cs),
(417,140,o),
(272,279,o),
(272,462,cs),
(272,626,ls),
(272,806,o),
(423,945,o),
(610,946,cs),
(775,945,o),
(880,873,o),
(898,736,c),
(1078,736,l),
(1057,945,o),
(915,1103,o),
(610,1102,cs),
(310,1103,o),
(95,908,o),
(94,626,cs),
(94,462,ls),
(95,177,o),
(307,-20,o),
(616,-20,cs),
(883,-20,o),
(1031,90,o),
(1080,158,c),
(1080,552,l)
);
}
);
width = 1234;
},
{
layerId = "5C20EF92-B63D-42A8-8878-93C2863E0093";
shapes = (
{
closed = 1;
nodes = (
(1262,864,ls),
(1261,960,o),
(1308,992,o),
(1392,992,cs),
(1427,992,o),
(1453,986,o),
(1482,984,c),
(1482,1230,l),
(1430,1242,o),
(1392,1248,o),
(1334,1248,cs),
(1098,1248,o),
(947,1111,o),
(948,864,cs),
(948,706,l),
(1262,706,l)
);
},
{
closed = 1;
nodes = (
(724,610,l),
(724,376,l),
(916,376,l),
(916,294,l),
(877,276,o),
(863,282,o),
(738,282,cs),
(601,282,o),
(543,358,o),
(544,462,cs),
(544,628,ls),
(543,736,o),
(595,806,o),
(714,806,cs),
(822,806,o),
(863,785,o),
(884,706,c),
(1262,706,l),
(1229,998,o),
(1028,1103,o),
(714,1102,cs),
(388,1103,o),
(159,911,o),
(160,626,cs),
(160,462,ls),
(159,177,o),
(400,-17,o),
(738,-18,cs),
(1069,-17,o),
(1188,81,o),
(1274,166,c),
(1274,610,l)
);
}
);
width = 1630;
},
{
layerId = "B1F27B51-9973-4381-9301-4FE46FE1CA59";
shapes = (
{
closed = 1;
nodes = (
(1042,884,ls),
(1043,1007,o),
(1079,1053,o),
(1182,1054,cs),
(1200,1053,o),
(1227,1052,o),
(1252,1048,c),
(1252,1096,l),
(1228,1098,o),
(1201,1100,o),
(1182,1100,cs),
(1053,1100,o),
(996,1035,o),
(996,884,cs),
(996,754,l),
(1042,754,l,{
name = hr00;
})
);
},
{
closed = 1;
nodes = (
(642,486,l),
(642,440,l),
(994,440,l),
(994,168,l),
(952,99,o),
(749,22,o),
(616,24,cs),
(355,23,o),
(177,201,o),
(178,462,cs),
(178,626,ls),
(177,878,o),
(361,1055,o),
(622,1056,cs),
(836,1056,o),
(968,949,o),
(996,754,c),
(1042,754,l),
(1024,967,o),
(862,1103,o),
(622,1102,cs),
(336,1103,o),
(130,903,o),
(130,626,cs),
(130,462,ls),
(130,175,o),
(327,-22,o),
(616,-24,cs),
(784,-23,o),
(993,63,o),
(1042,152,c),
(1042,486,l)
);
}
);
width = 1120;
}
);
tags = (
"TODO-opsz"
);
unicode = 667;
userData = {
interface.gridadjust.original = "{'width': 1748, 'leftMargin': 126, 'rightMargin': -13}";
"interface.width-adjustments" = (
-16
);
};
},
{
color = 6;
glyphname = Ismallcap;
lastChange = "2022-07-22 10:10:39 +0000";
layers = (
{
layerId = "C698F293-3EC0-4A5A-A3A0-0FDB1F5CF265";
shapes = (
{
closed = 1;
nodes = (
(72,1082,l),
(72,922,l),
(568,922,l),
(568,1082,l)
);
},
{
closed = 1;
nodes = (
(216,1082,l),
(216,0,l),
(418,0,l),
(418,1082,l)
);
},
{
closed = 1;
nodes = (
(72,160,l),
(72,0,l),
(568,0,l),
(568,160,l)
);
}
);
width = 638;
},
{
guides = (
{
angle = 90;
pos = (420,0);
}
);
layerId = "5C20EF92-B63D-42A8-8878-93C2863E0093";
shapes = (
{
closed = 1;
nodes = (
(186,1082,l),
(186,782,l),
(878,782,l),
(878,1082,l,{
name = hr00;
})
);
},
{
closed = 1;
nodes = (
(342,1082,l),
(342,0,l),
(718,0,l),
(718,1082,l)
);
},
{
closed = 1;
nodes = (
(186,302,l),
(186,0,l),
(878,0,l),
(878,302,l)
);
}
);
width = 1064;
},
{
layerId = "B1F27B51-9973-4381-9301-4FE46FE1CA59";
shapes = (
{
closed = 1;
nodes = (
(66,1082,l),
(66,1036,l),
(446,1036,l),
(446,1082,l,{
name = hr00;
})
);
},
{
closed = 1;
nodes = (
(228,1082,l),
(228,0,l),
(274,0,l),
(274,1082,l)
);
},
{
closed = 1;
nodes = (
(66,46,l),
(66,0,l),
(446,0,l),
(446,46,l)
);
}
);
width = 506;
}
);
tags = (
"TODO-opsz"
);
unicode = 618;
userData = {
interface.gridadjust.original = "{'width': 958, 'leftMargin': 138, 'rightMargin': 137}";
"interface.width-adjustments" = (
-16
);
};
},
{
color = 6;
glyphname = Lsmallcap;
lastChange = "2022-07-22 10:10:39 +0000";
layers = (
{
layerId = "C698F293-3EC0-4A5A-A3A0-0FDB1F5CF265";
shapes = (
{
closed = 1;
nodes = (
(206,158,l),
(206,0,l),
(776,0,l),
(776,158,l)
);
},
{
closed = 1;
nodes = (
(50,1082,l),
(50,0,l),
(252,0,l),
(252,1082,l)
);
}
);
width = 824;
},
{
layerId = "5C20EF92-B63D-42A8-8878-93C2863E0093";
shapes = (
{
closed = 1;
nodes = (
(290,300,l),
(290,0,l),
(918,0,l),
(918,300,l)
);
},
{
closed = 1;
nodes = (
(66,1082,l),
(66,0,l),
(444,0,l),
(444,1082,l)
);
}
);
width = 984;
},
{
layerId = "B1F27B51-9973-4381-9301-4FE46FE1CA59";
shapes = (
{
closed = 1;
nodes = (
(116,46,l),
(116,0,l),
(754,0,l),
(754,46,l)
);
},
{
closed = 1;
nodes = (
(104,1082,l),
(104,0,l),
(152,0,l),
(152,1082,l)
);
}
);
width = 850;
}
);
tags = (
"TODO-opsz"
);
unicode = 671;
userData = {
interface.gridadjust.original = "{'width': 1239, 'leftMargin': 188, 'rightMargin': 56}";
"interface.width-adjustments" = (
-16
);
};
},
{
color = 6;
glyphname = Nsmallcap;
kernLeft = m;
kernRight = u;
lastChange = "2022-07-22 10:10:39 +0000";
layers = (
{
background = {
shapes = (
{
pos = (30,0);
ref = N;
scale = (0.75,0.75);
}
);
};
layerId = "C698F293-3EC0-4A5A-A3A0-0FDB1F5CF265";
shapes = (
{
closed = 1;
nodes = (
(824,1118,l),
(824,318,l),
(808,318,l),
(274,1118,l),
(110,1118,l),
(110,0,l),
(280,0,l),
(280,798,l),
(296,798,l),
(826,0,l),
(994,0,l),
(994,1118,l)
);
}
);
width = 1104;
},
{
background = {
shapes = (
{
pos = (42,0);
ref = N;
scale = (0.75,0.75);
}
);
};
guides = (
{
angle = -52;
pos = (934,152);
},
{
angle = -52;
pos = (834,1010);
}
);
layerId = "5C20EF92-B63D-42A8-8878-93C2863E0093";
shapes = (
{
closed = 1;
nodes = (
(806,1118,l),
(806,606,l),
(794,606,l),
(394,1118,l),
(78,1118,l),
(78,0,l),
(464,0,l),
(464,462,l),
(474,462,l),
(832,0,l),
(1200,0,l),
(1200,1118,l)
);
}
);
width = 1278;
},
{
layerId = "B1F27B51-9973-4381-9301-4FE46FE1CA59";
shapes = (
{
closed = 1;
nodes = (
(990,1118,l),
(990,88,l),
(984,88,l),
(244,1118,l),
(198,1118,l),
(198,0,l),
(244,0,l),
(244,1030,l),
(250,1030,l),
(990,0,l),
(1036,0,l),
(1036,1118,l)
);
}
);
width = 1234;
}
);
metricLeft = m;
metricRight = u;
tags = (
"TODO-opsz"
);
unicode = 628;
userData = {
interface.gridadjust.original = "{'width': 1585, 'leftMargin': 188, 'rightMargin': 188}";
"interface.width-adjustments" = (
-16
);
};
},
{
color = 6;
glyphname = OEsmallcap;
lastChange = "2022-07-22 10:10:39 +0000";
layers = (
{
layerId = "C698F293-3EC0-4A5A-A3A0-0FDB1F5CF265";
shapes = (
{
closed = 1;
nodes = (
(1002,158,l),
(1002,0,l),
(1636,0,l),
(1636,158,l,{
name = hr00;
})
);
},
{
closed = 1;
nodes = (
(848,1082,l),
(848,0,l),
(1048,0,l),
(1048,1082,l)
);
},
{
closed = 1;
nodes = (
(1002,628,l),
(1002,468,l),
(1550,468,l),
(1550,628,l)
);
},
{
closed = 1;
nodes = (
(1002,1082,l),
(1002,926,l),
(1636,926,l),
(1636,1082,l)
);
},
{
closed = 1;
nodes = (
(732,-20,o),
(833,0,o),
(984,0,c),
(984,158,l),
(833,157,o),
(746,140,o),
(616,140,cs),
(417,140,o),
(321,320,o),
(322,530,c),
(322,552,l),
(321,759,o),
(417,943,o),
(612,942,cs),
(746,943,o),
(833,925,o),
(984,926,c),
(984,1082,l),
(833,1082,o),
(732,1103,o),
(612,1102,cs),
(310,1103,o),
(121,864,o),
(120,552,c),
(120,530,l),
(121,218,o),
(310,-20,o),
(616,-20,cs)
);
}
);
width = 1754;
},
{
layerId = "5C20EF92-B63D-42A8-8878-93C2863E0093";
shapes = (
{
closed = 1;
nodes = (
(1000,300,l),
(1000,0,l),
(1638,0,l),
(1638,300,l,{
name = hr00;
})
);
},
{
closed = 1;
nodes = (
(774,1082,l),
(774,0,l),
(1152,0,l),
(1152,1082,l)
);
},
{
closed = 1;
nodes = (
(1000,690,l),
(1000,390,l),
(1546,390,l),
(1546,690,l)
);
},
{
closed = 1;
nodes = (
(1000,1082,l),
(1000,782,l),
(1638,782,l),
(1638,1082,l)
);
},
{
closed = 1;
nodes = (
(749,-20,o),
(793,0,o),
(1026,0,c),
(1026,300,l),
(793,300,o),
(711,282,o),
(622,282,cs),
(476,282,o),
(444,387,o),
(444,530,c),
(444,552,l),
(444,687,o),
(479,803,o),
(618,802,cs),
(714,803,o),
(793,783,o),
(1026,782,c),
(1026,1082,l),
(799,1082,o),
(749,1103,o),
(618,1102,cs),
(260,1103,o),
(65,867,o),
(66,552,c),
(66,530,l),
(65,215,o),
(260,-20,o),
(622,-20,cs)
);
}
);
width = 1706;
},
{
layerId = "B1F27B51-9973-4381-9301-4FE46FE1CA59";
shapes = (
{
closed = 1;
nodes = (
(1010,46,l),
(1010,0,l),
(1698,0,l),
(1698,46,l,{
name = hr00;
})
);
},
{
closed = 1;
nodes = (
(972,1082,l),
(972,0,l),
(1018,0,l),
(1018,1082,l)
);
},
{
closed = 1;
nodes = (
(1010,578,l),
(1010,530,l),
(1614,530,l),
(1614,578,l)
);
},
{
closed = 1;
nodes = (
(1010,1082,l),
(1010,1036,l),
(1698,1036,l),
(1698,1082,l)
);
},
{
closed = 1;
nodes = (
(774,-23,o),
(897,-12,o),
(982,2,c),
(982,48,l),
(883,33,o),
(777,23,o),
(716,24,cs),
(432,23,o),
(262,233,o),
(262,542,cs),
(262,546,ls),
(262,849,o),
(426,1057,o),
(718,1058,cs),
(802,1057,o),
(866,1052,o),
(988,1034,c),
(988,1080,l),
(857,1097,o),
(777,1104,o),
(710,1104,cs),
(400,1104,o),
(215,872,o),
(216,546,cs),
(216,542,ls),
(215,210,o),
(407,-23,o),
(712,-24,cs)
);
}
);
width = 1908;
}
);
tags = (
"TODO-opsz"
);
unicode = 630;
userData = {
interface.gridadjust.original = "{'width': 2375, 'leftMargin': 172, 'rightMargin': 120}";
"interface.width-adjustments" = (
-16
);
};
},
{
color = 6;
glyphname = Rsmallcap;
lastChange = "2022-07-22 10:10:39 +0000";
layers = (
{
layerId = "C698F293-3EC0-4A5A-A3A0-0FDB1F5CF265";
shapes = (
{
closed = 1;
nodes = (
(850,0,l),
(1066,0,l),
(750,520,l),
(534,520,l)
);
},
{
closed = 1;
nodes = (
(130,0,l),
(330,0,l),
(330,926,l),
(590,926,ls),
(740,925,o),
(804,835,o),
(804,750,cs),
(804,666,o),
(746,579,o),
(610,578,cs),
(278,578,l),
(278,418,l),
(610,418,ls),
(860,419,o),
(1005,561,o),
(1006,750,cs),
(1005,943,o),
(854,1082,o),
(590,1082,cs),
(130,1082,l)
);
}
);
width = 1196;
},
{
layerId = "5C20EF92-B63D-42A8-8878-93C2863E0093";
shapes = (
{
closed = 1;
nodes = (
(848,0,l),
(1222,0,l),
(916,564,l),
(544,564,l)
);
},
{
closed = 1;
nodes = (
(170,0,l),
(544,0,l),
(544,782,l),
(686,782,ls),
(782,783,o),
(831,736,o),
(832,678,cs),
(831,623,o),
(779,576,o),
(680,576,cs),
(390,576,l),
(390,334,l),
(680,334,ls),
(997,335,o),
(1204,483,o),
(1204,692,cs),
(1204,916,o),
(1003,1082,o),
(686,1082,cs),
(170,1082,l)
);
}
);
width = 1390;
},
{
layerId = "B1F27B51-9973-4381-9301-4FE46FE1CA59";
shapes = (
{
closed = 1;
nodes = (
(980,0,l),
(1036,0,l),
(712,494,l),
(656,494,l)
);
},
{
closed = 1;
nodes = (
(168,0,l),
(216,0,l),
(216,1036,l),
(594,1036,ls),
(784,1036,o),
(903,943,o),
(904,794,cs),
(904,623,o),
(800,518,o),
(632,518,cs),
(186,518,l),
(186,472,l),
(632,472,ls),
(825,471,o),
(948,594,o),
(948,786,cs),
(948,969,o),
(814,1082,o),
(594,1082,cs),
(168,1082,l)
);
}
);
width = 1204;
}
);
tags = (
"TODO-opsz"
);
unicode = 640;
userData = {
interface.gridadjust.original = "{'width': 1555, 'leftMargin': 147, 'rightMargin': 122}";
"interface.width-adjustments" = (
-16
);
};
},
{
color = 6;
glyphname = Rsmallcapinv;
lastChange = "2022-07-22 10:10:39 +0000";
layers = (
{
layerId = "C698F293-3EC0-4A5A-A3A0-0FDB1F5CF265";
shapes = (
{
closed = 1;
nodes = (
(1066,1082,l),
(850,1082,l),
(534,562,l),
(750,562,l)
);
},
{
closed = 1;
nodes = (
(854,0,o),
(1005,143,o),
(1006,332,cs),
(1005,524,o),
(860,663,o),
(610,664,cs),
(278,664,l),
(278,504,l),
(610,504,ls),
(746,503,o),
(804,416,o),
(804,334,cs),
(804,247,o),
(740,157,o),
(590,158,cs),
(330,158,l),
(330,1082,l),
(130,1082,l),
(130,0,l),
(590,0,l)
);
}
);
width = 1196;
},
{
layerId = "5C20EF92-B63D-42A8-8878-93C2863E0093";
shapes = (
{
closed = 1;
nodes = (
(1222,1082,l),
(848,1082,l),
(544,520,l),
(916,520,l)
);
},
{
closed = 1;
nodes = (
(1000,0,o),
(1204,163,o),
(1204,390,cs),
(1204,596,o),
(1000,748,o),
(680,748,cs),
(390,748,l),
(390,506,l),
(680,506,ls),
(779,506,o),
(831,451,o),
(832,404,cs),
(831,358,o),
(779,300,o),
(686,300,cs),
(544,300,l),
(544,1082,l),
(170,1082,l),
(170,0,l),
(686,0,l)
);
}
);
width = 1390;
},
{
layerId = "B1F27B51-9973-4381-9301-4FE46FE1CA59";
shapes = (
{
closed = 1;
nodes = (
(1036,1082,l),
(980,1082,l),
(656,588,l),
(712,588,l)
);
},
{
closed = 1;
nodes = (
(814,0,o),
(948,113,o),
(948,296,cs),
(948,488,o),
(825,611,o),
(632,610,cs),
(186,610,l),
(186,564,l),
(632,564,ls),
(800,564,o),
(904,459,o),
(904,288,cs),
(903,139,o),
(784,47,o),
(594,46,cs),
(216,46,l),
(216,1082,l),
(168,1082,l),
(168,0,l),
(594,0,ls)
);
}
);
width = 1204;
}
);
tags = (
"TODO-opsz"
);
unicode = 641;
userData = {
interface.gridadjust.original = "{'width': 1555, 'leftMargin': 147, 'rightMargin': 122}";
"interface.width-adjustments" = (
-16
);
};
},
{
color = 6;
glyphname = Ysmallcap;
lastChange = "2022-07-22 10:10:39 +0000";
layers = (
{
layerId = "C698F293-3EC0-4A5A-A3A0-0FDB1F5CF265";
shapes = (
{
closed = 1;
nodes = (
(476,350,l),
(594,350,l),
(1028,1082,l),
(804,1082,l),
(444,428,l)
);
},
{
closed = 1;
nodes = (
(-18,1082,l),
(414,350,l),
(534,350,l),
(572,422,l),
(206,1082,l)
);
},
{
closed = 1;
nodes = (
(402,518,l),
(402,0,l),
(600,0,l),
(600,518,l)
);
}
);
width = 1010;
},
{
layerId = "5C20EF92-B63D-42A8-8878-93C2863E0093";
shapes = (
{
closed = 1;
nodes = (
(552,290,l),
(744,290,l),
(1166,1082,l),
(768,1082,l),
(518,500,l)
);
},
{
closed = 1;
nodes = (
(-4,1082,l),
(422,290,l),
(614,290,l),
(650,494,l),
(400,1082,l)
);
},
{
closed = 1;
nodes = (
(392,456,l),
(392,0,l),
(764,0,l),
(764,456,l)
);
}
);
width = 1162;
},
{
layerId = "B1F27B51-9973-4381-9301-4FE46FE1CA59";
shapes = (
{
closed = 1;
nodes = (
(498,384,l),
(542,384,l),
(1010,1082,l),
(954,1082,l),
(498,402,l)
);
},
{
closed = 1;
nodes = (
(34,1082,l),
(494,384,l),
(536,384,l),
(536,402,l),
(90,1082,l)
);
},
{
closed = 1;
nodes = (
(494,396,l),
(494,0,l),
(542,0,l),
(542,396,l)
);
}
);
width = 1042;
}
);
tags = (
"TODO-opsz"
);
unicode = 655;
userData = {
interface.gridadjust.original = "{'width': 1474.0, 'leftMargin': 17, 'rightMargin': 16.0}";
"interface.width-adjustments" = (
-16
);
};
},
{
color = 6;
glyphname = a;
kernLeft = a;
kernRight = a;
lastChange = "2022-07-22 10:10:39 +0000";
layers = (
{
anchors = (
{
name = bottom;
pos = (540,0);
},
{
name = ogonek;
pos = (950,0);
},
{
name = rhalfring;
pos = (536,1304);
},
{
name = top;
pos = (548,1304);
}
);
layerId = "C698F293-3EC0-4A5A-A3A0-0FDB1F5CF265";
shapes = (
{
closed = 1;
nodes = (
(633,-26,o),
(735,79,o),
(770,152,c),
(778,152,l),
(778,0,l),
(950,0,l),
(950,736,ls),
(950,1091,o),
(679,1132,o),
(536,1132,cs),
(368,1132,o),
(176,1073,o),
(88,870,c),
(252,812,l),
(289,893,o),
(379,980,o),
(542,980,cs),
(700,980,o),
(778,897,o),
(778,754,cs),
(778,748,ls),
(778,665,o),
(694,672,o),
(490,646,cs),
(283,619,o),
(56,573,o),
(56,318,cs),
(56,99,o),
(225,-26,o),
(438,-26,cs)
);
},
{
closed = 1;
nodes = (
(327,128,o),
(228,189,o),
(228,308,cs),
(228,439,o),
(348,480,o),
(482,498,cs),
(554,506,o),
(749,527,o),
(778,562,c),
(778,404,ls),
(778,265,o),
(668,128,o),
(464,128,cs)
);
}
);
width = 1060;
},
{
anchors = (
{
name = bottom;
pos = (578,0);
},
{
name = ogonek;
pos = (1096,0);
},
{
name = rhalfring;
pos = (602,1304);
},
{
name = top;
pos = (592,1304);
}
);
background = {
shapes = (
{
closed = 1;
nodes = (
(559,-17,o),
(668,32,o),
(736,158,c),
(744,158,l),
(744,0,l),
(1120,0,l),
(1120,766,ls),
(1120,972,o),
(921,1132,o),
(614,1132,cs),
(268,1132,o),
(107,957,o),
(94,754,c),
(462,754,l),
(472,823,o),
(523,855,o),
(600,856,cs),
(671,855,o),
(717,825,o),
(718,766,cs),
(720,698,o),
(647,677,o),
(460,664,cs),
(229,647,o),
(49,553,o),
(50,308,cs),
(49,86,o),
(199,-17,o),
(414,-18,cs)
);
},
{
closed = 1;
nodes = (
(476,236,o),
(428,269,o),
(428,332,cs),
(428,389,o),
(468,433,o),
(562,448,cs),
(625,458,o),
(679,471,o),
(722,488,c),
(722,396,ls),
(721,294,o),
(635,236,o),
(544,236,cs)
);
}
);
};
guides = (
{
pos = (-168,2280);
},
{
angle = 90;
pos = (680,1164);
}
);
layerId = "5C20EF92-B63D-42A8-8878-93C2863E0093";
shapes = (
{
closed = 1;
nodes = (
(535,-18,o),
(644,32,o),
(712,158,c),
(720,158,l),
(720,0,l),
(1096,0,l),
(1096,766,ls),
(1096,972,o),
(900,1132,o),
(582,1132,cs),
(247,1132,o),
(83,957,o),
(70,754,c),
(438,754,l),
(448,823,o),
(499,856,o),
(576,856,cs),
(645,856,o),
(694,823,o),
(694,766,cs),
(694,762,ls),
(694,697,o),
(623,677,o),
(436,664,cs),
(205,647,o),
(26,553,o),
(26,308,cs),
(26,86,o),
(175,-18,o),
(390,-18,cs)
);
},
{
closed = 1;
nodes = (
(452,236,o),
(404,269,o),
(404,332,cs),
(404,389,o),
(444,433,o),
(538,448,cs),
(601,458,o),
(655,471,o),
(698,488,c),
(698,396,ls),
(698,294,o),
(611,236,o),
(520,236,cs)
);
}
);
width = 1174;
},
{
anchors = (
{
name = bottom;
pos = (556,0);
},
{
name = ogonek;
pos = (904,0);
},
{
name = rhalfring;
pos = (556,1304);
},
{
name = top;
pos = (552,1304);
}
);
guides = (
{
angle = 90;
pos = (748,1616);
}
);
layerId = "B1F27B51-9973-4381-9301-4FE46FE1CA59";
shapes = (
{
closed = 1;
nodes = (
(646,-24,o),
(783,76,o),
(852,226,c),
(858,226,l),
(858,0,l),
(904,0,l),
(904,802,ls),
(904,992,o),
(768,1134,o),
(542,1134,cs),
(367,1134,o),
(221,1047,o),
(168,908,c),
(212,890,l),
(259,1015,o),
(384,1088,o),
(542,1088,cs),
(733,1088,o),
(858,975,o),
(858,802,cs),
(858,736,ls),
(858,649,o),
(713,631,o),
(558,614,cs),
(215,573,o),
(136,454,o),
(136,302,cs),
(136,93,o),
(294,-24,o),
(478,-24,cs)
);
},
{
closed = 1;
nodes = (
(311,22,o),
(182,134,o),
(182,302,cs),
(182,445,o),
(276,535,o),
(576,570,cs),
(704,585,o),
(803,605,o),
(858,646,c),
(858,478,ls),
(858,207,o),
(689,22,o),
(478,22,cs)
);
}
);
width = 1102;
}
);
metricRight = n;
unicode = 97;
userData = {
com.typemytype.robofont.guideline.magnetic.bPqRSFRUb5 = 5;
"interface.width-adjustments" = (
-16
);
};
},
{
color = 10;
glyphname = aringacute;
kernLeft = a;
kernRight = a;
lastChange = "2022-07-22 10:10:39 +0000";
layers = (
{
layerId = "C698F293-3EC0-4A5A-A3A0-0FDB1F5CF265";
shapes = (
{
ref = a;
},
{
alignment = 1;
pos = (294,118);
ref = ringacute.cn;
}
);
width = 1060;
},
{
background = {
shapes = (
{
closed = 1;
nodes = (
(753,1214,o),
(853,1312,o),
(854,1446,cs),
(853,1580,o),
(753,1678,o),
(614,1678,cs),
(473,1678,o),
(373,1580,o),
(374,1446,cs),
(373,1312,o),
(473,1214,o),
(614,1214,cs)
);
},
{
closed = 1;
nodes = (
(526,1496,o),
(563,1532,o),
(614,1532,cs),
(663,1532,o),
(700,1496,o),
(700,1446,cs),
(700,1395,o),
(663,1359,o),
(614,1358,cs),
(563,1359,o),
(526,1395,o),
(526,1446,cs)
);
},
{
closed = 1;
nodes = (
(496,1752,l),
(730,1752,l),
(930,1994,l),
(652,1994,l)
);
}
);
};
layerId = "5C20EF92-B63D-42A8-8878-93C2863E0093";
shapes = (
{
ref = a;
},
{
alignment = 1;
pos = (266,58);
ref = ringacute.cn;
}
);
width = 1174;
},
{
layerId = "B1F27B51-9973-4381-9301-4FE46FE1CA59";
shapes = (
{
ref = a;
},
{
alignment = 1;
pos = (272,152);
ref = ringacute.cn;
}
);
width = 1102;
}
);
unicode = 507;
},
